G04 Layer: BottomLayer*
G04 EasyEDA v6.4.21, 2021-08-26T11:40:12+07:00*
G04 98b3a99d5edf45cba19c310b5ac684a5,c12403d6b0f2427aab4c21fec57e8719,10*
G04 Gerber Generator version 0.2*
G04 Scale: 100 percent, Rotated: No, Reflected: No *
G04 Dimensions in millimeters *
G04 leading zeros omitted , absolute positions ,4 integer and 5 decimal *
%FSLAX45Y45*%
%MOMM*%

%ADD11C,0.4318*%
%ADD12C,0.6350*%
%ADD13C,0.3810*%
%ADD14C,0.6096*%
%ADD16C,2.5000*%
%ADD17C,1.8000*%
%ADD18R,1.7000X1.7000*%
%ADD19C,1.7000*%
%ADD20C,1.8796*%
%ADD22C,1.5240*%
%ADD23C,1.3000*%
%ADD24C,1.6000*%
%ADD25R,1.6000X1.6000*%
%ADD26C,3.0000*%

%LPD*%
G36*
X797814Y520954D02*
G01*
X793902Y521716D01*
X790651Y523951D01*
X788416Y527202D01*
X787654Y531114D01*
X787654Y6796786D01*
X788416Y6800697D01*
X790651Y6803948D01*
X793902Y6806184D01*
X797814Y6806946D01*
X10721086Y6806946D01*
X10724997Y6806184D01*
X10728248Y6803948D01*
X10730484Y6800697D01*
X10731246Y6796786D01*
X10731246Y531114D01*
X10730484Y527202D01*
X10728248Y523951D01*
X10724997Y521716D01*
X10721086Y520954D01*
G37*

%LPC*%
G36*
X1261821Y726135D02*
G01*
X1279855Y727506D01*
X1297635Y730758D01*
X1315008Y735787D01*
X1331772Y742645D01*
X1347724Y751128D01*
X1362710Y761238D01*
X1376629Y772820D01*
X1389227Y785774D01*
X1400454Y799947D01*
X1410157Y815187D01*
X1418234Y831342D01*
X1424635Y848309D01*
X1429207Y865784D01*
X1432001Y883615D01*
X1432915Y901700D01*
X1432001Y919734D01*
X1429207Y937615D01*
X1424635Y955090D01*
X1418234Y972058D01*
X1410157Y988212D01*
X1400454Y1003452D01*
X1389227Y1017625D01*
X1376629Y1030579D01*
X1362710Y1042162D01*
X1347724Y1052271D01*
X1331772Y1060754D01*
X1315008Y1067612D01*
X1297635Y1072642D01*
X1279855Y1075893D01*
X1261821Y1077264D01*
X1243736Y1076807D01*
X1225804Y1074470D01*
X1208227Y1070356D01*
X1191107Y1064412D01*
X1174750Y1056741D01*
X1159256Y1047445D01*
X1144778Y1036574D01*
X1131519Y1024280D01*
X1119581Y1010716D01*
X1109116Y995984D01*
X1100175Y980236D01*
X1092962Y963676D01*
X1087475Y946454D01*
X1083767Y928725D01*
X1081887Y910742D01*
X1081887Y892657D01*
X1083767Y874674D01*
X1087475Y856945D01*
X1092962Y839724D01*
X1100175Y823163D01*
X1109116Y807415D01*
X1119581Y792683D01*
X1131519Y779119D01*
X1144778Y766826D01*
X1159256Y755954D01*
X1174750Y746658D01*
X1191107Y738987D01*
X1208227Y733044D01*
X1225804Y728929D01*
X1243736Y726592D01*
G37*
G36*
X10261854Y726135D02*
G01*
X10279837Y727506D01*
X10297668Y730758D01*
X10314990Y735787D01*
X10331754Y742645D01*
X10347706Y751128D01*
X10362742Y761238D01*
X10376611Y772820D01*
X10389260Y785774D01*
X10400436Y799947D01*
X10410190Y815187D01*
X10418267Y831342D01*
X10424617Y848309D01*
X10429240Y865784D01*
X10432034Y883615D01*
X10432948Y901700D01*
X10432034Y919734D01*
X10429240Y937615D01*
X10424617Y955090D01*
X10418267Y972058D01*
X10410190Y988212D01*
X10400436Y1003452D01*
X10389260Y1017625D01*
X10376611Y1030579D01*
X10362742Y1042162D01*
X10347706Y1052271D01*
X10331754Y1060754D01*
X10314990Y1067612D01*
X10297668Y1072642D01*
X10279837Y1075893D01*
X10261854Y1077264D01*
X10243769Y1076807D01*
X10225836Y1074470D01*
X10208209Y1070356D01*
X10191140Y1064412D01*
X10174782Y1056741D01*
X10159238Y1047445D01*
X10144810Y1036574D01*
X10131501Y1024280D01*
X10119563Y1010716D01*
X10109098Y995984D01*
X10100208Y980236D01*
X10092944Y963676D01*
X10087457Y946454D01*
X10083749Y928725D01*
X10081920Y910742D01*
X10081920Y892657D01*
X10083749Y874674D01*
X10087457Y856945D01*
X10092944Y839724D01*
X10100208Y823163D01*
X10109098Y807415D01*
X10119563Y792683D01*
X10131501Y779119D01*
X10144810Y766826D01*
X10159238Y755954D01*
X10174782Y746658D01*
X10191140Y738987D01*
X10208209Y733044D01*
X10225836Y728929D01*
X10243769Y726592D01*
G37*
G36*
X3447491Y840486D02*
G01*
X4904079Y840486D01*
X4915458Y841400D01*
X4926126Y843940D01*
X4936286Y848156D01*
X4945684Y853897D01*
X4954320Y861314D01*
X5558282Y1465275D01*
X5565698Y1473911D01*
X5571439Y1483309D01*
X5575655Y1493469D01*
X5578195Y1504137D01*
X5579110Y1515516D01*
X5579110Y1576324D01*
X5579567Y1579372D01*
X5580888Y1582115D01*
X5583021Y1584350D01*
X5594096Y1593037D01*
X5605068Y1604010D01*
X5614619Y1616202D01*
X5622645Y1629460D01*
X5628995Y1643583D01*
X5633618Y1658366D01*
X5636412Y1673606D01*
X5637326Y1689100D01*
X5636412Y1704593D01*
X5633618Y1719834D01*
X5628995Y1734616D01*
X5622645Y1748739D01*
X5614619Y1761998D01*
X5605068Y1774189D01*
X5594096Y1785162D01*
X5581904Y1794713D01*
X5568645Y1802739D01*
X5554522Y1809089D01*
X5539689Y1813712D01*
X5524449Y1816506D01*
X5509006Y1817420D01*
X5493512Y1816506D01*
X5478272Y1813712D01*
X5463489Y1809089D01*
X5449366Y1802739D01*
X5436108Y1794713D01*
X5423916Y1785162D01*
X5412943Y1774189D01*
X5403392Y1761998D01*
X5395366Y1748739D01*
X5389016Y1734616D01*
X5384393Y1719834D01*
X5381599Y1704593D01*
X5380685Y1689100D01*
X5381599Y1673606D01*
X5384393Y1658366D01*
X5389016Y1643583D01*
X5395366Y1629460D01*
X5403392Y1616202D01*
X5412943Y1604010D01*
X5423916Y1593037D01*
X5434990Y1584350D01*
X5437124Y1582115D01*
X5438444Y1579372D01*
X5438902Y1576324D01*
X5438902Y1548333D01*
X5438140Y1544472D01*
X5435904Y1541170D01*
X4969662Y1074877D01*
X4965954Y1072540D01*
X4961636Y1071930D01*
X4957419Y1073251D01*
X4954168Y1076147D01*
X4952492Y1080211D01*
X4949647Y1095298D01*
X4945176Y1108964D01*
X4939080Y1121968D01*
X4931359Y1134110D01*
X4922215Y1145184D01*
X4911699Y1155039D01*
X4900066Y1163523D01*
X4887468Y1170432D01*
X4874107Y1175715D01*
X4860137Y1179322D01*
X4845913Y1181100D01*
X4831486Y1181100D01*
X4817262Y1179322D01*
X4803292Y1175715D01*
X4789932Y1170432D01*
X4777333Y1163523D01*
X4765700Y1155039D01*
X4755184Y1145184D01*
X4746040Y1134110D01*
X4738319Y1121968D01*
X4732223Y1108964D01*
X4727752Y1095298D01*
X4725060Y1081176D01*
X4724146Y1066800D01*
X4725060Y1052423D01*
X4727752Y1038301D01*
X4732223Y1024636D01*
X4738319Y1011631D01*
X4746040Y999490D01*
X4747818Y997356D01*
X4749647Y994003D01*
X4750104Y990193D01*
X4749190Y986536D01*
X4746955Y983437D01*
X4743704Y981405D01*
X4739995Y980694D01*
X3480358Y980694D01*
X3476447Y981456D01*
X3473145Y983691D01*
X3404209Y1052626D01*
X3402025Y1055928D01*
X3401263Y1059789D01*
X3401263Y1078738D01*
X3382314Y1078738D01*
X3378403Y1079500D01*
X3375101Y1081735D01*
X3346450Y1110437D01*
X3344367Y1113383D01*
X3343452Y1116939D01*
X3342487Y1131366D01*
X3339896Y1144270D01*
X3339998Y1148740D01*
X3341979Y1152702D01*
X3345484Y1155446D01*
X3349853Y1156462D01*
X3401263Y1156462D01*
X3401263Y1213104D01*
X3396589Y1211326D01*
X3384499Y1204722D01*
X3373374Y1196492D01*
X3363468Y1186891D01*
X3354933Y1176070D01*
X3348786Y1165758D01*
X3345840Y1162608D01*
X3341878Y1160932D01*
X3337560Y1161084D01*
X3333699Y1163015D01*
X3331006Y1166368D01*
X3329025Y1170279D01*
X3321202Y1181658D01*
X3312769Y1190955D01*
X3310788Y1194155D01*
X3310128Y1197813D01*
X3310128Y3628186D01*
X3310788Y3631844D01*
X3312769Y3635044D01*
X3321202Y3644341D01*
X3329025Y3655720D01*
X3331006Y3659632D01*
X3333699Y3662984D01*
X3337560Y3664915D01*
X3341878Y3665067D01*
X3345840Y3663391D01*
X3348786Y3660241D01*
X3354933Y3649929D01*
X3363468Y3639108D01*
X3373374Y3629507D01*
X3384499Y3621278D01*
X3396589Y3614674D01*
X3401263Y3612896D01*
X3401263Y3669537D01*
X3349853Y3669537D01*
X3345484Y3670554D01*
X3341979Y3673297D01*
X3339998Y3677259D01*
X3339896Y3681729D01*
X3342487Y3694633D01*
X3343452Y3708400D01*
X3342487Y3722166D01*
X3339896Y3735070D01*
X3339998Y3739540D01*
X3341979Y3743502D01*
X3345484Y3746246D01*
X3349853Y3747262D01*
X3401263Y3747262D01*
X3401263Y3803904D01*
X3396589Y3802126D01*
X3384499Y3795522D01*
X3373374Y3787292D01*
X3363468Y3777691D01*
X3354933Y3766870D01*
X3348786Y3756558D01*
X3345840Y3753408D01*
X3341878Y3751732D01*
X3337560Y3751884D01*
X3333699Y3753815D01*
X3331006Y3757168D01*
X3329025Y3761079D01*
X3321202Y3772458D01*
X3311956Y3782669D01*
X3301390Y3791610D01*
X3289757Y3799027D01*
X3277260Y3804818D01*
X3264052Y3808933D01*
X3250438Y3811219D01*
X3236671Y3811676D01*
X3222904Y3810304D01*
X3209493Y3807104D01*
X3196590Y3802126D01*
X3184499Y3795522D01*
X3173374Y3787292D01*
X3163468Y3777691D01*
X3154934Y3766870D01*
X3147872Y3754983D01*
X3142488Y3742283D01*
X3138830Y3728974D01*
X3137001Y3715308D01*
X3137001Y3701491D01*
X3138830Y3687826D01*
X3142488Y3674516D01*
X3147872Y3661816D01*
X3154934Y3649929D01*
X3163468Y3639108D01*
X3166821Y3635857D01*
X3169107Y3632504D01*
X3169920Y3628542D01*
X3169920Y1197457D01*
X3169107Y1193495D01*
X3166821Y1190142D01*
X3163468Y1186891D01*
X3154934Y1176070D01*
X3147872Y1164183D01*
X3142488Y1151483D01*
X3138830Y1138174D01*
X3137001Y1124508D01*
X3137001Y1110691D01*
X3138830Y1097026D01*
X3142488Y1083716D01*
X3147872Y1071016D01*
X3154934Y1059129D01*
X3163468Y1048308D01*
X3173374Y1038707D01*
X3184499Y1030478D01*
X3196590Y1023874D01*
X3209493Y1018895D01*
X3222904Y1015695D01*
X3236671Y1014323D01*
X3239566Y1014425D01*
X3243630Y1013714D01*
X3247085Y1011478D01*
X3397250Y861314D01*
X3405936Y853897D01*
X3415284Y848156D01*
X3425444Y843940D01*
X3436162Y841400D01*
G37*
G36*
X7121296Y965047D02*
G01*
X7134910Y965504D01*
X7148322Y967740D01*
X7161275Y971753D01*
X7173620Y977493D01*
X7185101Y984808D01*
X7195515Y993597D01*
X7204608Y1003706D01*
X7212330Y1014882D01*
X7218425Y1027023D01*
X7222896Y1039876D01*
X7225639Y1053236D01*
X7226553Y1066800D01*
X7225639Y1080363D01*
X7222896Y1093724D01*
X7218425Y1106576D01*
X7212330Y1118717D01*
X7204608Y1129893D01*
X7195515Y1140002D01*
X7185101Y1148791D01*
X7173620Y1156106D01*
X7161275Y1161846D01*
X7148322Y1165860D01*
X7134910Y1168095D01*
X7121296Y1168552D01*
X7107783Y1167231D01*
X7094524Y1164082D01*
X7081824Y1159154D01*
X7069886Y1152652D01*
X7058964Y1144574D01*
X7049160Y1135126D01*
X7040727Y1124407D01*
X7033818Y1112723D01*
X7028484Y1100226D01*
X7024928Y1087069D01*
X7023100Y1073607D01*
X7023100Y1059992D01*
X7024928Y1046530D01*
X7028484Y1033373D01*
X7033818Y1020876D01*
X7040727Y1009192D01*
X7049160Y998474D01*
X7058964Y989025D01*
X7069886Y980948D01*
X7081824Y974445D01*
X7094524Y969518D01*
X7107783Y966368D01*
G37*
G36*
X2708910Y994308D02*
G01*
X2723997Y995730D01*
X2738831Y998982D01*
X2753156Y1004011D01*
X2766771Y1010767D01*
X2779420Y1019200D01*
X2790952Y1029055D01*
X2801162Y1040282D01*
X2809951Y1052677D01*
X2817164Y1066038D01*
X2822651Y1080211D01*
X2826359Y1094943D01*
X2828188Y1110030D01*
X2828188Y1125169D01*
X2826359Y1140256D01*
X2822651Y1154988D01*
X2817164Y1169162D01*
X2809951Y1182522D01*
X2801162Y1194917D01*
X2790952Y1206144D01*
X2779420Y1215999D01*
X2766771Y1224432D01*
X2753156Y1231188D01*
X2738831Y1236218D01*
X2723997Y1239469D01*
X2708910Y1240891D01*
X2693720Y1240383D01*
X2678734Y1238097D01*
X2664104Y1233932D01*
X2650134Y1227988D01*
X2636977Y1220419D01*
X2624836Y1211275D01*
X2613964Y1200708D01*
X2604414Y1188872D01*
X2596438Y1175969D01*
X2590088Y1162151D01*
X2585466Y1147673D01*
X2582722Y1132738D01*
X2581757Y1117600D01*
X2582722Y1102461D01*
X2585466Y1087526D01*
X2590088Y1073048D01*
X2596438Y1059230D01*
X2604414Y1046327D01*
X2613964Y1034491D01*
X2624836Y1023924D01*
X2636977Y1014780D01*
X2650134Y1007211D01*
X2664104Y1001268D01*
X2678734Y997102D01*
X2693720Y994816D01*
G37*
G36*
X3971340Y1007160D02*
G01*
X3985514Y1007618D01*
X3999534Y1009903D01*
X4013098Y1013917D01*
X4026052Y1019657D01*
X4038193Y1027023D01*
X4049268Y1035862D01*
X4059123Y1046022D01*
X4067606Y1057402D01*
X4073499Y1067866D01*
X4075785Y1070610D01*
X4078833Y1072388D01*
X4082287Y1073048D01*
X4091076Y1073099D01*
X4099509Y1074267D01*
X4107332Y1076909D01*
X4114546Y1080922D01*
X4121251Y1086459D01*
X4655566Y1620875D01*
X4660747Y1627733D01*
X4664456Y1635099D01*
X4666691Y1643024D01*
X4667504Y1651711D01*
X4667504Y1907692D01*
X4668266Y1911553D01*
X4670501Y1914855D01*
X4759706Y2004060D01*
X4762652Y2006142D01*
X4766106Y2007006D01*
X4769662Y2006650D01*
X4772914Y2005075D01*
X4783886Y1996948D01*
X4795824Y1990445D01*
X4808524Y1985518D01*
X4821783Y1982368D01*
X4835296Y1981047D01*
X4848910Y1981504D01*
X4862322Y1983739D01*
X4875276Y1987753D01*
X4887620Y1993493D01*
X4899101Y2000808D01*
X4909515Y2009597D01*
X4918608Y2019706D01*
X4926330Y2030882D01*
X4932426Y2043023D01*
X4936896Y2055875D01*
X4939639Y2069236D01*
X4940554Y2082800D01*
X4939639Y2096363D01*
X4936896Y2109724D01*
X4932426Y2122576D01*
X4926330Y2134717D01*
X4918608Y2145893D01*
X4910734Y2154631D01*
X4908804Y2157730D01*
X4908092Y2161286D01*
X4908702Y2164892D01*
X4910531Y2168042D01*
X4913325Y2170328D01*
X4918049Y2172970D01*
X4924755Y2178507D01*
X5150866Y2404719D01*
X5156047Y2411577D01*
X5159756Y2418943D01*
X5161991Y2426919D01*
X5162804Y2435555D01*
X5162804Y3321964D01*
X5163566Y3325825D01*
X5165801Y3329127D01*
X5169052Y3331311D01*
X5172964Y3332124D01*
X5176875Y3331311D01*
X5180126Y3329127D01*
X5396280Y3112973D01*
X5398516Y3109671D01*
X5399278Y3105810D01*
X5399278Y3012998D01*
X5398566Y3009341D01*
X5396636Y3006140D01*
X5393639Y3003905D01*
X5384190Y2999181D01*
X5371896Y2991053D01*
X5360720Y2981452D01*
X5350814Y2970580D01*
X5342280Y2958592D01*
X5335320Y2945587D01*
X5330037Y2931871D01*
X5326430Y2917596D01*
X5324602Y2902966D01*
X5324602Y2888234D01*
X5326430Y2873603D01*
X5330037Y2859328D01*
X5335320Y2845612D01*
X5342280Y2832608D01*
X5350814Y2820619D01*
X5360720Y2809748D01*
X5371896Y2800146D01*
X5384190Y2792018D01*
X5397398Y2785465D01*
X5411266Y2780538D01*
X5425643Y2777388D01*
X5440324Y2776016D01*
X5455056Y2776474D01*
X5469585Y2778760D01*
X5483758Y2782773D01*
X5497322Y2788513D01*
X5510072Y2795879D01*
X5521807Y2804769D01*
X5532374Y2815031D01*
X5541619Y2826512D01*
X5549392Y2839008D01*
X5555538Y2852369D01*
X5560009Y2866440D01*
X5562701Y2880918D01*
X5563616Y2895600D01*
X5562701Y2910281D01*
X5560009Y2924759D01*
X5555538Y2938830D01*
X5549392Y2952191D01*
X5541619Y2964688D01*
X5532374Y2976168D01*
X5521807Y2986430D01*
X5510072Y2995320D01*
X5497322Y3002686D01*
X5494883Y3003702D01*
X5491632Y3005937D01*
X5489448Y3009188D01*
X5488686Y3013049D01*
X5488635Y3130245D01*
X5487466Y3138728D01*
X5484825Y3146552D01*
X5480812Y3153765D01*
X5475274Y3160471D01*
X5418531Y3217214D01*
X5416245Y3220669D01*
X5415534Y3224682D01*
X5416499Y3228695D01*
X5418988Y3231997D01*
X5422544Y3234029D01*
X5426608Y3234486D01*
X5440324Y3233216D01*
X5455056Y3233674D01*
X5469585Y3235960D01*
X5483758Y3239973D01*
X5497322Y3245713D01*
X5510072Y3253079D01*
X5521807Y3261969D01*
X5532374Y3272231D01*
X5541619Y3283712D01*
X5549392Y3296208D01*
X5555538Y3309569D01*
X5560009Y3323640D01*
X5562701Y3338118D01*
X5563616Y3352800D01*
X5562701Y3367481D01*
X5560009Y3381959D01*
X5555538Y3396030D01*
X5549392Y3409391D01*
X5541619Y3421887D01*
X5532374Y3433368D01*
X5521807Y3443630D01*
X5510072Y3452520D01*
X5497322Y3459886D01*
X5483758Y3465626D01*
X5469585Y3469640D01*
X5455056Y3471926D01*
X5440324Y3472383D01*
X5425643Y3471011D01*
X5411266Y3467862D01*
X5403189Y3465017D01*
X5399430Y3464407D01*
X5395722Y3465271D01*
X5392623Y3467404D01*
X5343601Y3516426D01*
X5341366Y3519728D01*
X5340604Y3523589D01*
X5340553Y4167327D01*
X5339384Y4175810D01*
X5336743Y4183634D01*
X5332730Y4190847D01*
X5327192Y4197553D01*
X4939334Y4585411D01*
X4937201Y4588510D01*
X4936337Y4592167D01*
X4936896Y4595876D01*
X4939639Y4609236D01*
X4940554Y4622800D01*
X4939639Y4636363D01*
X4936896Y4649724D01*
X4932426Y4662576D01*
X4926330Y4674717D01*
X4918608Y4685893D01*
X4909515Y4696002D01*
X4899101Y4704791D01*
X4887620Y4712106D01*
X4875276Y4717846D01*
X4862322Y4721860D01*
X4848910Y4724095D01*
X4835296Y4724552D01*
X4821783Y4723231D01*
X4808524Y4720082D01*
X4795824Y4715154D01*
X4783886Y4708652D01*
X4772964Y4700574D01*
X4763160Y4691126D01*
X4754727Y4680407D01*
X4747818Y4668723D01*
X4742484Y4656226D01*
X4738928Y4643069D01*
X4737100Y4629607D01*
X4737100Y4615992D01*
X4738928Y4602530D01*
X4742484Y4589373D01*
X4747818Y4576876D01*
X4754727Y4565192D01*
X4763160Y4554474D01*
X4772964Y4545025D01*
X4783886Y4536948D01*
X4795824Y4530445D01*
X4808524Y4525518D01*
X4821783Y4522368D01*
X4835296Y4521047D01*
X4848910Y4521504D01*
X4862322Y4523740D01*
X4865776Y4524806D01*
X4869434Y4525264D01*
X4872990Y4524400D01*
X4875987Y4522317D01*
X5248198Y4150055D01*
X5250434Y4146753D01*
X5251196Y4142892D01*
X5251196Y4044035D01*
X5250434Y4040174D01*
X5248198Y4036872D01*
X5244947Y4034688D01*
X5241036Y4033875D01*
X5237124Y4034688D01*
X5233873Y4036872D01*
X4939334Y4331411D01*
X4937201Y4334510D01*
X4936337Y4338167D01*
X4936896Y4341876D01*
X4939639Y4355236D01*
X4940554Y4368800D01*
X4939639Y4382363D01*
X4936896Y4395724D01*
X4932426Y4408576D01*
X4926330Y4420717D01*
X4918608Y4431893D01*
X4909515Y4442002D01*
X4899101Y4450791D01*
X4887620Y4458106D01*
X4875276Y4463846D01*
X4862322Y4467860D01*
X4848910Y4470095D01*
X4835296Y4470552D01*
X4821783Y4469231D01*
X4808524Y4466082D01*
X4795824Y4461154D01*
X4783886Y4454652D01*
X4772964Y4446574D01*
X4763160Y4437126D01*
X4754727Y4426407D01*
X4747818Y4414723D01*
X4742484Y4402226D01*
X4738928Y4389069D01*
X4737100Y4375607D01*
X4737100Y4361992D01*
X4738928Y4348530D01*
X4742484Y4335373D01*
X4747818Y4322876D01*
X4754727Y4311192D01*
X4763160Y4300474D01*
X4772964Y4291025D01*
X4783886Y4282948D01*
X4795824Y4276445D01*
X4808524Y4271518D01*
X4821783Y4268368D01*
X4835296Y4267047D01*
X4848910Y4267504D01*
X4862322Y4269740D01*
X4865776Y4270806D01*
X4869434Y4271264D01*
X4872990Y4270400D01*
X4875987Y4268317D01*
X5159298Y3984955D01*
X5161534Y3981653D01*
X5162296Y3977792D01*
X5162296Y3624935D01*
X5161534Y3621074D01*
X5159298Y3617772D01*
X5156047Y3615588D01*
X5152136Y3614775D01*
X5148224Y3615588D01*
X5144973Y3617772D01*
X4939334Y3823411D01*
X4937201Y3826510D01*
X4936337Y3830167D01*
X4936896Y3833876D01*
X4939639Y3847236D01*
X4940554Y3860800D01*
X4939639Y3874363D01*
X4936896Y3887724D01*
X4932426Y3900576D01*
X4926330Y3912717D01*
X4918608Y3923893D01*
X4909515Y3934002D01*
X4899101Y3942791D01*
X4887620Y3950106D01*
X4875276Y3955846D01*
X4862322Y3959860D01*
X4848910Y3962095D01*
X4835296Y3962552D01*
X4821783Y3961231D01*
X4808524Y3958082D01*
X4795824Y3953154D01*
X4783886Y3946651D01*
X4772964Y3938574D01*
X4763160Y3929126D01*
X4754727Y3918407D01*
X4747818Y3906723D01*
X4742484Y3894226D01*
X4738928Y3881069D01*
X4737100Y3867607D01*
X4737100Y3853992D01*
X4738928Y3840530D01*
X4742484Y3827373D01*
X4747818Y3814876D01*
X4754727Y3803192D01*
X4763160Y3792474D01*
X4772964Y3783025D01*
X4783886Y3774948D01*
X4795824Y3768445D01*
X4808524Y3763518D01*
X4821783Y3760368D01*
X4835296Y3759047D01*
X4848910Y3759504D01*
X4862322Y3761740D01*
X4865776Y3762806D01*
X4869434Y3763264D01*
X4872990Y3762400D01*
X4875987Y3760317D01*
X5070398Y3565855D01*
X5072634Y3562553D01*
X5073396Y3558692D01*
X5073396Y3471519D01*
X5072634Y3467658D01*
X5070500Y3464407D01*
X5067300Y3462172D01*
X5063439Y3461359D01*
X5059578Y3462020D01*
X5056276Y3464102D01*
X4940401Y3572764D01*
X4938318Y3575507D01*
X4937252Y3578758D01*
X4937353Y3582162D01*
X4939639Y3593236D01*
X4940554Y3606800D01*
X4939639Y3620363D01*
X4936896Y3633724D01*
X4932426Y3646576D01*
X4926330Y3658717D01*
X4918608Y3669893D01*
X4909515Y3680002D01*
X4899101Y3688791D01*
X4887620Y3696106D01*
X4875276Y3701846D01*
X4862322Y3705860D01*
X4848910Y3708095D01*
X4835296Y3708552D01*
X4821783Y3707231D01*
X4808524Y3704082D01*
X4795824Y3699154D01*
X4783886Y3692651D01*
X4772964Y3684574D01*
X4763160Y3675126D01*
X4754727Y3664407D01*
X4747818Y3652723D01*
X4742484Y3640226D01*
X4738928Y3627069D01*
X4737100Y3613607D01*
X4737100Y3599992D01*
X4738928Y3586530D01*
X4742484Y3573373D01*
X4747818Y3560876D01*
X4754727Y3549192D01*
X4763160Y3538474D01*
X4772964Y3529025D01*
X4783886Y3520948D01*
X4795824Y3514445D01*
X4808524Y3509518D01*
X4821783Y3506368D01*
X4835296Y3505047D01*
X4848910Y3505504D01*
X4862322Y3507740D01*
X4869180Y3509873D01*
X4872736Y3510330D01*
X4876190Y3509518D01*
X4879136Y3507587D01*
X4993792Y3400094D01*
X4996180Y3396691D01*
X4996992Y3392627D01*
X4996180Y3283000D01*
X4995367Y3279140D01*
X4993182Y3275838D01*
X4989880Y3273653D01*
X4986020Y3272891D01*
X4982108Y3273704D01*
X4978857Y3275888D01*
X4939334Y3315411D01*
X4937201Y3318510D01*
X4936337Y3322167D01*
X4936896Y3325876D01*
X4939639Y3339236D01*
X4940554Y3352800D01*
X4939639Y3366363D01*
X4936896Y3379724D01*
X4932426Y3392576D01*
X4926330Y3404717D01*
X4918608Y3415893D01*
X4909515Y3426002D01*
X4899101Y3434791D01*
X4887620Y3442106D01*
X4875276Y3447846D01*
X4862322Y3451860D01*
X4848910Y3454095D01*
X4835296Y3454552D01*
X4821783Y3453231D01*
X4808524Y3450082D01*
X4795824Y3445154D01*
X4783886Y3438651D01*
X4772964Y3430574D01*
X4763160Y3421126D01*
X4754727Y3410407D01*
X4747818Y3398723D01*
X4742484Y3386226D01*
X4738928Y3373069D01*
X4737100Y3359607D01*
X4737100Y3345992D01*
X4738928Y3332530D01*
X4742484Y3319373D01*
X4747818Y3306876D01*
X4754727Y3295192D01*
X4763160Y3284474D01*
X4772964Y3275025D01*
X4783886Y3266948D01*
X4795824Y3260445D01*
X4808524Y3255517D01*
X4821783Y3252368D01*
X4835296Y3251047D01*
X4848910Y3251504D01*
X4862322Y3253740D01*
X4865776Y3254806D01*
X4869434Y3255264D01*
X4872990Y3254400D01*
X4875987Y3252317D01*
X4913680Y3214573D01*
X4915916Y3211271D01*
X4916678Y3207410D01*
X4916678Y3187801D01*
X4915966Y3184042D01*
X4913884Y3180842D01*
X4910785Y3178606D01*
X4907076Y3177692D01*
X4903317Y3178200D01*
X4887620Y3188106D01*
X4875276Y3193846D01*
X4862322Y3197860D01*
X4848910Y3200095D01*
X4835296Y3200552D01*
X4821783Y3199231D01*
X4810912Y3196640D01*
X4807508Y3196386D01*
X4804206Y3197352D01*
X4801412Y3199333D01*
X4440123Y3560622D01*
X4437888Y3563924D01*
X4437126Y3567785D01*
X4437075Y5070805D01*
X4435906Y5079288D01*
X4433265Y5087112D01*
X4429252Y5094325D01*
X4423714Y5101031D01*
X4082592Y5442153D01*
X4080560Y5444998D01*
X4079646Y5448401D01*
X4079951Y5451906D01*
X4083507Y5465419D01*
X4085285Y5479440D01*
X4085285Y5493664D01*
X4083507Y5507685D01*
X4079900Y5521401D01*
X4074566Y5534558D01*
X4067606Y5546902D01*
X4059123Y5558282D01*
X4049268Y5568442D01*
X4038193Y5577281D01*
X4026052Y5584647D01*
X4013098Y5590387D01*
X3999534Y5594400D01*
X3985514Y5596686D01*
X3971340Y5597144D01*
X3957218Y5595772D01*
X3943400Y5592622D01*
X3930091Y5587695D01*
X3917543Y5581142D01*
X3905910Y5573064D01*
X3895445Y5563514D01*
X3886250Y5552744D01*
X3878478Y5540857D01*
X3872331Y5528056D01*
X3867861Y5514594D01*
X3865168Y5500674D01*
X3864254Y5486552D01*
X3865168Y5472430D01*
X3867861Y5458510D01*
X3872331Y5445048D01*
X3878478Y5432247D01*
X3886250Y5420360D01*
X3895445Y5409590D01*
X3905910Y5400040D01*
X3917543Y5391962D01*
X3930091Y5385409D01*
X3943400Y5380482D01*
X3957218Y5377332D01*
X3971340Y5375960D01*
X3985514Y5376418D01*
X3999534Y5378704D01*
X4009186Y5381548D01*
X4012793Y5381955D01*
X4016298Y5381091D01*
X4019245Y5379008D01*
X4344720Y5053533D01*
X4346956Y5050231D01*
X4347718Y5046370D01*
X4347768Y3543350D01*
X4348937Y3534867D01*
X4351578Y3527044D01*
X4355592Y3519830D01*
X4361129Y3513124D01*
X4738217Y3136036D01*
X4740249Y3133140D01*
X4741164Y3129686D01*
X4740859Y3126181D01*
X4738928Y3119069D01*
X4737100Y3105607D01*
X4737100Y3091992D01*
X4738928Y3078530D01*
X4742484Y3065373D01*
X4747869Y3052826D01*
X4749190Y3048863D01*
X4748834Y3044698D01*
X4746853Y3041040D01*
X4743551Y3038500D01*
X4739538Y3037484D01*
X4735423Y3038195D01*
X4731918Y3040430D01*
X4302201Y3470198D01*
X4299966Y3473500D01*
X4299204Y3477361D01*
X4299153Y4954727D01*
X4297984Y4963210D01*
X4295343Y4971034D01*
X4291330Y4978247D01*
X4285792Y4984953D01*
X4082592Y5188153D01*
X4080560Y5190998D01*
X4079646Y5194401D01*
X4079951Y5197906D01*
X4083507Y5211419D01*
X4085285Y5225440D01*
X4085285Y5239664D01*
X4083507Y5253685D01*
X4079900Y5267401D01*
X4074566Y5280558D01*
X4067606Y5292902D01*
X4059123Y5304282D01*
X4049268Y5314442D01*
X4038193Y5323281D01*
X4026052Y5330647D01*
X4013098Y5336387D01*
X3999534Y5340400D01*
X3985514Y5342686D01*
X3971340Y5343144D01*
X3957218Y5341772D01*
X3943400Y5338622D01*
X3930091Y5333695D01*
X3917543Y5327142D01*
X3905910Y5319064D01*
X3895445Y5309514D01*
X3886250Y5298744D01*
X3878478Y5286857D01*
X3872331Y5274056D01*
X3867861Y5260594D01*
X3865168Y5246674D01*
X3864254Y5232552D01*
X3865168Y5218430D01*
X3867861Y5204510D01*
X3872331Y5191048D01*
X3878478Y5178247D01*
X3886250Y5166360D01*
X3895445Y5155590D01*
X3905910Y5146040D01*
X3917543Y5137962D01*
X3930091Y5131409D01*
X3943400Y5126482D01*
X3957218Y5123332D01*
X3971340Y5121960D01*
X3985514Y5122418D01*
X3999534Y5124704D01*
X4009186Y5127548D01*
X4012793Y5127955D01*
X4016298Y5127091D01*
X4019245Y5125008D01*
X4206798Y4937455D01*
X4209034Y4934153D01*
X4209796Y4930292D01*
X4209796Y4450130D01*
X4209034Y4446320D01*
X4206900Y4443069D01*
X4203700Y4440834D01*
X4199890Y4439970D01*
X4196029Y4440631D01*
X4192727Y4442714D01*
X4190441Y4445863D01*
X4188510Y4449927D01*
X4182922Y4457954D01*
X4176014Y4464862D01*
X4167987Y4470450D01*
X4159148Y4474616D01*
X4149699Y4477105D01*
X4139946Y4477969D01*
X4130192Y4477105D01*
X4120743Y4474616D01*
X4111904Y4470450D01*
X4103878Y4464862D01*
X4102658Y4463592D01*
X4099356Y4461408D01*
X4095445Y4460646D01*
X4091584Y4461408D01*
X4088282Y4463592D01*
X4086098Y4466894D01*
X4085285Y4470806D01*
X4085285Y4477664D01*
X4083507Y4491685D01*
X4079900Y4505401D01*
X4074566Y4518558D01*
X4067606Y4530902D01*
X4059123Y4542282D01*
X4049268Y4552442D01*
X4038193Y4561281D01*
X4026052Y4568647D01*
X4013098Y4574387D01*
X3999534Y4578400D01*
X3985514Y4580686D01*
X3971340Y4581144D01*
X3957218Y4579772D01*
X3943400Y4576622D01*
X3930091Y4571695D01*
X3917543Y4565142D01*
X3905910Y4557064D01*
X3895445Y4547514D01*
X3886250Y4536744D01*
X3878478Y4524857D01*
X3872331Y4512056D01*
X3867861Y4498594D01*
X3865168Y4484674D01*
X3864254Y4470552D01*
X3865168Y4456430D01*
X3867861Y4442510D01*
X3872331Y4429048D01*
X3878478Y4416247D01*
X3886250Y4404360D01*
X3895445Y4393590D01*
X3905910Y4384040D01*
X3917543Y4375962D01*
X3930091Y4369409D01*
X3943400Y4364482D01*
X3957218Y4361332D01*
X3971340Y4359960D01*
X3985514Y4360418D01*
X3999534Y4362704D01*
X4013098Y4366717D01*
X4026052Y4372457D01*
X4038193Y4379823D01*
X4049268Y4388662D01*
X4059123Y4398822D01*
X4068013Y4410760D01*
X4071467Y4413707D01*
X4075836Y4414875D01*
X4080256Y4414012D01*
X4083862Y4411319D01*
X4085996Y4407306D01*
X4087215Y4402683D01*
X4091381Y4393844D01*
X4093413Y4390948D01*
X4094784Y4388154D01*
X4095242Y4385106D01*
X4095242Y4265676D01*
X4094479Y4261764D01*
X4092244Y4258462D01*
X4088942Y4256278D01*
X4085031Y4255516D01*
X4081119Y4256328D01*
X4077868Y4258513D01*
X4075684Y4261866D01*
X4074566Y4264558D01*
X4067606Y4276902D01*
X4059123Y4288282D01*
X4049268Y4298442D01*
X4038193Y4307281D01*
X4026052Y4314647D01*
X4013098Y4320387D01*
X3999534Y4324400D01*
X3985514Y4326686D01*
X3971340Y4327144D01*
X3957218Y4325772D01*
X3943400Y4322622D01*
X3930091Y4317695D01*
X3917543Y4311142D01*
X3905910Y4303064D01*
X3895445Y4293514D01*
X3886250Y4282744D01*
X3878478Y4270857D01*
X3872331Y4258056D01*
X3867861Y4244594D01*
X3865168Y4230674D01*
X3864254Y4216552D01*
X3865168Y4202430D01*
X3867861Y4188510D01*
X3872331Y4175048D01*
X3878478Y4162247D01*
X3886250Y4150360D01*
X3895445Y4139590D01*
X3905910Y4130040D01*
X3917543Y4121962D01*
X3930091Y4115409D01*
X3943400Y4110482D01*
X3957218Y4107332D01*
X3971340Y4105960D01*
X3985514Y4106418D01*
X3999534Y4108704D01*
X4013098Y4112717D01*
X4026052Y4118457D01*
X4038193Y4125823D01*
X4049268Y4134662D01*
X4059123Y4144822D01*
X4067606Y4156201D01*
X4074566Y4168546D01*
X4075684Y4171238D01*
X4077868Y4174591D01*
X4081119Y4176776D01*
X4085031Y4177588D01*
X4088942Y4176826D01*
X4092244Y4174642D01*
X4094479Y4171340D01*
X4095242Y4167428D01*
X4095242Y4150461D01*
X4094479Y4146600D01*
X4092244Y4143298D01*
X4019092Y4070146D01*
X4016146Y4068064D01*
X4012641Y4067200D01*
X4009034Y4067606D01*
X3999534Y4070400D01*
X3985514Y4072686D01*
X3971340Y4073144D01*
X3957218Y4071772D01*
X3943400Y4068622D01*
X3930091Y4063695D01*
X3917543Y4057142D01*
X3905910Y4049064D01*
X3895445Y4039514D01*
X3886250Y4028744D01*
X3878478Y4016857D01*
X3872331Y4004056D01*
X3867861Y3990594D01*
X3865168Y3976674D01*
X3864254Y3962552D01*
X3865168Y3948429D01*
X3867861Y3934510D01*
X3869791Y3928719D01*
X3870299Y3925062D01*
X3869436Y3921404D01*
X3867353Y3918356D01*
X3599434Y3650386D01*
X3594252Y3643528D01*
X3590544Y3636162D01*
X3588308Y3628237D01*
X3587496Y3619550D01*
X3587546Y1712722D01*
X3588715Y1704238D01*
X3591356Y1696415D01*
X3595370Y1689201D01*
X3600907Y1682496D01*
X3867353Y1416050D01*
X3869486Y1413002D01*
X3870350Y1409344D01*
X3869842Y1405686D01*
X3867861Y1399794D01*
X3865168Y1385874D01*
X3864254Y1371752D01*
X3865168Y1357630D01*
X3867861Y1343710D01*
X3872331Y1330248D01*
X3878478Y1317447D01*
X3886250Y1305560D01*
X3895445Y1294790D01*
X3905910Y1285240D01*
X3917543Y1277162D01*
X3930091Y1270609D01*
X3943400Y1265682D01*
X3957218Y1262532D01*
X3971340Y1261160D01*
X3985514Y1261618D01*
X3999534Y1263904D01*
X4013098Y1267917D01*
X4026052Y1273657D01*
X4038193Y1281023D01*
X4049268Y1289862D01*
X4059123Y1300022D01*
X4067606Y1311402D01*
X4074566Y1323746D01*
X4079900Y1336903D01*
X4083507Y1350619D01*
X4085285Y1364640D01*
X4085285Y1378864D01*
X4083507Y1392885D01*
X4079900Y1406601D01*
X4074566Y1419758D01*
X4067606Y1432102D01*
X4059123Y1443482D01*
X4049268Y1453642D01*
X4038193Y1462481D01*
X4026052Y1469847D01*
X4013098Y1475587D01*
X3999534Y1479600D01*
X3985514Y1481886D01*
X3971340Y1482344D01*
X3957218Y1480972D01*
X3943400Y1477822D01*
X3941216Y1477010D01*
X3937457Y1476400D01*
X3933698Y1477213D01*
X3930497Y1479346D01*
X3679901Y1729993D01*
X3677665Y1733296D01*
X3676904Y1737156D01*
X3676904Y3597300D01*
X3677665Y3601161D01*
X3679901Y3604463D01*
X3930396Y3855008D01*
X3933596Y3857142D01*
X3937304Y3857955D01*
X3941114Y3857345D01*
X3943400Y3856482D01*
X3957218Y3853332D01*
X3971340Y3851960D01*
X3985514Y3852418D01*
X3999534Y3854704D01*
X4013098Y3858717D01*
X4026052Y3864457D01*
X4038193Y3871823D01*
X4049268Y3880662D01*
X4059123Y3890822D01*
X4067606Y3902201D01*
X4074566Y3914546D01*
X4079900Y3927703D01*
X4083507Y3941419D01*
X4085285Y3955440D01*
X4085285Y3969664D01*
X4083507Y3983685D01*
X4079900Y3997350D01*
X4079595Y4000855D01*
X4080510Y4004259D01*
X4082542Y4007154D01*
X4172712Y4097375D01*
X4177893Y4104233D01*
X4181601Y4111599D01*
X4183837Y4119524D01*
X4184650Y4128211D01*
X4184650Y4385106D01*
X4185107Y4388154D01*
X4186478Y4390948D01*
X4188510Y4393844D01*
X4190441Y4397908D01*
X4192727Y4401058D01*
X4196029Y4403140D01*
X4199890Y4403801D01*
X4203700Y4402937D01*
X4206900Y4400702D01*
X4209034Y4397451D01*
X4209796Y4393641D01*
X4209846Y3452926D01*
X4211015Y3444443D01*
X4213656Y3436620D01*
X4217670Y3429406D01*
X4223207Y3422700D01*
X4706975Y2939034D01*
X4713833Y2933852D01*
X4721199Y2930144D01*
X4729124Y2927908D01*
X4737811Y2927096D01*
X4753254Y2927096D01*
X4757674Y2926080D01*
X4761179Y2923286D01*
X4763160Y2919222D01*
X4763160Y2914700D01*
X4761230Y2910636D01*
X4754727Y2902407D01*
X4747818Y2890723D01*
X4742484Y2878226D01*
X4738928Y2865069D01*
X4737100Y2851607D01*
X4737100Y2837992D01*
X4738928Y2824530D01*
X4740859Y2817418D01*
X4741164Y2813913D01*
X4740249Y2810459D01*
X4738217Y2807563D01*
X4620107Y2689453D01*
X4616805Y2687218D01*
X4612944Y2686456D01*
X4082389Y2686456D01*
X4078884Y2687066D01*
X4075785Y2688894D01*
X4073499Y2691638D01*
X4067606Y2702102D01*
X4059123Y2713482D01*
X4049268Y2723642D01*
X4038193Y2732481D01*
X4026052Y2739847D01*
X4013098Y2745587D01*
X3999534Y2749600D01*
X3985514Y2751886D01*
X3971340Y2752344D01*
X3957218Y2750972D01*
X3943400Y2747822D01*
X3930091Y2742895D01*
X3917543Y2736342D01*
X3905910Y2728264D01*
X3895445Y2718714D01*
X3886250Y2707944D01*
X3878478Y2696057D01*
X3872331Y2683256D01*
X3867861Y2669794D01*
X3865168Y2655874D01*
X3864254Y2641752D01*
X3865168Y2627630D01*
X3867861Y2613710D01*
X3872331Y2600248D01*
X3878478Y2587447D01*
X3886250Y2575560D01*
X3895445Y2564790D01*
X3905910Y2555240D01*
X3917543Y2547162D01*
X3930091Y2540609D01*
X3943400Y2535682D01*
X3957218Y2532532D01*
X3971340Y2531160D01*
X3985514Y2531618D01*
X3999534Y2533904D01*
X4013098Y2537917D01*
X4026052Y2543657D01*
X4038193Y2551023D01*
X4049268Y2559862D01*
X4059123Y2570022D01*
X4067606Y2581402D01*
X4073499Y2591866D01*
X4075785Y2594610D01*
X4078884Y2596438D01*
X4082389Y2597048D01*
X4637379Y2597099D01*
X4645863Y2598267D01*
X4653686Y2600909D01*
X4660900Y2604922D01*
X4667605Y2610459D01*
X4801412Y2744266D01*
X4804206Y2746248D01*
X4807508Y2747213D01*
X4810912Y2746959D01*
X4821783Y2744368D01*
X4835296Y2743047D01*
X4848910Y2743504D01*
X4862322Y2745740D01*
X4875276Y2749753D01*
X4887620Y2755493D01*
X4899101Y2762808D01*
X4909515Y2771597D01*
X4918608Y2781706D01*
X4926330Y2792882D01*
X4932426Y2805023D01*
X4936896Y2817876D01*
X4939639Y2831236D01*
X4940554Y2844800D01*
X4939639Y2858363D01*
X4936896Y2871724D01*
X4932426Y2884576D01*
X4926330Y2896717D01*
X4918608Y2907893D01*
X4909058Y2918510D01*
X4906924Y2921812D01*
X4905857Y2925114D01*
X4905959Y2928518D01*
X4907229Y2931718D01*
X4909464Y2934360D01*
X4916881Y2940507D01*
X4976622Y3000298D01*
X4979974Y3002483D01*
X4983835Y3003296D01*
X4987747Y3002483D01*
X4991049Y3000248D01*
X4993233Y2996946D01*
X4993995Y2993034D01*
X4991252Y2633675D01*
X4990490Y2629814D01*
X4988306Y2626563D01*
X4957114Y2595372D01*
X4953914Y2593238D01*
X4950155Y2592425D01*
X4946345Y2593086D01*
X4943094Y2595067D01*
X4940757Y2598166D01*
X4939792Y2601925D01*
X4939639Y2604363D01*
X4936896Y2617724D01*
X4932426Y2630576D01*
X4926330Y2642717D01*
X4918608Y2653893D01*
X4909515Y2664002D01*
X4899101Y2672791D01*
X4887620Y2680106D01*
X4875276Y2685846D01*
X4862322Y2689860D01*
X4848910Y2692095D01*
X4835296Y2692552D01*
X4821783Y2691231D01*
X4808524Y2688082D01*
X4795824Y2683154D01*
X4783886Y2676652D01*
X4772964Y2668574D01*
X4763160Y2659126D01*
X4754727Y2648407D01*
X4747818Y2636723D01*
X4742484Y2624226D01*
X4738928Y2611069D01*
X4737100Y2597607D01*
X4737100Y2583992D01*
X4738928Y2570530D01*
X4742484Y2557373D01*
X4747818Y2544876D01*
X4754727Y2533192D01*
X4761230Y2524963D01*
X4763160Y2520899D01*
X4763160Y2516378D01*
X4761179Y2512314D01*
X4757674Y2509520D01*
X4753254Y2508504D01*
X4557217Y2508453D01*
X4548733Y2507284D01*
X4540910Y2504643D01*
X4533696Y2500630D01*
X4526991Y2495092D01*
X4019245Y1987296D01*
X4016248Y1985264D01*
X4012742Y1984349D01*
X4009136Y1984756D01*
X3999534Y1987600D01*
X3985514Y1989886D01*
X3971340Y1990343D01*
X3957218Y1988972D01*
X3943400Y1985822D01*
X3930091Y1980895D01*
X3917543Y1974342D01*
X3905910Y1966264D01*
X3895445Y1956714D01*
X3886250Y1945944D01*
X3878478Y1934057D01*
X3872331Y1921256D01*
X3867861Y1907793D01*
X3865168Y1893874D01*
X3864254Y1879752D01*
X3865168Y1865630D01*
X3867861Y1851710D01*
X3872331Y1838248D01*
X3878478Y1825447D01*
X3886250Y1813560D01*
X3895445Y1802790D01*
X3905910Y1793239D01*
X3917543Y1785162D01*
X3930091Y1778609D01*
X3943400Y1773682D01*
X3957218Y1770532D01*
X3971340Y1769160D01*
X3985514Y1769618D01*
X3999534Y1771904D01*
X4013098Y1775917D01*
X4026052Y1781657D01*
X4038193Y1789023D01*
X4049268Y1797862D01*
X4059123Y1808022D01*
X4067606Y1819402D01*
X4074566Y1831746D01*
X4079900Y1844903D01*
X4083507Y1858619D01*
X4085285Y1872640D01*
X4085285Y1886864D01*
X4083507Y1900885D01*
X4079951Y1914448D01*
X4079646Y1917954D01*
X4080560Y1921357D01*
X4082592Y1924202D01*
X4574489Y2416098D01*
X4577791Y2418334D01*
X4581652Y2419096D01*
X4753254Y2419096D01*
X4757674Y2418080D01*
X4761179Y2415286D01*
X4763160Y2411222D01*
X4763160Y2406700D01*
X4761230Y2402636D01*
X4754727Y2394407D01*
X4747818Y2382723D01*
X4742484Y2370226D01*
X4738928Y2357069D01*
X4737100Y2343607D01*
X4737100Y2329992D01*
X4738928Y2316530D01*
X4742484Y2303373D01*
X4747818Y2290876D01*
X4754727Y2279192D01*
X4761230Y2270963D01*
X4763160Y2266899D01*
X4763160Y2262378D01*
X4761179Y2258314D01*
X4757674Y2255520D01*
X4753254Y2254504D01*
X4557217Y2254453D01*
X4548733Y2253284D01*
X4540910Y2250643D01*
X4533696Y2246630D01*
X4526991Y2241092D01*
X4019245Y1733296D01*
X4016248Y1731264D01*
X4012742Y1730349D01*
X4009136Y1730756D01*
X3999534Y1733600D01*
X3985514Y1735886D01*
X3971340Y1736343D01*
X3957218Y1734972D01*
X3943400Y1731822D01*
X3930091Y1726895D01*
X3917543Y1720342D01*
X3905910Y1712264D01*
X3895445Y1702714D01*
X3886250Y1691944D01*
X3878478Y1680057D01*
X3872331Y1667256D01*
X3867861Y1653793D01*
X3865168Y1639874D01*
X3864254Y1625752D01*
X3865168Y1611630D01*
X3867861Y1597710D01*
X3872331Y1584248D01*
X3878478Y1571447D01*
X3886250Y1559560D01*
X3895445Y1548790D01*
X3905910Y1539240D01*
X3917543Y1531162D01*
X3930091Y1524609D01*
X3943400Y1519682D01*
X3957218Y1516532D01*
X3971340Y1515160D01*
X3985514Y1515618D01*
X3999534Y1517904D01*
X4013098Y1521917D01*
X4026052Y1527657D01*
X4038193Y1535023D01*
X4049268Y1543862D01*
X4059123Y1554022D01*
X4067606Y1565402D01*
X4074566Y1577746D01*
X4079900Y1590903D01*
X4083507Y1604619D01*
X4085285Y1618640D01*
X4085285Y1632864D01*
X4083507Y1646885D01*
X4079951Y1660448D01*
X4079646Y1663954D01*
X4080560Y1667357D01*
X4082592Y1670202D01*
X4574489Y2162098D01*
X4577791Y2164334D01*
X4581652Y2165096D01*
X4753254Y2165096D01*
X4757674Y2164080D01*
X4761179Y2161286D01*
X4763160Y2157222D01*
X4763160Y2152700D01*
X4761230Y2148636D01*
X4754727Y2140407D01*
X4747818Y2128723D01*
X4742484Y2116226D01*
X4741113Y2112416D01*
X4739538Y2110333D01*
X4590034Y1960778D01*
X4584852Y1953920D01*
X4581144Y1946554D01*
X4578908Y1938629D01*
X4578096Y1929942D01*
X4578096Y1673961D01*
X4577334Y1670100D01*
X4575098Y1666798D01*
X4083862Y1175512D01*
X4080814Y1173429D01*
X4077157Y1172565D01*
X4073499Y1173073D01*
X4070197Y1174902D01*
X4067606Y1178102D01*
X4059123Y1189482D01*
X4049268Y1199642D01*
X4038193Y1208481D01*
X4026052Y1215847D01*
X4013098Y1221587D01*
X3999534Y1225600D01*
X3985514Y1227886D01*
X3971340Y1228344D01*
X3957218Y1226972D01*
X3943400Y1223822D01*
X3930091Y1218895D01*
X3917543Y1212342D01*
X3905910Y1204264D01*
X3895445Y1194714D01*
X3886250Y1183944D01*
X3878478Y1172057D01*
X3872331Y1159256D01*
X3867861Y1145794D01*
X3865168Y1131874D01*
X3864254Y1117752D01*
X3865168Y1103630D01*
X3867861Y1089710D01*
X3872331Y1076248D01*
X3878478Y1063447D01*
X3886250Y1051560D01*
X3895445Y1040790D01*
X3905910Y1031240D01*
X3917543Y1023162D01*
X3930091Y1016609D01*
X3943400Y1011682D01*
X3957218Y1008532D01*
G37*
G36*
X3478936Y1021943D02*
G01*
X3489756Y1026972D01*
X3501390Y1034389D01*
X3511956Y1043330D01*
X3521201Y1053541D01*
X3529025Y1064920D01*
X3535222Y1077264D01*
X3535730Y1078738D01*
X3478936Y1078738D01*
G37*
G36*
X3478936Y1156462D02*
G01*
X3535730Y1156462D01*
X3535222Y1157935D01*
X3529025Y1170279D01*
X3521201Y1181658D01*
X3511956Y1191869D01*
X3501390Y1200810D01*
X3489756Y1208227D01*
X3478936Y1213256D01*
G37*
G36*
X4835296Y1219047D02*
G01*
X4848910Y1219504D01*
X4862322Y1221740D01*
X4875276Y1225753D01*
X4887620Y1231493D01*
X4899101Y1238808D01*
X4909515Y1247597D01*
X4918608Y1257706D01*
X4926330Y1268882D01*
X4932426Y1281023D01*
X4936896Y1293876D01*
X4939639Y1307236D01*
X4940554Y1320800D01*
X4939639Y1334363D01*
X4936896Y1347724D01*
X4932426Y1360576D01*
X4926330Y1372717D01*
X4918608Y1383893D01*
X4909515Y1394002D01*
X4899101Y1402791D01*
X4887620Y1410106D01*
X4875276Y1415846D01*
X4862322Y1419860D01*
X4848910Y1422095D01*
X4835296Y1422552D01*
X4821783Y1421231D01*
X4808524Y1418082D01*
X4795824Y1413154D01*
X4783886Y1406652D01*
X4772964Y1398574D01*
X4763160Y1389126D01*
X4754727Y1378407D01*
X4747818Y1366723D01*
X4742484Y1354226D01*
X4738928Y1341069D01*
X4737100Y1327607D01*
X4737100Y1313992D01*
X4738928Y1300530D01*
X4742484Y1287373D01*
X4747818Y1274876D01*
X4754727Y1263192D01*
X4763160Y1252474D01*
X4772964Y1243025D01*
X4783886Y1234948D01*
X4795824Y1228445D01*
X4808524Y1223518D01*
X4821783Y1220368D01*
G37*
G36*
X7121296Y1219047D02*
G01*
X7134910Y1219504D01*
X7148322Y1221740D01*
X7161275Y1225753D01*
X7173620Y1231493D01*
X7185101Y1238808D01*
X7195515Y1247597D01*
X7204608Y1257706D01*
X7212330Y1268882D01*
X7218425Y1281023D01*
X7222896Y1293876D01*
X7225639Y1307236D01*
X7226553Y1320800D01*
X7225639Y1334363D01*
X7222896Y1347724D01*
X7218425Y1360576D01*
X7212330Y1372717D01*
X7204608Y1383893D01*
X7195515Y1394002D01*
X7185101Y1402791D01*
X7173620Y1410106D01*
X7161275Y1415846D01*
X7148322Y1419860D01*
X7134910Y1422095D01*
X7121296Y1422552D01*
X7107783Y1421231D01*
X7094524Y1418082D01*
X7081824Y1413154D01*
X7069886Y1406652D01*
X7058964Y1398574D01*
X7049160Y1389126D01*
X7040727Y1378407D01*
X7033818Y1366723D01*
X7028484Y1354226D01*
X7024928Y1341069D01*
X7023100Y1327607D01*
X7023100Y1313992D01*
X7024928Y1300530D01*
X7028484Y1287373D01*
X7033818Y1274876D01*
X7040727Y1263192D01*
X7049160Y1252474D01*
X7058964Y1243025D01*
X7069886Y1234948D01*
X7081824Y1228445D01*
X7094524Y1223518D01*
X7107783Y1220368D01*
G37*
G36*
X2753969Y1258417D02*
G01*
X2766771Y1264767D01*
X2779420Y1273200D01*
X2790952Y1283055D01*
X2801162Y1294282D01*
X2809951Y1306677D01*
X2817164Y1320038D01*
X2818180Y1322730D01*
X2753969Y1322730D01*
G37*
G36*
X2656230Y1258620D02*
G01*
X2656230Y1322730D01*
X2592070Y1322730D01*
X2596438Y1313230D01*
X2604414Y1300327D01*
X2613964Y1288491D01*
X2624836Y1277924D01*
X2636977Y1268780D01*
X2650134Y1261211D01*
G37*
G36*
X1205128Y1310132D02*
G01*
X1221384Y1311046D01*
X1237488Y1313789D01*
X1253185Y1318310D01*
X1268272Y1324559D01*
X1282598Y1332484D01*
X1295908Y1341932D01*
X1308100Y1352804D01*
X1318971Y1364996D01*
X1328420Y1378305D01*
X1336294Y1392580D01*
X1342593Y1407668D01*
X1347114Y1423365D01*
X1349806Y1439468D01*
X1350721Y1455775D01*
X1349806Y1472082D01*
X1347114Y1488186D01*
X1342593Y1503883D01*
X1336294Y1518970D01*
X1328420Y1533245D01*
X1318971Y1546555D01*
X1308100Y1558747D01*
X1295908Y1569618D01*
X1282598Y1579067D01*
X1268272Y1586992D01*
X1253185Y1593240D01*
X1237488Y1597761D01*
X1221384Y1600504D01*
X1205128Y1601419D01*
X1188821Y1600504D01*
X1172718Y1597761D01*
X1157020Y1593240D01*
X1141933Y1586992D01*
X1127607Y1579067D01*
X1114298Y1569618D01*
X1102106Y1558747D01*
X1091234Y1546555D01*
X1081786Y1533245D01*
X1073912Y1518970D01*
X1067612Y1503883D01*
X1063091Y1488186D01*
X1060399Y1472082D01*
X1059484Y1455775D01*
X1060399Y1439468D01*
X1063091Y1423365D01*
X1067612Y1407668D01*
X1073912Y1392580D01*
X1081786Y1378305D01*
X1091234Y1364996D01*
X1102106Y1352804D01*
X1114298Y1341932D01*
X1127607Y1332484D01*
X1141933Y1324559D01*
X1157020Y1318310D01*
X1172718Y1313789D01*
X1188821Y1311046D01*
G37*
G36*
X8013700Y1404416D02*
G01*
X8023453Y1405280D01*
X8032902Y1407769D01*
X8041741Y1411935D01*
X8049768Y1417523D01*
X8056676Y1424432D01*
X8062264Y1432458D01*
X8066430Y1441297D01*
X8068919Y1450746D01*
X8069783Y1460500D01*
X8068919Y1470253D01*
X8066430Y1479702D01*
X8062264Y1488541D01*
X8056676Y1496568D01*
X8051901Y1501648D01*
X8050733Y1503578D01*
X8044992Y1510487D01*
X7312812Y2242566D01*
X7305954Y2247747D01*
X7298588Y2251456D01*
X7290663Y2253691D01*
X7281976Y2254504D01*
X7210145Y2254504D01*
X7206335Y2255266D01*
X7203084Y2257348D01*
X7200849Y2260549D01*
X7199985Y2264308D01*
X7200595Y2268169D01*
X7202627Y2271471D01*
X7204608Y2273706D01*
X7212330Y2284882D01*
X7218425Y2297023D01*
X7222896Y2309876D01*
X7225639Y2323236D01*
X7226503Y2337104D01*
X7227062Y2341118D01*
X7229144Y2344623D01*
X7232446Y2347010D01*
X7236409Y2347925D01*
X7240422Y2347214D01*
X7243825Y2344928D01*
X7996021Y1592834D01*
X8002879Y1587652D01*
X8010245Y1583944D01*
X8018170Y1581708D01*
X8026857Y1580896D01*
X9615627Y1580946D01*
X9624110Y1582115D01*
X9631934Y1584756D01*
X9639147Y1588770D01*
X9645853Y1594307D01*
X10065766Y2014321D01*
X10070947Y2021179D01*
X10074656Y2028545D01*
X10076891Y2036470D01*
X10077704Y2045157D01*
X10077704Y2311552D01*
X10078669Y2315870D01*
X10081412Y2319375D01*
X10085324Y2321407D01*
X10089743Y2321509D01*
X10093858Y2319782D01*
X10098633Y2316276D01*
X10111232Y2309368D01*
X10115550Y2307640D01*
X10115550Y2368550D01*
X10087864Y2368550D01*
X10083952Y2369312D01*
X10080701Y2371547D01*
X10078466Y2374849D01*
X10077704Y2378710D01*
X10077704Y2447290D01*
X10078466Y2451201D01*
X10080701Y2454452D01*
X10083952Y2456688D01*
X10087864Y2457450D01*
X10115550Y2457450D01*
X10115550Y2518359D01*
X10111232Y2516632D01*
X10098633Y2509723D01*
X10093858Y2506218D01*
X10089743Y2504490D01*
X10085324Y2504592D01*
X10081412Y2506624D01*
X10078669Y2510129D01*
X10077704Y2514447D01*
X10077704Y2517292D01*
X10078466Y2521153D01*
X10080701Y2524455D01*
X10122662Y2566466D01*
X10125506Y2568448D01*
X10128808Y2569362D01*
X10132212Y2569159D01*
X10143032Y2566568D01*
X10156596Y2565196D01*
X10170160Y2565654D01*
X10183571Y2567940D01*
X10196576Y2571953D01*
X10208920Y2577693D01*
X10220401Y2585008D01*
X10230764Y2593797D01*
X10239908Y2603855D01*
X10247579Y2615082D01*
X10253726Y2627223D01*
X10258196Y2640076D01*
X10260888Y2653436D01*
X10261803Y2667000D01*
X10260888Y2680563D01*
X10258196Y2693873D01*
X10253726Y2706725D01*
X10247579Y2718866D01*
X10239908Y2730093D01*
X10230764Y2740202D01*
X10220401Y2748991D01*
X10208920Y2756306D01*
X10196576Y2761996D01*
X10183571Y2766060D01*
X10170160Y2768295D01*
X10156596Y2768752D01*
X10143032Y2767380D01*
X10129824Y2764231D01*
X10117124Y2759354D01*
X10105186Y2752801D01*
X10094264Y2744774D01*
X10084460Y2735275D01*
X10076027Y2724607D01*
X10069118Y2712923D01*
X10063784Y2700375D01*
X10060178Y2687269D01*
X10058400Y2673807D01*
X10058400Y2660192D01*
X10060178Y2646730D01*
X10062159Y2639618D01*
X10062464Y2636062D01*
X10061549Y2632659D01*
X10059517Y2629763D01*
X10000234Y2570378D01*
X9995052Y2563520D01*
X9991344Y2556154D01*
X9989108Y2548229D01*
X9988296Y2539542D01*
X9988296Y2067407D01*
X9987534Y2063546D01*
X9985298Y2060244D01*
X9650933Y1725828D01*
X9647123Y1723440D01*
X9642703Y1722882D01*
X9638487Y1724304D01*
X9635236Y1727403D01*
X9633661Y1731619D01*
X9634016Y1736039D01*
X9636252Y1739900D01*
X9919411Y2045716D01*
X9921951Y2048713D01*
X9926320Y2052726D01*
X9931247Y2059279D01*
X9934956Y2066645D01*
X9937191Y2074570D01*
X9938004Y2083257D01*
X9938004Y2656992D01*
X9938766Y2660853D01*
X9941001Y2664155D01*
X10104221Y2827375D01*
X10107828Y2829712D01*
X10112095Y2830322D01*
X10117124Y2828645D01*
X10129824Y2823718D01*
X10143032Y2820568D01*
X10156596Y2819247D01*
X10170160Y2819704D01*
X10183571Y2821940D01*
X10196576Y2825953D01*
X10208920Y2831693D01*
X10220401Y2839008D01*
X10230764Y2847797D01*
X10239908Y2857906D01*
X10247579Y2869082D01*
X10253726Y2881223D01*
X10258196Y2894076D01*
X10260888Y2907436D01*
X10261803Y2921000D01*
X10260888Y2934563D01*
X10258196Y2947924D01*
X10253726Y2960776D01*
X10247579Y2972917D01*
X10239908Y2984093D01*
X10230764Y2994202D01*
X10220401Y3002991D01*
X10208920Y3010306D01*
X10196576Y3016046D01*
X10183571Y3020060D01*
X10170160Y3022346D01*
X10156596Y3022752D01*
X10143083Y3021431D01*
X10128707Y3017926D01*
X10124338Y3017824D01*
X10120376Y3019552D01*
X10117429Y3022803D01*
X10116159Y3026968D01*
X10116769Y3031286D01*
X10119106Y3034995D01*
X10141610Y3057448D01*
X10144912Y3059684D01*
X10148773Y3060446D01*
X10235692Y3060446D01*
X10243667Y3061208D01*
X10250881Y3063392D01*
X10257485Y3066948D01*
X10263276Y3071723D01*
X10268051Y3077514D01*
X10271607Y3084118D01*
X10273792Y3091332D01*
X10274554Y3099308D01*
X10274554Y3250692D01*
X10273792Y3258667D01*
X10271607Y3265881D01*
X10268051Y3272485D01*
X10263276Y3278276D01*
X10257485Y3283051D01*
X10250881Y3286607D01*
X10243667Y3288792D01*
X10239248Y3289198D01*
X10235692Y3290214D01*
X10232745Y3292500D01*
X10230764Y3295650D01*
X10230104Y3299307D01*
X10230104Y3320643D01*
X10229189Y3332022D01*
X10226649Y3342690D01*
X10222433Y3352850D01*
X10216692Y3362248D01*
X10209276Y3370884D01*
X10087051Y3493160D01*
X10084816Y3496462D01*
X10084054Y3500323D01*
X10084054Y4542332D01*
X10084917Y4546396D01*
X10087356Y4549800D01*
X10090962Y4551934D01*
X10095128Y4552442D01*
X10099090Y4551222D01*
X10111232Y4544568D01*
X10115550Y4542840D01*
X10115550Y4603750D01*
X10094214Y4603750D01*
X10090302Y4604512D01*
X10087051Y4606747D01*
X10084816Y4610049D01*
X10084054Y4613910D01*
X10084054Y4682490D01*
X10084816Y4686401D01*
X10087051Y4689652D01*
X10090302Y4691888D01*
X10094214Y4692650D01*
X10115550Y4692650D01*
X10115550Y4753559D01*
X10111232Y4751832D01*
X10099090Y4745177D01*
X10095128Y4743958D01*
X10090962Y4744466D01*
X10087356Y4746599D01*
X10084917Y4750003D01*
X10084054Y4754067D01*
X10084054Y4811826D01*
X10085019Y4816144D01*
X10087762Y4819650D01*
X10091724Y4821682D01*
X10096195Y4821783D01*
X10100259Y4820005D01*
X10105186Y4816348D01*
X10117124Y4809794D01*
X10129824Y4804918D01*
X10143032Y4801768D01*
X10156596Y4800396D01*
X10170160Y4800854D01*
X10183571Y4803140D01*
X10196576Y4807153D01*
X10208920Y4812893D01*
X10220401Y4820208D01*
X10230764Y4828997D01*
X10239908Y4839055D01*
X10247579Y4850282D01*
X10253726Y4862423D01*
X10258196Y4875276D01*
X10260888Y4888636D01*
X10261803Y4902200D01*
X10260888Y4915763D01*
X10258196Y4929073D01*
X10253726Y4941925D01*
X10247579Y4954066D01*
X10239908Y4965293D01*
X10230764Y4975402D01*
X10220401Y4984191D01*
X10208920Y4991506D01*
X10196576Y4997196D01*
X10183571Y5001260D01*
X10170160Y5003495D01*
X10156596Y5003952D01*
X10143032Y5002580D01*
X10129824Y4999431D01*
X10117124Y4994554D01*
X10105186Y4988001D01*
X10100259Y4984394D01*
X10096195Y4982565D01*
X10091724Y4982718D01*
X10087762Y4984699D01*
X10085019Y4988204D01*
X10084054Y4992573D01*
X10084054Y5065826D01*
X10085019Y5070195D01*
X10087762Y5073700D01*
X10091724Y5075682D01*
X10096195Y5075834D01*
X10100259Y5074005D01*
X10105186Y5070348D01*
X10117124Y5063845D01*
X10129824Y5058918D01*
X10143032Y5055768D01*
X10156596Y5054447D01*
X10170160Y5054904D01*
X10183571Y5057140D01*
X10196576Y5061153D01*
X10208920Y5066893D01*
X10220401Y5074208D01*
X10230764Y5082997D01*
X10239908Y5093106D01*
X10247579Y5104282D01*
X10253726Y5116423D01*
X10258196Y5129276D01*
X10260888Y5142636D01*
X10261803Y5156200D01*
X10260888Y5169763D01*
X10258196Y5183124D01*
X10253726Y5195976D01*
X10247579Y5208117D01*
X10239908Y5219293D01*
X10230764Y5229402D01*
X10220401Y5238191D01*
X10208920Y5245506D01*
X10196576Y5251246D01*
X10183571Y5255260D01*
X10170160Y5257546D01*
X10156596Y5257952D01*
X10143083Y5256631D01*
X10128707Y5253126D01*
X10124338Y5253024D01*
X10120376Y5254752D01*
X10117429Y5258003D01*
X10116159Y5262168D01*
X10116769Y5266486D01*
X10119106Y5270195D01*
X10141610Y5292648D01*
X10144912Y5294884D01*
X10148773Y5295646D01*
X10235692Y5295646D01*
X10243667Y5296408D01*
X10250881Y5298592D01*
X10257485Y5302148D01*
X10263276Y5306923D01*
X10268051Y5312714D01*
X10271607Y5319318D01*
X10273792Y5326532D01*
X10274554Y5334508D01*
X10274554Y5485892D01*
X10273792Y5493867D01*
X10271607Y5501081D01*
X10268051Y5507685D01*
X10263276Y5513476D01*
X10257485Y5518251D01*
X10250881Y5521807D01*
X10243667Y5523992D01*
X10239248Y5524398D01*
X10235692Y5525414D01*
X10232745Y5527700D01*
X10230764Y5530850D01*
X10230104Y5534507D01*
X10230002Y5591251D01*
X10229189Y5599125D01*
X10228630Y5602173D01*
X10226598Y5609793D01*
X10225582Y5612739D01*
X10222382Y5619953D01*
X10220909Y5622696D01*
X10216642Y5629300D01*
X9703714Y6267754D01*
X9702038Y6270752D01*
X9701479Y6274104D01*
X9701479Y6430314D01*
X9700666Y6438290D01*
X9698482Y6445453D01*
X9694926Y6452057D01*
X9690201Y6457899D01*
X9684359Y6462674D01*
X9677755Y6466179D01*
X9670592Y6468364D01*
X9662617Y6469176D01*
X9463582Y6469176D01*
X9455607Y6468364D01*
X9448444Y6466179D01*
X9441840Y6462674D01*
X9435998Y6457899D01*
X9431274Y6452057D01*
X9427718Y6445453D01*
X9425533Y6438290D01*
X9424771Y6430314D01*
X9424771Y6231280D01*
X9425533Y6223304D01*
X9427718Y6216142D01*
X9431274Y6209538D01*
X9435998Y6203696D01*
X9441840Y6198971D01*
X9448444Y6195415D01*
X9455607Y6193231D01*
X9463582Y6192469D01*
X9579457Y6192469D01*
X9583877Y6191453D01*
X9587382Y6188659D01*
X10087660Y5566105D01*
X10089337Y5563108D01*
X10089896Y5559755D01*
X10089896Y5534507D01*
X10089235Y5530850D01*
X10087254Y5527700D01*
X10084308Y5525414D01*
X10080752Y5524398D01*
X10076332Y5523992D01*
X10069118Y5521807D01*
X10062514Y5518251D01*
X10056723Y5513476D01*
X10051948Y5507685D01*
X10048392Y5501081D01*
X10046208Y5493867D01*
X10045446Y5485892D01*
X10045446Y5398973D01*
X10044684Y5395112D01*
X10042448Y5391810D01*
X9964674Y5313984D01*
X9957257Y5305348D01*
X9951516Y5295950D01*
X9947300Y5285790D01*
X9944760Y5275122D01*
X9943846Y5263743D01*
X9943846Y3467506D01*
X9944760Y3456127D01*
X9947300Y3445459D01*
X9951516Y3435299D01*
X9957257Y3425901D01*
X9964674Y3417265D01*
X10077246Y3304692D01*
X10079532Y3301187D01*
X10080193Y3297072D01*
X10079177Y3293059D01*
X10076637Y3289757D01*
X10073030Y3287776D01*
X10069118Y3286607D01*
X10062514Y3283051D01*
X10056723Y3278276D01*
X10051948Y3272485D01*
X10048392Y3265881D01*
X10046208Y3258667D01*
X10045446Y3250692D01*
X10045446Y3163773D01*
X10044684Y3159912D01*
X10042448Y3156610D01*
X9693910Y2808020D01*
X9686493Y2799384D01*
X9680752Y2789986D01*
X9676536Y2779826D01*
X9673996Y2769158D01*
X9673082Y2757779D01*
X9673082Y2088134D01*
X9672320Y2084222D01*
X9670084Y2080971D01*
X9611004Y2021941D01*
X9607600Y2019706D01*
X9603587Y2018944D01*
X9599625Y2019858D01*
X9596323Y2022246D01*
X9594240Y2025700D01*
X9593681Y2029714D01*
X9593834Y2032000D01*
X9592919Y2046681D01*
X9590227Y2061159D01*
X9585756Y2075230D01*
X9579559Y2088591D01*
X9571837Y2101088D01*
X9562592Y2112568D01*
X9552025Y2122830D01*
X9540290Y2131720D01*
X9527540Y2139086D01*
X9513976Y2144826D01*
X9499193Y2148992D01*
X9495332Y2151075D01*
X9492742Y2154529D01*
X9491827Y2159203D01*
X9492742Y2163470D01*
X9495332Y2166924D01*
X9499193Y2169007D01*
X9513976Y2173173D01*
X9527540Y2178913D01*
X9540290Y2186279D01*
X9552025Y2195169D01*
X9562592Y2205431D01*
X9571837Y2216912D01*
X9579559Y2229408D01*
X9585756Y2242769D01*
X9590227Y2256840D01*
X9592919Y2271318D01*
X9593834Y2286000D01*
X9592919Y2300681D01*
X9590227Y2315159D01*
X9585756Y2329230D01*
X9579559Y2342591D01*
X9571837Y2355088D01*
X9562592Y2366568D01*
X9552025Y2376830D01*
X9540290Y2385720D01*
X9527540Y2393086D01*
X9513976Y2398826D01*
X9499193Y2402992D01*
X9495332Y2405075D01*
X9492742Y2408529D01*
X9491827Y2413203D01*
X9492742Y2417470D01*
X9495332Y2420924D01*
X9499193Y2423007D01*
X9513976Y2427173D01*
X9527540Y2432913D01*
X9540290Y2440279D01*
X9552025Y2449169D01*
X9562592Y2459431D01*
X9571837Y2470912D01*
X9579559Y2483408D01*
X9585756Y2496769D01*
X9590227Y2510840D01*
X9592919Y2525318D01*
X9593834Y2540000D01*
X9592919Y2554681D01*
X9590227Y2569159D01*
X9585756Y2583230D01*
X9579559Y2596591D01*
X9571837Y2609088D01*
X9562592Y2620568D01*
X9552025Y2630830D01*
X9540290Y2639720D01*
X9527540Y2647086D01*
X9513976Y2652826D01*
X9499193Y2656992D01*
X9495332Y2659075D01*
X9492742Y2662529D01*
X9491827Y2667203D01*
X9492742Y2671470D01*
X9495332Y2674924D01*
X9499193Y2677007D01*
X9513976Y2681173D01*
X9527540Y2686913D01*
X9540290Y2694279D01*
X9552025Y2703169D01*
X9562592Y2713431D01*
X9571837Y2724912D01*
X9579559Y2737408D01*
X9585756Y2750769D01*
X9590227Y2764840D01*
X9592919Y2779318D01*
X9593834Y2794000D01*
X9592919Y2808681D01*
X9590227Y2823159D01*
X9585756Y2837230D01*
X9579559Y2850591D01*
X9571837Y2863088D01*
X9562592Y2874568D01*
X9552025Y2884830D01*
X9540290Y2893720D01*
X9527540Y2901086D01*
X9513976Y2906826D01*
X9499193Y2910992D01*
X9495332Y2913075D01*
X9492742Y2916529D01*
X9491827Y2921203D01*
X9492742Y2925470D01*
X9495332Y2928924D01*
X9499193Y2931007D01*
X9513976Y2935173D01*
X9527540Y2940913D01*
X9540290Y2948279D01*
X9552025Y2957169D01*
X9562592Y2967431D01*
X9571837Y2978912D01*
X9579559Y2991408D01*
X9585756Y3004769D01*
X9590227Y3018840D01*
X9592919Y3033318D01*
X9593834Y3048000D01*
X9592919Y3062681D01*
X9590227Y3077159D01*
X9585756Y3091230D01*
X9579559Y3104591D01*
X9571837Y3117088D01*
X9562592Y3128568D01*
X9552025Y3138830D01*
X9540290Y3147720D01*
X9527540Y3155086D01*
X9513976Y3160826D01*
X9499193Y3164992D01*
X9495332Y3167075D01*
X9492742Y3170529D01*
X9491827Y3175203D01*
X9492742Y3179470D01*
X9495332Y3182924D01*
X9499193Y3185007D01*
X9513976Y3189173D01*
X9527540Y3194913D01*
X9540290Y3202279D01*
X9552025Y3211169D01*
X9562592Y3221431D01*
X9571837Y3232912D01*
X9579559Y3245408D01*
X9585756Y3258769D01*
X9590227Y3272840D01*
X9592919Y3287318D01*
X9593834Y3302000D01*
X9592919Y3316681D01*
X9590227Y3331159D01*
X9585756Y3345230D01*
X9579559Y3358591D01*
X9571837Y3371087D01*
X9562592Y3382568D01*
X9552025Y3392830D01*
X9540290Y3401720D01*
X9527540Y3409086D01*
X9513976Y3414826D01*
X9499193Y3418992D01*
X9495332Y3421075D01*
X9492742Y3424529D01*
X9491827Y3429203D01*
X9492742Y3433470D01*
X9495332Y3436924D01*
X9499193Y3439007D01*
X9513976Y3443173D01*
X9527540Y3448913D01*
X9540290Y3456279D01*
X9552025Y3465169D01*
X9562592Y3475431D01*
X9571837Y3486912D01*
X9579559Y3499408D01*
X9585756Y3512769D01*
X9590227Y3526840D01*
X9592919Y3541318D01*
X9593834Y3556000D01*
X9592919Y3570681D01*
X9590227Y3585159D01*
X9585756Y3599230D01*
X9579559Y3612591D01*
X9571837Y3625087D01*
X9562592Y3636568D01*
X9552025Y3646830D01*
X9540290Y3655720D01*
X9527540Y3663086D01*
X9513976Y3668826D01*
X9499193Y3672992D01*
X9495332Y3675075D01*
X9492742Y3678529D01*
X9491827Y3683203D01*
X9492742Y3687470D01*
X9495332Y3690924D01*
X9499193Y3693007D01*
X9513976Y3697173D01*
X9527540Y3702913D01*
X9540290Y3710279D01*
X9552025Y3719169D01*
X9562592Y3729431D01*
X9571837Y3740912D01*
X9579559Y3753408D01*
X9585756Y3766769D01*
X9590227Y3780840D01*
X9592919Y3795318D01*
X9593834Y3810000D01*
X9592919Y3824681D01*
X9590227Y3839159D01*
X9585756Y3853230D01*
X9579559Y3866591D01*
X9571837Y3879087D01*
X9562592Y3890568D01*
X9552025Y3900830D01*
X9540290Y3909720D01*
X9527540Y3917086D01*
X9518599Y3920845D01*
X9515246Y3923131D01*
X9513062Y3926586D01*
X9512401Y3930599D01*
X9513366Y3934510D01*
X9515805Y3937762D01*
X9519310Y3939844D01*
X9523933Y3941368D01*
X9538106Y3948125D01*
X9551314Y3956507D01*
X9563506Y3966362D01*
X9574428Y3977640D01*
X9583928Y3990086D01*
X9591903Y4003598D01*
X9598253Y4017924D01*
X9602825Y4032910D01*
X9605568Y4048353D01*
X9606534Y4064000D01*
X9605568Y4079646D01*
X9603994Y4088485D01*
X9603943Y4091736D01*
X9604908Y4094835D01*
X9606838Y4097477D01*
X9687306Y4177995D01*
X9694722Y4186631D01*
X9700463Y4196029D01*
X9704679Y4206189D01*
X9707219Y4216857D01*
X9708134Y4228236D01*
X9708134Y4904333D01*
X9707270Y4915712D01*
X9704679Y4926380D01*
X9700463Y4936540D01*
X9694722Y4945938D01*
X9687306Y4954574D01*
X8547455Y6094476D01*
X8538768Y6101892D01*
X8529370Y6107633D01*
X8519210Y6111849D01*
X8508542Y6114389D01*
X8497163Y6115304D01*
X7252106Y6115304D01*
X7240727Y6114389D01*
X7230059Y6111849D01*
X7219899Y6107633D01*
X7210501Y6101892D01*
X7202170Y6094730D01*
X7195007Y6086398D01*
X7189266Y6077000D01*
X7185050Y6066840D01*
X7182510Y6056172D01*
X7181646Y6045200D01*
X7182510Y6034227D01*
X7185050Y6023559D01*
X7189266Y6013399D01*
X7195007Y6004001D01*
X7202170Y5995670D01*
X7210501Y5988507D01*
X7219899Y5982766D01*
X7230059Y5978550D01*
X7240727Y5976010D01*
X7252106Y5975096D01*
X8464346Y5975096D01*
X8468207Y5974334D01*
X8471509Y5972098D01*
X9480804Y4962804D01*
X9483039Y4959451D01*
X9483801Y4955540D01*
X9482988Y4951577D01*
X9480651Y4948275D01*
X9477298Y4946142D01*
X9473336Y4945481D01*
X9470491Y4945583D01*
X9455861Y4944211D01*
X9441484Y4941062D01*
X9427565Y4936134D01*
X9414408Y4929581D01*
X9402114Y4921453D01*
X9390938Y4911852D01*
X9381032Y4900980D01*
X9372498Y4888992D01*
X9365538Y4875987D01*
X9360204Y4862271D01*
X9356598Y4847996D01*
X9354820Y4833366D01*
X9354820Y4818634D01*
X9356598Y4804003D01*
X9360204Y4789728D01*
X9365538Y4776012D01*
X9372498Y4763008D01*
X9381032Y4751019D01*
X9390938Y4740148D01*
X9402114Y4730546D01*
X9414408Y4722418D01*
X9427565Y4715865D01*
X9441484Y4710938D01*
X9450730Y4708906D01*
X9454286Y4707382D01*
X9457029Y4704588D01*
X9458502Y4700930D01*
X9458502Y4697069D01*
X9457029Y4693412D01*
X9454286Y4690618D01*
X9450730Y4689094D01*
X9441484Y4687062D01*
X9427565Y4682134D01*
X9414408Y4675581D01*
X9402114Y4667453D01*
X9390938Y4657852D01*
X9381032Y4646980D01*
X9372498Y4634992D01*
X9365538Y4621987D01*
X9360204Y4608271D01*
X9356598Y4593996D01*
X9354820Y4579366D01*
X9354820Y4564634D01*
X9356598Y4550003D01*
X9360204Y4535728D01*
X9365538Y4522012D01*
X9372498Y4509008D01*
X9381032Y4497019D01*
X9390938Y4486148D01*
X9402114Y4476546D01*
X9414408Y4468418D01*
X9427565Y4461865D01*
X9441484Y4456938D01*
X9450730Y4454906D01*
X9454286Y4453382D01*
X9457029Y4450588D01*
X9458502Y4446930D01*
X9458502Y4443069D01*
X9457029Y4439412D01*
X9454286Y4436618D01*
X9450730Y4435094D01*
X9441484Y4433062D01*
X9427565Y4428134D01*
X9414408Y4421581D01*
X9402114Y4413453D01*
X9390938Y4403852D01*
X9381032Y4392980D01*
X9372498Y4380992D01*
X9365538Y4367987D01*
X9360204Y4354271D01*
X9356598Y4339996D01*
X9354820Y4325366D01*
X9354820Y4310634D01*
X9356598Y4296003D01*
X9360204Y4281728D01*
X9365538Y4268012D01*
X9372498Y4255008D01*
X9381032Y4243019D01*
X9390938Y4232148D01*
X9402114Y4222546D01*
X9414408Y4214418D01*
X9432442Y4205274D01*
X9434830Y4201972D01*
X9435744Y4198010D01*
X9435033Y4193997D01*
X9432798Y4190593D01*
X9429394Y4188358D01*
X9417304Y4183430D01*
X9403588Y4175861D01*
X9390837Y4166768D01*
X9379254Y4156151D01*
X9369044Y4144264D01*
X9360255Y4131310D01*
X9353092Y4117340D01*
X9347657Y4102658D01*
X9343948Y4087418D01*
X9342120Y4071823D01*
X9342120Y4056176D01*
X9343948Y4040581D01*
X9347657Y4025341D01*
X9353092Y4010660D01*
X9360255Y3996690D01*
X9369044Y3983685D01*
X9379254Y3971848D01*
X9390837Y3961231D01*
X9403588Y3952138D01*
X9417304Y3944569D01*
X9429394Y3939641D01*
X9432798Y3937406D01*
X9435033Y3934002D01*
X9435744Y3929989D01*
X9434830Y3926027D01*
X9432442Y3922725D01*
X9414408Y3913581D01*
X9402114Y3905453D01*
X9390938Y3895851D01*
X9381032Y3884980D01*
X9372498Y3872992D01*
X9365538Y3859987D01*
X9360204Y3846271D01*
X9356598Y3831996D01*
X9354820Y3817365D01*
X9354820Y3802634D01*
X9356598Y3788003D01*
X9360204Y3773728D01*
X9365538Y3760012D01*
X9372498Y3747008D01*
X9381032Y3735019D01*
X9390938Y3724148D01*
X9402114Y3714546D01*
X9414408Y3706418D01*
X9427565Y3699865D01*
X9441484Y3694937D01*
X9450730Y3692906D01*
X9454286Y3691382D01*
X9457029Y3688587D01*
X9458502Y3684930D01*
X9458502Y3681069D01*
X9457029Y3677412D01*
X9454286Y3674618D01*
X9450730Y3673094D01*
X9441484Y3671062D01*
X9427565Y3666134D01*
X9414408Y3659581D01*
X9402114Y3651453D01*
X9390938Y3641851D01*
X9381032Y3630980D01*
X9372498Y3618992D01*
X9365538Y3605987D01*
X9360204Y3592271D01*
X9356598Y3577996D01*
X9354820Y3563365D01*
X9354820Y3548634D01*
X9356598Y3534003D01*
X9360204Y3519728D01*
X9365538Y3506012D01*
X9372498Y3493008D01*
X9381032Y3481019D01*
X9390938Y3470148D01*
X9402114Y3460546D01*
X9414408Y3452418D01*
X9427565Y3445865D01*
X9441484Y3440937D01*
X9450730Y3438906D01*
X9454286Y3437382D01*
X9457029Y3434587D01*
X9458502Y3430930D01*
X9458502Y3427069D01*
X9457029Y3423412D01*
X9454286Y3420618D01*
X9450730Y3419094D01*
X9441484Y3417062D01*
X9427565Y3412134D01*
X9414408Y3405581D01*
X9402114Y3397453D01*
X9390938Y3387851D01*
X9381032Y3376980D01*
X9372498Y3364992D01*
X9365538Y3351987D01*
X9360204Y3338271D01*
X9356598Y3323996D01*
X9354820Y3309365D01*
X9354820Y3294634D01*
X9356598Y3280003D01*
X9360204Y3265728D01*
X9365538Y3252012D01*
X9372498Y3239008D01*
X9381032Y3227019D01*
X9390938Y3216148D01*
X9402114Y3206546D01*
X9414408Y3198418D01*
X9427565Y3191865D01*
X9441484Y3186938D01*
X9450730Y3184906D01*
X9454286Y3183382D01*
X9457029Y3180588D01*
X9458502Y3176930D01*
X9458502Y3173069D01*
X9457029Y3169412D01*
X9454286Y3166618D01*
X9450730Y3165094D01*
X9441484Y3163062D01*
X9427565Y3158134D01*
X9414408Y3151581D01*
X9402114Y3143453D01*
X9390938Y3133852D01*
X9381032Y3122980D01*
X9372498Y3110992D01*
X9365538Y3097987D01*
X9360204Y3084271D01*
X9356598Y3069996D01*
X9354820Y3055366D01*
X9354820Y3040634D01*
X9356598Y3026003D01*
X9360204Y3011728D01*
X9365538Y2998012D01*
X9372498Y2985008D01*
X9381032Y2973019D01*
X9390938Y2962148D01*
X9402114Y2952546D01*
X9414408Y2944418D01*
X9427565Y2937865D01*
X9441484Y2932938D01*
X9450730Y2930906D01*
X9454286Y2929382D01*
X9457029Y2926588D01*
X9458502Y2922930D01*
X9458502Y2919069D01*
X9457029Y2915412D01*
X9454286Y2912618D01*
X9450730Y2911094D01*
X9441484Y2909062D01*
X9427565Y2904134D01*
X9414408Y2897581D01*
X9402114Y2889453D01*
X9390938Y2879852D01*
X9381032Y2868980D01*
X9372498Y2856992D01*
X9365538Y2843987D01*
X9360204Y2830271D01*
X9356598Y2815996D01*
X9354820Y2801366D01*
X9354820Y2786634D01*
X9356598Y2772003D01*
X9360204Y2757728D01*
X9365538Y2744012D01*
X9370161Y2735376D01*
X9371330Y2731465D01*
X9370872Y2727350D01*
X9368790Y2723845D01*
X9365488Y2721356D01*
X9361525Y2720441D01*
X9357461Y2721152D01*
X9354007Y2723388D01*
X9280347Y2797098D01*
X9278112Y2800400D01*
X9277350Y2804261D01*
X9277299Y4815281D01*
X9276130Y4823764D01*
X9273489Y4831588D01*
X9269476Y4838801D01*
X9263938Y4845507D01*
X9189110Y4920284D01*
X9187484Y4922418D01*
X9186468Y4924856D01*
X9184030Y4934102D01*
X9179864Y4942941D01*
X9174276Y4950968D01*
X9167368Y4957876D01*
X9159341Y4963464D01*
X9150502Y4967630D01*
X9141053Y4970119D01*
X9131300Y4970983D01*
X9121546Y4970119D01*
X9112097Y4967630D01*
X9103258Y4963464D01*
X9095232Y4957876D01*
X9088323Y4950968D01*
X9082735Y4942941D01*
X9078569Y4934102D01*
X9076080Y4924653D01*
X9075216Y4914900D01*
X9076080Y4905146D01*
X9078569Y4895697D01*
X9082735Y4886858D01*
X9088323Y4878832D01*
X9095232Y4871923D01*
X9103258Y4866335D01*
X9112097Y4862169D01*
X9121343Y4859731D01*
X9123781Y4858715D01*
X9125915Y4857089D01*
X9184995Y4798009D01*
X9187180Y4794707D01*
X9187942Y4790846D01*
X9187942Y4714138D01*
X9187027Y4709922D01*
X9184436Y4706467D01*
X9180626Y4704384D01*
X9176308Y4704130D01*
X9172244Y4705654D01*
X9169196Y4708702D01*
X9167723Y4712766D01*
X9167164Y4716830D01*
X9164523Y4724654D01*
X9160510Y4731867D01*
X9154972Y4738573D01*
X7993278Y5900166D01*
X7986420Y5905347D01*
X7979054Y5909056D01*
X7971129Y5911291D01*
X7962442Y5912104D01*
X7554772Y5912053D01*
X7546289Y5910884D01*
X7538466Y5908243D01*
X7531252Y5904230D01*
X7524546Y5898692D01*
X7223201Y5597347D01*
X7219899Y5595112D01*
X7216038Y5594350D01*
X7169150Y5594350D01*
X7169150Y5547461D01*
X7168388Y5543600D01*
X7166152Y5540298D01*
X7114031Y5488127D01*
X7111187Y5486146D01*
X7094524Y5482082D01*
X7081824Y5477154D01*
X7069886Y5470652D01*
X7058964Y5462574D01*
X7049160Y5453126D01*
X7040727Y5442407D01*
X7033818Y5430723D01*
X7028484Y5418226D01*
X7024928Y5405069D01*
X7023100Y5391607D01*
X7023100Y5377992D01*
X7024928Y5364530D01*
X7028484Y5351373D01*
X7033818Y5338876D01*
X7040727Y5327192D01*
X7049160Y5316474D01*
X7058964Y5307025D01*
X7069886Y5298948D01*
X7081824Y5292445D01*
X7094524Y5287518D01*
X7107783Y5284368D01*
X7121296Y5283047D01*
X7134910Y5283504D01*
X7148322Y5285740D01*
X7161275Y5289753D01*
X7173620Y5295493D01*
X7185101Y5302808D01*
X7195515Y5311597D01*
X7204608Y5321706D01*
X7212330Y5332882D01*
X7218425Y5345023D01*
X7222896Y5357876D01*
X7225639Y5371236D01*
X7226553Y5384800D01*
X7225639Y5398363D01*
X7222896Y5411724D01*
X7218425Y5424576D01*
X7212330Y5436717D01*
X7207605Y5443524D01*
X7206132Y5446725D01*
X7205878Y5450230D01*
X7206792Y5453634D01*
X7208824Y5456478D01*
X7572044Y5819698D01*
X7575346Y5821934D01*
X7579207Y5822696D01*
X7591653Y5822696D01*
X7595971Y5821730D01*
X7599476Y5819038D01*
X7601458Y5815076D01*
X7601610Y5810656D01*
X7599883Y5806592D01*
X7596581Y5803646D01*
X7594752Y5802630D01*
X7588046Y5797092D01*
X7422134Y5631078D01*
X7416952Y5624220D01*
X7413244Y5616854D01*
X7411008Y5608929D01*
X7410196Y5600242D01*
X7410196Y3959707D01*
X7409434Y3955846D01*
X7407198Y3952544D01*
X7161987Y3707282D01*
X7158990Y3705199D01*
X7155434Y3704336D01*
X7151776Y3704793D01*
X7148322Y3705860D01*
X7134910Y3708095D01*
X7121296Y3708552D01*
X7107783Y3707231D01*
X7094524Y3704082D01*
X7081824Y3699154D01*
X7069886Y3692651D01*
X7058964Y3684574D01*
X7049160Y3675126D01*
X7040727Y3664407D01*
X7033818Y3652723D01*
X7028484Y3640226D01*
X7024928Y3627069D01*
X7023862Y3619195D01*
X7022287Y3615029D01*
X7019086Y3611879D01*
X7014819Y3610457D01*
X7010400Y3610965D01*
X7006590Y3613353D01*
X6792671Y3827322D01*
X6790436Y3830624D01*
X6789674Y3834485D01*
X6789623Y3937711D01*
X6788454Y3946245D01*
X6785813Y3954018D01*
X6781800Y3961231D01*
X6776262Y3967937D01*
X6394602Y4349242D01*
X6387744Y4354423D01*
X6380378Y4358132D01*
X6372453Y4360367D01*
X6363766Y4361180D01*
X5976823Y4361180D01*
X5973775Y4361637D01*
X5970981Y4363008D01*
X5968085Y4365040D01*
X5959246Y4369206D01*
X5949797Y4371695D01*
X5940044Y4372559D01*
X5930290Y4371695D01*
X5920841Y4369206D01*
X5912002Y4365040D01*
X5903976Y4359452D01*
X5897067Y4352544D01*
X5891479Y4344517D01*
X5887313Y4335678D01*
X5884824Y4326229D01*
X5883960Y4316476D01*
X5884824Y4306722D01*
X5887313Y4297273D01*
X5891479Y4288434D01*
X5897067Y4280408D01*
X5903976Y4273499D01*
X5912002Y4267911D01*
X5920841Y4263745D01*
X5930290Y4261256D01*
X5940044Y4260392D01*
X5949797Y4261256D01*
X5959246Y4263745D01*
X5968085Y4267911D01*
X5970981Y4269943D01*
X5973775Y4271314D01*
X5976823Y4271772D01*
X6234074Y4271772D01*
X6237935Y4271010D01*
X6241237Y4268774D01*
X6243472Y4265523D01*
X6244234Y4261612D01*
X6243472Y4257700D01*
X6241237Y4254449D01*
X6237935Y4252214D01*
X6233820Y4250537D01*
X6219037Y4242358D01*
X6205270Y4232554D01*
X6192672Y4221327D01*
X6181445Y4208729D01*
X6171641Y4194962D01*
X6163462Y4180179D01*
X6157010Y4164533D01*
X6152337Y4148328D01*
X6149492Y4131665D01*
X6148578Y4114800D01*
X6149492Y4097934D01*
X6152337Y4081272D01*
X6157010Y4065066D01*
X6163462Y4049420D01*
X6171641Y4034637D01*
X6181445Y4020870D01*
X6192672Y4008272D01*
X6205270Y3997045D01*
X6219037Y3987241D01*
X6233820Y3979062D01*
X6248247Y3973118D01*
X6251498Y3970934D01*
X6253734Y3967632D01*
X6254496Y3963720D01*
X6254546Y2388666D01*
X6255715Y2380183D01*
X6258356Y2372360D01*
X6262370Y2365146D01*
X6267907Y2358440D01*
X6330188Y2296160D01*
X6332321Y2293112D01*
X6333185Y2289505D01*
X6332677Y2285847D01*
X6329680Y2276652D01*
X6326987Y2262378D01*
X6326073Y2247900D01*
X6326987Y2233422D01*
X6329680Y2219147D01*
X6334201Y2205329D01*
X6340348Y2192172D01*
X6348171Y2179929D01*
X6357416Y2168753D01*
X6367983Y2158796D01*
X6379718Y2150262D01*
X6392468Y2143252D01*
X6405981Y2137918D01*
X6420053Y2134311D01*
X6434429Y2132482D01*
X6448958Y2132482D01*
X6463385Y2134311D01*
X6477457Y2137918D01*
X6490919Y2143252D01*
X6503670Y2150262D01*
X6515404Y2158796D01*
X6525971Y2168753D01*
X6535267Y2179929D01*
X6543040Y2192172D01*
X6549237Y2205329D01*
X6553708Y2219147D01*
X6556400Y2233422D01*
X6557314Y2247900D01*
X6556400Y2262378D01*
X6553708Y2276652D01*
X6549237Y2290470D01*
X6543040Y2303627D01*
X6535267Y2315870D01*
X6525971Y2327046D01*
X6515404Y2337003D01*
X6503670Y2345537D01*
X6490919Y2352548D01*
X6477457Y2357882D01*
X6463385Y2361488D01*
X6448958Y2363317D01*
X6434429Y2363317D01*
X6420053Y2361488D01*
X6405981Y2357882D01*
X6404254Y2357221D01*
X6400444Y2356510D01*
X6396583Y2357272D01*
X6393332Y2359456D01*
X6346901Y2405938D01*
X6344666Y2409240D01*
X6343904Y2413101D01*
X6343904Y2869133D01*
X6344767Y2873197D01*
X6347206Y2876600D01*
X6350812Y2878734D01*
X6354978Y2879242D01*
X6358991Y2878023D01*
X6362141Y2875280D01*
X6363919Y2871470D01*
X6367475Y2856941D01*
X6372910Y2842260D01*
X6380073Y2828290D01*
X6388811Y2815285D01*
X6399072Y2803448D01*
X6410604Y2792831D01*
X6423355Y2783738D01*
X6437071Y2776169D01*
X6451600Y2770276D01*
X6466738Y2766110D01*
X6482232Y2763824D01*
X6497929Y2763316D01*
X6513525Y2764739D01*
X6528866Y2767939D01*
X6543751Y2772968D01*
X6557873Y2779725D01*
X6571132Y2788107D01*
X6583324Y2797962D01*
X6594246Y2809240D01*
X6603746Y2821686D01*
X6611721Y2835198D01*
X6618020Y2849524D01*
X6622592Y2864510D01*
X6625386Y2879953D01*
X6626301Y2895600D01*
X6625386Y2911246D01*
X6622592Y2926689D01*
X6618020Y2941675D01*
X6611721Y2956001D01*
X6603746Y2969514D01*
X6594246Y2981960D01*
X6583324Y2993237D01*
X6571132Y3003092D01*
X6568846Y3004566D01*
X6566306Y3006801D01*
X6564680Y3009798D01*
X6564122Y3013151D01*
X6564122Y3235248D01*
X6564680Y3238601D01*
X6566306Y3241598D01*
X6568846Y3243834D01*
X6571132Y3245307D01*
X6583324Y3255162D01*
X6594246Y3266440D01*
X6603746Y3278886D01*
X6611721Y3292398D01*
X6618020Y3306724D01*
X6622592Y3321710D01*
X6625386Y3337153D01*
X6626301Y3352800D01*
X6625386Y3368446D01*
X6622592Y3383889D01*
X6618020Y3398875D01*
X6611721Y3413201D01*
X6603746Y3426714D01*
X6594246Y3439160D01*
X6583324Y3450437D01*
X6571132Y3460292D01*
X6557873Y3468674D01*
X6543751Y3475431D01*
X6528866Y3480460D01*
X6513525Y3483660D01*
X6497929Y3485083D01*
X6482232Y3484575D01*
X6466738Y3482289D01*
X6451600Y3478123D01*
X6437071Y3472230D01*
X6423355Y3464661D01*
X6410604Y3455568D01*
X6399072Y3444951D01*
X6388811Y3433064D01*
X6380073Y3420110D01*
X6372910Y3406140D01*
X6367475Y3391458D01*
X6363919Y3376929D01*
X6362141Y3373120D01*
X6358991Y3370376D01*
X6354978Y3369157D01*
X6350812Y3369665D01*
X6347206Y3371799D01*
X6344767Y3375202D01*
X6343904Y3379266D01*
X6343904Y3963720D01*
X6344666Y3967632D01*
X6346901Y3970934D01*
X6350152Y3973118D01*
X6364579Y3979062D01*
X6379362Y3987241D01*
X6393129Y3997045D01*
X6405727Y4008272D01*
X6416954Y4020870D01*
X6426758Y4034637D01*
X6434937Y4049420D01*
X6441389Y4065066D01*
X6446062Y4081272D01*
X6448907Y4097934D01*
X6449822Y4114800D01*
X6448907Y4131665D01*
X6446672Y4144822D01*
X6446824Y4149039D01*
X6448704Y4152849D01*
X6452006Y4155541D01*
X6456121Y4156659D01*
X6460286Y4155998D01*
X6463842Y4153712D01*
X6697268Y3920439D01*
X6699503Y3917137D01*
X6700266Y3913225D01*
X6700316Y3810050D01*
X6701485Y3801567D01*
X6704126Y3793744D01*
X6708140Y3786530D01*
X6713677Y3779824D01*
X7046315Y3447237D01*
X7053630Y3441649D01*
X7056424Y3438347D01*
X7057593Y3434181D01*
X7056932Y3429863D01*
X7054494Y3426256D01*
X7049160Y3421126D01*
X7040727Y3410407D01*
X7033818Y3398723D01*
X7028484Y3386226D01*
X7024928Y3373069D01*
X7023100Y3359607D01*
X7023100Y3345992D01*
X7024928Y3332530D01*
X7026859Y3325418D01*
X7027164Y3321913D01*
X7026249Y3318459D01*
X7024217Y3315563D01*
X6958787Y3250082D01*
X6953605Y3243224D01*
X6949948Y3235858D01*
X6947712Y3227933D01*
X6946900Y3219246D01*
X6946950Y2289860D01*
X6948119Y2281377D01*
X6950760Y2273554D01*
X6954774Y2266340D01*
X6960311Y2259634D01*
X7043013Y2177034D01*
X7053783Y2169058D01*
X7055713Y2165756D01*
X7056323Y2161946D01*
X7055459Y2158187D01*
X7053224Y2155037D01*
X7049160Y2151126D01*
X7040727Y2140407D01*
X7033818Y2128723D01*
X7028484Y2116226D01*
X7024928Y2103069D01*
X7023100Y2089607D01*
X7023100Y2075992D01*
X7024928Y2062530D01*
X7028484Y2049373D01*
X7033818Y2036876D01*
X7040727Y2025192D01*
X7049160Y2014474D01*
X7058964Y2005025D01*
X7069886Y1996948D01*
X7081824Y1990445D01*
X7094524Y1985518D01*
X7107783Y1982368D01*
X7121296Y1981047D01*
X7134910Y1981504D01*
X7148322Y1983739D01*
X7161275Y1987753D01*
X7173620Y1993493D01*
X7185101Y2000808D01*
X7195515Y2009597D01*
X7204608Y2019706D01*
X7212330Y2030882D01*
X7218425Y2043023D01*
X7222896Y2055875D01*
X7225639Y2069236D01*
X7226553Y2082800D01*
X7225639Y2096363D01*
X7222896Y2109724D01*
X7218425Y2122576D01*
X7212330Y2134717D01*
X7204608Y2145893D01*
X7202627Y2148128D01*
X7200595Y2151430D01*
X7199985Y2155291D01*
X7200849Y2159050D01*
X7203084Y2162251D01*
X7206335Y2164334D01*
X7210145Y2165096D01*
X7259726Y2165096D01*
X7263587Y2164334D01*
X7266889Y2162098D01*
X7955127Y1473860D01*
X7957515Y1470152D01*
X7958074Y1465834D01*
X7957616Y1460500D01*
X7958480Y1450746D01*
X7960969Y1441297D01*
X7965135Y1432458D01*
X7970723Y1424432D01*
X7977631Y1417523D01*
X7985658Y1411935D01*
X7994497Y1407769D01*
X8003946Y1405280D01*
G37*
G36*
X2592070Y1420469D02*
G01*
X2656230Y1420469D01*
X2656230Y1484579D01*
X2650134Y1481988D01*
X2636977Y1474419D01*
X2624836Y1465275D01*
X2613964Y1454708D01*
X2604414Y1442872D01*
X2596438Y1429969D01*
G37*
G36*
X2753969Y1420469D02*
G01*
X2818180Y1420469D01*
X2817164Y1423162D01*
X2809951Y1436522D01*
X2801162Y1448917D01*
X2790952Y1460144D01*
X2779420Y1469999D01*
X2766771Y1478432D01*
X2753969Y1484782D01*
G37*
G36*
X4835296Y1473047D02*
G01*
X4848910Y1473504D01*
X4862322Y1475740D01*
X4875276Y1479753D01*
X4887620Y1485493D01*
X4899101Y1492808D01*
X4909515Y1501597D01*
X4918608Y1511706D01*
X4926330Y1522882D01*
X4932426Y1535023D01*
X4936896Y1547876D01*
X4939639Y1561236D01*
X4940554Y1574800D01*
X4939639Y1588363D01*
X4936896Y1601724D01*
X4932426Y1614576D01*
X4926330Y1626717D01*
X4918608Y1637893D01*
X4909515Y1648002D01*
X4899101Y1656791D01*
X4887620Y1664106D01*
X4875276Y1669846D01*
X4862322Y1673860D01*
X4848910Y1676095D01*
X4835296Y1676552D01*
X4821783Y1675231D01*
X4808524Y1672082D01*
X4795824Y1667154D01*
X4783886Y1660652D01*
X4772964Y1652574D01*
X4763160Y1643125D01*
X4754727Y1632407D01*
X4747818Y1620723D01*
X4742484Y1608226D01*
X4738928Y1595069D01*
X4737100Y1581607D01*
X4737100Y1567992D01*
X4738928Y1554530D01*
X4742484Y1541373D01*
X4747818Y1528876D01*
X4754727Y1517192D01*
X4763160Y1506474D01*
X4772964Y1497025D01*
X4783886Y1488948D01*
X4795824Y1482445D01*
X4808524Y1477518D01*
X4821783Y1474368D01*
G37*
G36*
X7121296Y1473047D02*
G01*
X7134910Y1473504D01*
X7148322Y1475740D01*
X7161275Y1479753D01*
X7173620Y1485493D01*
X7185101Y1492808D01*
X7195515Y1501597D01*
X7204608Y1511706D01*
X7212330Y1522882D01*
X7218425Y1535023D01*
X7222896Y1547876D01*
X7225639Y1561236D01*
X7226553Y1574800D01*
X7225639Y1588363D01*
X7222896Y1601724D01*
X7218425Y1614576D01*
X7212330Y1626717D01*
X7204608Y1637893D01*
X7195515Y1648002D01*
X7185101Y1656791D01*
X7173620Y1664106D01*
X7161275Y1669846D01*
X7148322Y1673860D01*
X7134910Y1676095D01*
X7121296Y1676552D01*
X7107783Y1675231D01*
X7094524Y1672082D01*
X7081824Y1667154D01*
X7069886Y1660652D01*
X7058964Y1652574D01*
X7049160Y1643125D01*
X7040727Y1632407D01*
X7033818Y1620723D01*
X7028484Y1608226D01*
X7024928Y1595069D01*
X7023100Y1581607D01*
X7023100Y1567992D01*
X7024928Y1554530D01*
X7028484Y1541373D01*
X7033818Y1528876D01*
X7040727Y1517192D01*
X7049160Y1506474D01*
X7058964Y1497025D01*
X7069886Y1488948D01*
X7081824Y1482445D01*
X7094524Y1477518D01*
X7107783Y1474368D01*
G37*
G36*
X2708910Y1502308D02*
G01*
X2723997Y1503730D01*
X2738831Y1506982D01*
X2753156Y1512011D01*
X2766771Y1518767D01*
X2779420Y1527200D01*
X2790952Y1537055D01*
X2801162Y1548282D01*
X2809951Y1560677D01*
X2817164Y1574038D01*
X2822651Y1588211D01*
X2826359Y1602943D01*
X2828188Y1618030D01*
X2828188Y1633169D01*
X2826359Y1648256D01*
X2822651Y1662988D01*
X2817164Y1677162D01*
X2809951Y1690522D01*
X2801162Y1702917D01*
X2790952Y1714144D01*
X2779420Y1723999D01*
X2766771Y1732432D01*
X2753156Y1739188D01*
X2742285Y1742998D01*
X2738729Y1745183D01*
X2736342Y1748536D01*
X2735478Y1752600D01*
X2736342Y1756664D01*
X2738729Y1760016D01*
X2742285Y1762201D01*
X2753156Y1766011D01*
X2766771Y1772767D01*
X2779420Y1781200D01*
X2790952Y1791055D01*
X2801162Y1802282D01*
X2809951Y1814677D01*
X2817164Y1828038D01*
X2822651Y1842211D01*
X2826359Y1856943D01*
X2828188Y1872030D01*
X2828188Y1887169D01*
X2826359Y1902256D01*
X2822651Y1916988D01*
X2817164Y1931162D01*
X2809951Y1944522D01*
X2801162Y1956917D01*
X2790952Y1968144D01*
X2779420Y1977999D01*
X2766771Y1986432D01*
X2753156Y1993188D01*
X2742285Y1996998D01*
X2738729Y1999183D01*
X2736342Y2002536D01*
X2735478Y2006600D01*
X2736342Y2010664D01*
X2738729Y2014016D01*
X2742285Y2016201D01*
X2753156Y2020011D01*
X2766771Y2026767D01*
X2779420Y2035200D01*
X2790952Y2045055D01*
X2801162Y2056282D01*
X2809951Y2068677D01*
X2817164Y2082038D01*
X2822651Y2096211D01*
X2826359Y2110943D01*
X2828188Y2126030D01*
X2828188Y2141169D01*
X2826359Y2156256D01*
X2822651Y2170988D01*
X2817164Y2185162D01*
X2809951Y2198522D01*
X2801162Y2210917D01*
X2790952Y2222144D01*
X2779420Y2231999D01*
X2766771Y2240432D01*
X2753156Y2247188D01*
X2742285Y2250998D01*
X2738729Y2253183D01*
X2736342Y2256536D01*
X2735478Y2260600D01*
X2736342Y2264664D01*
X2738729Y2268016D01*
X2742285Y2270201D01*
X2753156Y2274011D01*
X2766771Y2280767D01*
X2779420Y2289200D01*
X2790952Y2299055D01*
X2801162Y2310282D01*
X2809951Y2322677D01*
X2817164Y2336038D01*
X2822651Y2350211D01*
X2826359Y2364943D01*
X2828188Y2380030D01*
X2828188Y2395169D01*
X2826359Y2410256D01*
X2822651Y2424988D01*
X2817164Y2439162D01*
X2809951Y2452522D01*
X2801162Y2464917D01*
X2790952Y2476144D01*
X2779420Y2485999D01*
X2766771Y2494432D01*
X2753156Y2501188D01*
X2742285Y2504998D01*
X2738729Y2507183D01*
X2736342Y2510536D01*
X2735478Y2514600D01*
X2736342Y2518664D01*
X2738729Y2522016D01*
X2742285Y2524201D01*
X2753156Y2528011D01*
X2766771Y2534767D01*
X2779420Y2543200D01*
X2790952Y2553055D01*
X2801162Y2564282D01*
X2809951Y2576677D01*
X2817164Y2590038D01*
X2822651Y2604211D01*
X2826359Y2618943D01*
X2828188Y2634030D01*
X2828188Y2649169D01*
X2826359Y2664256D01*
X2822651Y2678988D01*
X2817164Y2693162D01*
X2809951Y2706522D01*
X2801162Y2718917D01*
X2790952Y2730144D01*
X2779420Y2739999D01*
X2766771Y2748432D01*
X2757576Y2753004D01*
X2754071Y2755849D01*
X2752191Y2759913D01*
X2752191Y2763875D01*
X2751124Y2762250D01*
X2747975Y2760014D01*
X2744216Y2759100D01*
X2723997Y2763469D01*
X2708910Y2764891D01*
X2693720Y2764383D01*
X2678734Y2762097D01*
X2669184Y2759354D01*
X2665476Y2759049D01*
X2661869Y2760065D01*
X2658922Y2762300D01*
X2657551Y2764434D01*
X2658059Y2762148D01*
X2657297Y2758236D01*
X2655112Y2754934D01*
X2651861Y2752750D01*
X2650134Y2751988D01*
X2636977Y2744419D01*
X2624836Y2735275D01*
X2616403Y2727096D01*
X2613101Y2724962D01*
X2609240Y2724200D01*
X2605379Y2725013D01*
X2602128Y2727248D01*
X2599944Y2730500D01*
X2599182Y2734360D01*
X2599182Y2763418D01*
X2599893Y2767126D01*
X2601874Y2770327D01*
X2604922Y2772562D01*
X2608529Y2773527D01*
X2620619Y2772257D01*
X2647899Y2772257D01*
X2651760Y2771495D01*
X2655062Y2769311D01*
X2656687Y2766872D01*
X2656230Y2769158D01*
X2656230Y2846730D01*
X2609342Y2846730D01*
X2605481Y2847543D01*
X2602179Y2849727D01*
X2599944Y2853029D01*
X2599182Y2856890D01*
X2599182Y2934309D01*
X2599944Y2938170D01*
X2602179Y2941472D01*
X2605481Y2943656D01*
X2609342Y2944469D01*
X2656230Y2944469D01*
X2656230Y3018942D01*
X2620619Y3018942D01*
X2608529Y3017672D01*
X2604922Y3018637D01*
X2601874Y3020872D01*
X2599893Y3024073D01*
X2599182Y3027781D01*
X2599182Y3224225D01*
X2598420Y3234182D01*
X2596642Y3241802D01*
X2592984Y3251047D01*
X2592070Y3252876D01*
X2587904Y3259531D01*
X2586685Y3261156D01*
X2581402Y3267151D01*
X1796745Y4052062D01*
X1790750Y4057345D01*
X1789125Y4058564D01*
X1782470Y4062729D01*
X1773377Y4066641D01*
X1771446Y4067301D01*
X1763775Y4069079D01*
X1753819Y4069842D01*
X1629968Y4069842D01*
X1620012Y4069079D01*
X1612341Y4067301D01*
X1603146Y4063644D01*
X1601317Y4062729D01*
X1594662Y4058564D01*
X1593037Y4057345D01*
X1587042Y4052062D01*
X1548942Y4013962D01*
X1545742Y4011777D01*
X1542034Y4010964D01*
X1538224Y4011574D01*
X1534972Y4013555D01*
X1532636Y4016654D01*
X1526590Y4028897D01*
X1518920Y4040428D01*
X1509776Y4050792D01*
X1499412Y4059885D01*
X1487932Y4067606D01*
X1475536Y4073702D01*
X1462430Y4078122D01*
X1448866Y4080814D01*
X1435100Y4081729D01*
X1421333Y4080814D01*
X1407769Y4078122D01*
X1394663Y4073702D01*
X1382268Y4067606D01*
X1370787Y4059885D01*
X1360424Y4050792D01*
X1351280Y4040428D01*
X1343609Y4028897D01*
X1337513Y4016501D01*
X1333042Y4003446D01*
X1330350Y3989882D01*
X1329486Y3976115D01*
X1330350Y3962298D01*
X1333042Y3948785D01*
X1337513Y3935679D01*
X1343609Y3923284D01*
X1351280Y3911803D01*
X1360424Y3901389D01*
X1370787Y3892296D01*
X1374038Y3890111D01*
X1376883Y3887266D01*
X1378407Y3883558D01*
X1378356Y3879545D01*
X1376730Y3875887D01*
X1373835Y3873093D01*
X1365554Y3867810D01*
X1354074Y3858361D01*
X1343914Y3847541D01*
X1335786Y3836263D01*
X1333500Y3834028D01*
X1330706Y3832606D01*
X1327556Y3832098D01*
X1308658Y3832098D01*
X1300734Y3831590D01*
X1291031Y3829558D01*
X1281836Y3825900D01*
X1280007Y3824986D01*
X1273352Y3820820D01*
X1271727Y3819601D01*
X1265732Y3814318D01*
X1164336Y3712921D01*
X1159052Y3706926D01*
X1157833Y3705301D01*
X1153668Y3698646D01*
X1149756Y3689553D01*
X1149096Y3687622D01*
X1147064Y3677920D01*
X1146556Y3669995D01*
X1146556Y3518204D01*
X1147064Y3510279D01*
X1149096Y3500577D01*
X1152753Y3491382D01*
X1153668Y3489553D01*
X1157833Y3482898D01*
X1159052Y3481273D01*
X1164336Y3475278D01*
X2159558Y2480056D01*
X2161794Y2476754D01*
X2162556Y2472842D01*
X2162556Y2362504D01*
X2163064Y2354580D01*
X2165096Y2344877D01*
X2168753Y2335682D01*
X2169668Y2333853D01*
X2173833Y2327198D01*
X2175052Y2325573D01*
X2180336Y2319578D01*
X2582468Y1917496D01*
X2584348Y1914804D01*
X2585313Y1911705D01*
X2585262Y1908403D01*
X2582722Y1894738D01*
X2581757Y1879600D01*
X2582722Y1864461D01*
X2585466Y1849526D01*
X2590088Y1835048D01*
X2596438Y1821230D01*
X2604414Y1808327D01*
X2613964Y1796491D01*
X2624836Y1785924D01*
X2636977Y1776780D01*
X2650134Y1769211D01*
X2664104Y1763268D01*
X2667304Y1762353D01*
X2671114Y1760321D01*
X2673756Y1756867D01*
X2674670Y1752600D01*
X2673756Y1748332D01*
X2671114Y1744878D01*
X2667304Y1742846D01*
X2664104Y1741932D01*
X2650134Y1735988D01*
X2636977Y1728419D01*
X2624836Y1719275D01*
X2613964Y1708708D01*
X2604414Y1696872D01*
X2596438Y1683969D01*
X2590088Y1670151D01*
X2585466Y1655673D01*
X2582722Y1640738D01*
X2581757Y1625600D01*
X2582722Y1610461D01*
X2585466Y1595526D01*
X2590088Y1581048D01*
X2596438Y1567230D01*
X2604414Y1554327D01*
X2613964Y1542491D01*
X2624836Y1531924D01*
X2636977Y1522780D01*
X2650134Y1515211D01*
X2664104Y1509268D01*
X2678734Y1505102D01*
X2693720Y1502816D01*
G37*
G36*
X6428994Y1560779D02*
G01*
X6444488Y1561693D01*
X6459728Y1564487D01*
X6474510Y1569110D01*
X6488633Y1575460D01*
X6501892Y1583486D01*
X6514084Y1593037D01*
X6525056Y1604010D01*
X6534607Y1616202D01*
X6542633Y1629460D01*
X6548983Y1643583D01*
X6553606Y1658366D01*
X6556400Y1673606D01*
X6557314Y1689100D01*
X6556400Y1704593D01*
X6553606Y1719834D01*
X6548983Y1734616D01*
X6542633Y1748739D01*
X6534607Y1761998D01*
X6525056Y1774189D01*
X6514084Y1785162D01*
X6501892Y1794713D01*
X6488633Y1802739D01*
X6474510Y1809089D01*
X6459728Y1813712D01*
X6444488Y1816506D01*
X6428994Y1817420D01*
X6413550Y1816506D01*
X6398310Y1813712D01*
X6383477Y1809089D01*
X6369354Y1802739D01*
X6362852Y1798777D01*
X6358585Y1797354D01*
X6354165Y1797913D01*
X6350406Y1800301D01*
X5852160Y2298344D01*
X5849518Y2301798D01*
X5848604Y2306066D01*
X5848604Y3377793D01*
X5847689Y3389172D01*
X5845149Y3399840D01*
X5840933Y3410000D01*
X5835192Y3419398D01*
X5827776Y3428034D01*
X5559501Y3696360D01*
X5557266Y3699662D01*
X5556504Y3703523D01*
X5556504Y5270093D01*
X5555589Y5281472D01*
X5553049Y5292140D01*
X5548833Y5302300D01*
X5543092Y5311698D01*
X5535676Y5320334D01*
X5356301Y5499760D01*
X5354066Y5503062D01*
X5353304Y5506923D01*
X5353304Y6315862D01*
X5354066Y6319774D01*
X5357215Y6327343D01*
X5359755Y6338011D01*
X5360619Y6348984D01*
X5359755Y6359956D01*
X5357215Y6370624D01*
X5352999Y6380784D01*
X5347258Y6390182D01*
X5340096Y6398514D01*
X5331764Y6405676D01*
X5322366Y6411417D01*
X5312206Y6415633D01*
X5301538Y6418173D01*
X5290566Y6419037D01*
X5279593Y6418173D01*
X5268925Y6415633D01*
X5258765Y6411417D01*
X5249367Y6405676D01*
X5240731Y6398260D01*
X5233924Y6391452D01*
X5226507Y6382816D01*
X5220766Y6373418D01*
X5216550Y6363258D01*
X5214010Y6352590D01*
X5213096Y6341211D01*
X5213096Y5474106D01*
X5214010Y5462727D01*
X5216550Y5452059D01*
X5220766Y5441899D01*
X5226507Y5432501D01*
X5233924Y5423865D01*
X5413298Y5244439D01*
X5415534Y5241137D01*
X5416296Y5237276D01*
X5416296Y3670706D01*
X5417210Y3659327D01*
X5419750Y3648659D01*
X5423966Y3638499D01*
X5429707Y3629101D01*
X5437124Y3620465D01*
X5705398Y3352139D01*
X5707634Y3348837D01*
X5708396Y3344976D01*
X5708396Y2328164D01*
X5707634Y2324252D01*
X5705398Y2321001D01*
X5702147Y2318766D01*
X5698236Y2318004D01*
X5634482Y2318004D01*
X5631434Y2318461D01*
X5628690Y2319782D01*
X5626455Y2321915D01*
X5617768Y2332990D01*
X5606796Y2343962D01*
X5594604Y2353513D01*
X5581345Y2361539D01*
X5567222Y2367889D01*
X5552389Y2372512D01*
X5537149Y2375306D01*
X5521706Y2376220D01*
X5506212Y2375306D01*
X5490972Y2372512D01*
X5476189Y2367889D01*
X5462066Y2361539D01*
X5448808Y2353513D01*
X5436616Y2343962D01*
X5425643Y2332990D01*
X5416092Y2320798D01*
X5408066Y2307539D01*
X5401716Y2293416D01*
X5397093Y2278634D01*
X5394299Y2263394D01*
X5393385Y2247900D01*
X5394299Y2232406D01*
X5397093Y2217166D01*
X5401716Y2202383D01*
X5408066Y2188260D01*
X5416092Y2175002D01*
X5425643Y2162810D01*
X5436616Y2151837D01*
X5448808Y2142286D01*
X5462066Y2134260D01*
X5476189Y2127910D01*
X5490972Y2123287D01*
X5506212Y2120493D01*
X5521706Y2119579D01*
X5537149Y2120493D01*
X5552389Y2123287D01*
X5567222Y2127910D01*
X5581345Y2134260D01*
X5594604Y2142286D01*
X5606796Y2151837D01*
X5617768Y2162810D01*
X5626455Y2173884D01*
X5628690Y2176018D01*
X5631434Y2177338D01*
X5634482Y2177796D01*
X5770422Y2177796D01*
X5774283Y2177034D01*
X5777585Y2174798D01*
X6307836Y1644548D01*
X6309918Y1641551D01*
X6315354Y1629460D01*
X6323380Y1616202D01*
X6332931Y1604010D01*
X6343904Y1593037D01*
X6356096Y1583486D01*
X6369354Y1575460D01*
X6383477Y1569110D01*
X6398310Y1564487D01*
X6413550Y1561693D01*
G37*
G36*
X1609648Y1695145D02*
G01*
X1768551Y1695145D01*
X1774799Y1695856D01*
X1780184Y1697736D01*
X1785061Y1700784D01*
X1789125Y1704848D01*
X1792173Y1709674D01*
X1794052Y1715109D01*
X1794764Y1721357D01*
X1794764Y1880209D01*
X1794052Y1886508D01*
X1792173Y1891893D01*
X1789125Y1896770D01*
X1785061Y1900783D01*
X1780184Y1903831D01*
X1776933Y1905000D01*
X1773529Y1907032D01*
X1771142Y1910283D01*
X1770176Y1914143D01*
X1770786Y1918106D01*
X1772920Y1921510D01*
X1780286Y1929384D01*
X1789023Y1941423D01*
X1796186Y1954428D01*
X1797761Y1958441D01*
X1735429Y1958441D01*
X1735429Y1916633D01*
X1734667Y1912721D01*
X1732483Y1909419D01*
X1729181Y1907235D01*
X1725269Y1906473D01*
X1652930Y1906473D01*
X1649018Y1907235D01*
X1645716Y1909419D01*
X1643532Y1912721D01*
X1642770Y1916633D01*
X1642770Y1958441D01*
X1580438Y1958441D01*
X1582013Y1954428D01*
X1589176Y1941423D01*
X1597914Y1929384D01*
X1605280Y1921510D01*
X1607413Y1918106D01*
X1608023Y1914143D01*
X1607058Y1910283D01*
X1604670Y1907032D01*
X1601266Y1905000D01*
X1598015Y1903831D01*
X1593138Y1900783D01*
X1589074Y1896770D01*
X1586026Y1891893D01*
X1584147Y1886508D01*
X1583436Y1880209D01*
X1583436Y1721357D01*
X1584147Y1715109D01*
X1586026Y1709674D01*
X1589074Y1704848D01*
X1593138Y1700784D01*
X1598015Y1697736D01*
X1603400Y1695856D01*
G37*
G36*
X7121296Y1727047D02*
G01*
X7134910Y1727504D01*
X7148322Y1729739D01*
X7161275Y1733753D01*
X7173620Y1739493D01*
X7185101Y1746808D01*
X7195515Y1755597D01*
X7204608Y1765706D01*
X7212330Y1776882D01*
X7218425Y1789023D01*
X7222896Y1801875D01*
X7225639Y1815236D01*
X7226553Y1828800D01*
X7225639Y1842363D01*
X7222896Y1855724D01*
X7218425Y1868576D01*
X7212330Y1880717D01*
X7204608Y1891893D01*
X7195515Y1902002D01*
X7185101Y1910791D01*
X7173620Y1918106D01*
X7161275Y1923846D01*
X7148322Y1927860D01*
X7134910Y1930095D01*
X7121296Y1930552D01*
X7107783Y1929231D01*
X7094524Y1926082D01*
X7081824Y1921154D01*
X7069886Y1914652D01*
X7058964Y1906574D01*
X7049160Y1897125D01*
X7040727Y1886407D01*
X7033818Y1874723D01*
X7028484Y1862226D01*
X7024928Y1849069D01*
X7023100Y1835607D01*
X7023100Y1821992D01*
X7024928Y1808530D01*
X7028484Y1795373D01*
X7033818Y1782876D01*
X7040727Y1771192D01*
X7049160Y1760474D01*
X7058964Y1751025D01*
X7069886Y1742948D01*
X7081824Y1736445D01*
X7094524Y1731518D01*
X7107783Y1728368D01*
G37*
G36*
X4835296Y1727047D02*
G01*
X4848910Y1727504D01*
X4862322Y1729739D01*
X4875276Y1733753D01*
X4887620Y1739493D01*
X4899101Y1746808D01*
X4909515Y1755597D01*
X4918608Y1765706D01*
X4926330Y1776882D01*
X4932426Y1789023D01*
X4936896Y1801875D01*
X4939639Y1815236D01*
X4940554Y1828800D01*
X4939639Y1842363D01*
X4936896Y1855724D01*
X4932426Y1868576D01*
X4926330Y1880717D01*
X4918608Y1891893D01*
X4909515Y1902002D01*
X4899101Y1910791D01*
X4887620Y1918106D01*
X4875276Y1923846D01*
X4862322Y1927860D01*
X4848910Y1930095D01*
X4835296Y1930552D01*
X4821783Y1929231D01*
X4808524Y1926082D01*
X4795824Y1921154D01*
X4783886Y1914652D01*
X4772964Y1906574D01*
X4763160Y1897125D01*
X4754727Y1886407D01*
X4747818Y1874723D01*
X4742484Y1862226D01*
X4738928Y1849069D01*
X4737100Y1835607D01*
X4737100Y1821992D01*
X4738928Y1808530D01*
X4742484Y1795373D01*
X4747818Y1782876D01*
X4754727Y1771192D01*
X4763160Y1760474D01*
X4772964Y1751025D01*
X4783886Y1742948D01*
X4795824Y1736445D01*
X4808524Y1731518D01*
X4821783Y1728368D01*
G37*
G36*
X1435100Y1797151D02*
G01*
X1448866Y1798066D01*
X1462430Y1800758D01*
X1475536Y1805228D01*
X1487932Y1811324D01*
X1499412Y1818995D01*
X1509776Y1828088D01*
X1518920Y1838502D01*
X1526590Y1849983D01*
X1532686Y1862378D01*
X1537157Y1875485D01*
X1539849Y1888998D01*
X1540713Y1902815D01*
X1539849Y1916582D01*
X1537157Y1930146D01*
X1532686Y1943201D01*
X1526590Y1955596D01*
X1518920Y1967128D01*
X1509776Y1977491D01*
X1499412Y1986584D01*
X1496161Y1988769D01*
X1493316Y1991614D01*
X1491843Y1995322D01*
X1491894Y1999335D01*
X1493469Y2003043D01*
X1496364Y2005787D01*
X1504645Y2011070D01*
X1516126Y2020519D01*
X1526286Y2031339D01*
X1535023Y2043379D01*
X1542186Y2056384D01*
X1543761Y2060448D01*
X1481429Y2060448D01*
X1481429Y2012543D01*
X1480718Y2008784D01*
X1478635Y2005584D01*
X1475536Y2003348D01*
X1471828Y2002434D01*
X1468018Y2002942D01*
X1462430Y2004822D01*
X1448866Y2007514D01*
X1435100Y2008428D01*
X1421333Y2007514D01*
X1407769Y2004822D01*
X1402181Y2002942D01*
X1398371Y2002434D01*
X1394663Y2003348D01*
X1391564Y2005584D01*
X1389481Y2008784D01*
X1388770Y2012543D01*
X1388770Y2060448D01*
X1326438Y2060448D01*
X1328013Y2056384D01*
X1335176Y2043379D01*
X1343914Y2031339D01*
X1354074Y2020519D01*
X1365554Y2011070D01*
X1373835Y2005787D01*
X1376730Y2003043D01*
X1378305Y1999335D01*
X1378356Y1995322D01*
X1376883Y1991614D01*
X1374038Y1988769D01*
X1370787Y1986584D01*
X1360424Y1977491D01*
X1351280Y1967128D01*
X1343609Y1955596D01*
X1337513Y1943201D01*
X1333042Y1930146D01*
X1330350Y1916582D01*
X1329486Y1902815D01*
X1330350Y1888998D01*
X1333042Y1875485D01*
X1337513Y1862378D01*
X1343609Y1849983D01*
X1351280Y1838502D01*
X1360424Y1828088D01*
X1370787Y1818995D01*
X1382268Y1811324D01*
X1394663Y1805228D01*
X1407769Y1800758D01*
X1421333Y1798066D01*
G37*
G36*
X3971340Y2023160D02*
G01*
X3985514Y2023618D01*
X3999534Y2025904D01*
X4013098Y2029917D01*
X4026052Y2035657D01*
X4038193Y2043023D01*
X4049268Y2051862D01*
X4059123Y2062022D01*
X4067606Y2073402D01*
X4074566Y2085746D01*
X4079900Y2098903D01*
X4083507Y2112619D01*
X4085285Y2126640D01*
X4085285Y2140864D01*
X4083507Y2154885D01*
X4079900Y2168601D01*
X4074566Y2181758D01*
X4067606Y2194102D01*
X4059123Y2205482D01*
X4049268Y2215642D01*
X4038193Y2224481D01*
X4026052Y2231847D01*
X4012946Y2237638D01*
X4009745Y2239873D01*
X4007662Y2243124D01*
X4006900Y2246934D01*
X4006900Y2274570D01*
X4007662Y2278380D01*
X4009745Y2281631D01*
X4012946Y2283866D01*
X4026052Y2289657D01*
X4038193Y2297023D01*
X4049268Y2305862D01*
X4059123Y2316022D01*
X4067606Y2327402D01*
X4074566Y2339746D01*
X4079900Y2352903D01*
X4083507Y2366619D01*
X4085285Y2380640D01*
X4085285Y2394864D01*
X4083507Y2408885D01*
X4079900Y2422601D01*
X4074566Y2435758D01*
X4067606Y2448102D01*
X4059123Y2459482D01*
X4049268Y2469642D01*
X4038193Y2478481D01*
X4026052Y2485847D01*
X4013098Y2491587D01*
X3999534Y2495600D01*
X3985514Y2497886D01*
X3971340Y2498344D01*
X3957218Y2496972D01*
X3943400Y2493822D01*
X3930091Y2488895D01*
X3917543Y2482342D01*
X3905910Y2474264D01*
X3895445Y2464714D01*
X3886250Y2453944D01*
X3878478Y2442057D01*
X3872331Y2429256D01*
X3867861Y2415794D01*
X3865168Y2401874D01*
X3864254Y2387752D01*
X3865168Y2373630D01*
X3867861Y2359710D01*
X3872331Y2346248D01*
X3878478Y2333447D01*
X3886250Y2321560D01*
X3895445Y2310790D01*
X3905910Y2301240D01*
X3913174Y2296210D01*
X3915460Y2293975D01*
X3916984Y2291080D01*
X3917492Y2287879D01*
X3917492Y2233625D01*
X3916984Y2230424D01*
X3915460Y2227529D01*
X3913174Y2225294D01*
X3905910Y2220264D01*
X3895445Y2210714D01*
X3886250Y2199944D01*
X3878478Y2188057D01*
X3872331Y2175256D01*
X3867861Y2161794D01*
X3865168Y2147874D01*
X3864254Y2133752D01*
X3865168Y2119630D01*
X3867861Y2105710D01*
X3872331Y2092248D01*
X3878478Y2079447D01*
X3886250Y2067560D01*
X3895445Y2056790D01*
X3905910Y2047239D01*
X3917543Y2039162D01*
X3930091Y2032609D01*
X3943400Y2027682D01*
X3957218Y2024532D01*
G37*
G36*
X1580438Y2051151D02*
G01*
X1642770Y2051151D01*
X1642770Y2099056D01*
X1643481Y2102815D01*
X1645564Y2106015D01*
X1648663Y2108250D01*
X1652371Y2109165D01*
X1656181Y2108657D01*
X1661769Y2106777D01*
X1675333Y2104085D01*
X1689100Y2103170D01*
X1702866Y2104085D01*
X1716430Y2106777D01*
X1722018Y2108657D01*
X1725828Y2109165D01*
X1729536Y2108250D01*
X1732635Y2106015D01*
X1734718Y2102815D01*
X1735429Y2099056D01*
X1735429Y2051151D01*
X1797761Y2051151D01*
X1796186Y2055215D01*
X1789023Y2068220D01*
X1780286Y2080260D01*
X1770125Y2091080D01*
X1758645Y2100529D01*
X1750364Y2105812D01*
X1747469Y2108555D01*
X1745894Y2112264D01*
X1745843Y2116277D01*
X1747316Y2119985D01*
X1750161Y2122830D01*
X1753412Y2125014D01*
X1763775Y2134108D01*
X1772920Y2144471D01*
X1780590Y2156002D01*
X1786686Y2168398D01*
X1791157Y2181453D01*
X1793849Y2195017D01*
X1794713Y2208784D01*
X1793849Y2222601D01*
X1791157Y2236114D01*
X1786686Y2249220D01*
X1780590Y2261616D01*
X1772920Y2273096D01*
X1763775Y2283510D01*
X1753412Y2292604D01*
X1741932Y2300274D01*
X1729536Y2306370D01*
X1716430Y2310841D01*
X1702866Y2313533D01*
X1689100Y2314448D01*
X1675333Y2313533D01*
X1661769Y2310841D01*
X1648663Y2306370D01*
X1636268Y2300274D01*
X1624787Y2292604D01*
X1614424Y2283510D01*
X1605280Y2273096D01*
X1597609Y2261616D01*
X1591513Y2249220D01*
X1587042Y2236114D01*
X1584350Y2222601D01*
X1583486Y2208784D01*
X1584350Y2195017D01*
X1587042Y2181453D01*
X1591513Y2168398D01*
X1597609Y2156002D01*
X1605280Y2144471D01*
X1614424Y2134108D01*
X1624787Y2125014D01*
X1628038Y2122830D01*
X1630883Y2119985D01*
X1632356Y2116277D01*
X1632305Y2112264D01*
X1630730Y2108555D01*
X1627835Y2105812D01*
X1619554Y2100529D01*
X1608074Y2091080D01*
X1597914Y2080260D01*
X1589176Y2068220D01*
X1582013Y2055215D01*
G37*
G36*
X1326438Y2153158D02*
G01*
X1388770Y2153158D01*
X1388770Y2201062D01*
X1389481Y2204821D01*
X1391564Y2208022D01*
X1394663Y2210257D01*
X1398371Y2211171D01*
X1402181Y2210663D01*
X1407769Y2208784D01*
X1421333Y2206091D01*
X1435100Y2205177D01*
X1448866Y2206091D01*
X1462430Y2208784D01*
X1468018Y2210663D01*
X1471828Y2211171D01*
X1475536Y2210257D01*
X1478635Y2208022D01*
X1480718Y2204821D01*
X1481429Y2201062D01*
X1481429Y2153158D01*
X1543761Y2153158D01*
X1542186Y2157171D01*
X1535023Y2170176D01*
X1526286Y2182215D01*
X1516126Y2193036D01*
X1504645Y2202535D01*
X1496364Y2207818D01*
X1493469Y2210562D01*
X1491843Y2214270D01*
X1491792Y2218283D01*
X1493316Y2221992D01*
X1496161Y2224836D01*
X1499412Y2227021D01*
X1509776Y2236114D01*
X1518920Y2246477D01*
X1526590Y2258009D01*
X1532686Y2270404D01*
X1537157Y2283460D01*
X1539849Y2297023D01*
X1540713Y2310790D01*
X1539849Y2324608D01*
X1537157Y2338120D01*
X1532686Y2351227D01*
X1526590Y2363622D01*
X1518920Y2375103D01*
X1509776Y2385517D01*
X1499412Y2394610D01*
X1487932Y2402281D01*
X1475536Y2408377D01*
X1462430Y2412847D01*
X1448866Y2415540D01*
X1435100Y2416454D01*
X1421333Y2415540D01*
X1407769Y2412847D01*
X1394663Y2408377D01*
X1382268Y2402281D01*
X1370787Y2394610D01*
X1360424Y2385517D01*
X1351280Y2375103D01*
X1343609Y2363622D01*
X1337513Y2351227D01*
X1333042Y2338120D01*
X1330350Y2324608D01*
X1329486Y2310790D01*
X1330350Y2297023D01*
X1333042Y2283460D01*
X1337513Y2270404D01*
X1343609Y2258009D01*
X1351280Y2246477D01*
X1360424Y2236114D01*
X1370787Y2227021D01*
X1374038Y2224836D01*
X1376883Y2221992D01*
X1378407Y2218283D01*
X1378356Y2214270D01*
X1376730Y2210562D01*
X1373835Y2207818D01*
X1365554Y2202535D01*
X1354074Y2193036D01*
X1343914Y2182215D01*
X1335176Y2170176D01*
X1328013Y2157171D01*
G37*
G36*
X10204450Y2307640D02*
G01*
X10208768Y2309368D01*
X10221366Y2316276D01*
X10232999Y2324760D01*
X10243464Y2334615D01*
X10252659Y2345690D01*
X10260330Y2357831D01*
X10265410Y2368550D01*
X10204450Y2368550D01*
G37*
G36*
X10204450Y2457450D02*
G01*
X10265410Y2457450D01*
X10260330Y2468168D01*
X10252659Y2480310D01*
X10243464Y2491384D01*
X10232999Y2501239D01*
X10221366Y2509723D01*
X10208768Y2516632D01*
X10204450Y2518359D01*
G37*
G36*
X1205128Y2510129D02*
G01*
X1221384Y2511044D01*
X1237488Y2513787D01*
X1253185Y2518308D01*
X1268272Y2524556D01*
X1282598Y2532481D01*
X1295908Y2541930D01*
X1308100Y2552801D01*
X1318971Y2564993D01*
X1328420Y2578303D01*
X1336294Y2592578D01*
X1342593Y2607665D01*
X1347114Y2623362D01*
X1349806Y2639466D01*
X1350721Y2655773D01*
X1349806Y2672080D01*
X1347114Y2688183D01*
X1342593Y2703880D01*
X1336294Y2718968D01*
X1328420Y2733243D01*
X1318971Y2746552D01*
X1308100Y2758744D01*
X1295908Y2769616D01*
X1282598Y2779064D01*
X1268272Y2786989D01*
X1253185Y2793238D01*
X1237488Y2797759D01*
X1221384Y2800502D01*
X1205128Y2801416D01*
X1188821Y2800502D01*
X1172718Y2797759D01*
X1157020Y2793238D01*
X1141933Y2786989D01*
X1127607Y2779064D01*
X1114298Y2769616D01*
X1102106Y2758744D01*
X1091234Y2746552D01*
X1081786Y2733243D01*
X1073912Y2718968D01*
X1067612Y2703880D01*
X1063091Y2688183D01*
X1060399Y2672080D01*
X1059484Y2655773D01*
X1060399Y2639466D01*
X1063091Y2623362D01*
X1067612Y2607665D01*
X1073912Y2592578D01*
X1081786Y2578303D01*
X1091234Y2564993D01*
X1102106Y2552801D01*
X1114298Y2541930D01*
X1127607Y2532481D01*
X1141933Y2524556D01*
X1157020Y2518308D01*
X1172718Y2513787D01*
X1188821Y2511044D01*
G37*
G36*
X2990342Y2635300D02*
G01*
X3001314Y2636164D01*
X3011982Y2638704D01*
X3022142Y2642920D01*
X3031540Y2648661D01*
X3039872Y2655824D01*
X3047034Y2664155D01*
X3052775Y2673553D01*
X3056991Y2683713D01*
X3059531Y2694381D01*
X3060446Y2705760D01*
X3060446Y4946751D01*
X3059531Y4958130D01*
X3056991Y4968798D01*
X3052775Y4978958D01*
X3047034Y4988356D01*
X3039618Y4996992D01*
X2829915Y5206746D01*
X2828086Y5209184D01*
X2827070Y5212080D01*
X2827020Y5215178D01*
X2828188Y5224830D01*
X2828188Y5239969D01*
X2826359Y5255056D01*
X2822651Y5269788D01*
X2817164Y5283962D01*
X2809951Y5297322D01*
X2801162Y5309717D01*
X2790952Y5320944D01*
X2779420Y5330799D01*
X2766771Y5339232D01*
X2757576Y5343804D01*
X2754071Y5346649D01*
X2752191Y5350713D01*
X2752191Y5354675D01*
X2751124Y5353050D01*
X2747975Y5350814D01*
X2744216Y5349900D01*
X2723997Y5354269D01*
X2708910Y5355691D01*
X2693720Y5355183D01*
X2678734Y5352897D01*
X2669184Y5350154D01*
X2665476Y5349849D01*
X2661869Y5350865D01*
X2658922Y5353100D01*
X2657551Y5355234D01*
X2658059Y5352948D01*
X2657297Y5349036D01*
X2655112Y5345734D01*
X2651861Y5343550D01*
X2650134Y5342788D01*
X2636977Y5335219D01*
X2624836Y5326075D01*
X2613964Y5315508D01*
X2604414Y5303672D01*
X2596438Y5290769D01*
X2590088Y5276951D01*
X2585466Y5262473D01*
X2582722Y5247538D01*
X2581757Y5232400D01*
X2582722Y5217261D01*
X2585466Y5202326D01*
X2590088Y5187848D01*
X2596438Y5174030D01*
X2604414Y5161127D01*
X2613964Y5149291D01*
X2624836Y5138724D01*
X2636977Y5129580D01*
X2650134Y5122011D01*
X2664104Y5116068D01*
X2678734Y5111902D01*
X2693720Y5109616D01*
X2708910Y5109108D01*
X2722778Y5110429D01*
X2727147Y5109870D01*
X2730906Y5107482D01*
X2734208Y5104180D01*
X2736494Y5100624D01*
X2737154Y5096459D01*
X2736037Y5092344D01*
X2733395Y5089093D01*
X2729585Y5087162D01*
X2725369Y5086959D01*
X2715717Y5088534D01*
X2701544Y5088991D01*
X2687421Y5087620D01*
X2673604Y5084470D01*
X2660294Y5079542D01*
X2647746Y5072989D01*
X2636113Y5064912D01*
X2625648Y5055362D01*
X2616454Y5044592D01*
X2608681Y5032705D01*
X2602534Y5019903D01*
X2598064Y5006441D01*
X2595372Y4992522D01*
X2594457Y4978400D01*
X2595372Y4964277D01*
X2598064Y4950358D01*
X2602534Y4936896D01*
X2608681Y4924094D01*
X2616454Y4912207D01*
X2625648Y4901438D01*
X2636113Y4891887D01*
X2647746Y4883810D01*
X2660294Y4877257D01*
X2673604Y4872329D01*
X2687421Y4869180D01*
X2701544Y4867808D01*
X2715717Y4868265D01*
X2729738Y4870551D01*
X2743301Y4874564D01*
X2756255Y4880305D01*
X2768396Y4887671D01*
X2779471Y4896510D01*
X2789326Y4906670D01*
X2797810Y4918049D01*
X2804769Y4930394D01*
X2810103Y4943551D01*
X2813710Y4957267D01*
X2815488Y4971288D01*
X2815488Y4985512D01*
X2813761Y4998821D01*
X2814116Y5002987D01*
X2816098Y5006695D01*
X2819400Y5009235D01*
X2823413Y5010302D01*
X2827528Y5009591D01*
X2831033Y5007305D01*
X2917240Y4921097D01*
X2919476Y4917795D01*
X2920238Y4913934D01*
X2920238Y2705760D01*
X2921152Y2694381D01*
X2923692Y2683713D01*
X2927908Y2673553D01*
X2933649Y2664155D01*
X2940812Y2655824D01*
X2949143Y2648661D01*
X2958541Y2642920D01*
X2968701Y2638704D01*
X2979369Y2636164D01*
G37*
G36*
X4229100Y2712516D02*
G01*
X4238853Y2713380D01*
X4248302Y2715869D01*
X4257141Y2720035D01*
X4265168Y2725623D01*
X4272076Y2732532D01*
X4277664Y2740558D01*
X4281830Y2749397D01*
X4284319Y2758846D01*
X4285183Y2768600D01*
X4284319Y2778353D01*
X4281830Y2787802D01*
X4277664Y2796641D01*
X4275632Y2799537D01*
X4274261Y2802331D01*
X4273804Y2805379D01*
X4273753Y3240227D01*
X4272584Y3248710D01*
X4269943Y3256534D01*
X4265930Y3263747D01*
X4260392Y3270453D01*
X4022547Y3508298D01*
X4020312Y3511600D01*
X4019550Y3515461D01*
X4019550Y3600958D01*
X4020312Y3604768D01*
X4022394Y3608019D01*
X4026052Y3610457D01*
X4038193Y3617823D01*
X4049268Y3626662D01*
X4059123Y3636822D01*
X4067606Y3648201D01*
X4074566Y3660546D01*
X4079900Y3673703D01*
X4083507Y3687419D01*
X4085285Y3701440D01*
X4085285Y3715664D01*
X4083507Y3729685D01*
X4079900Y3743401D01*
X4074566Y3756558D01*
X4067606Y3768902D01*
X4059123Y3780282D01*
X4049268Y3790442D01*
X4038193Y3799281D01*
X4026052Y3806647D01*
X4013098Y3812387D01*
X3999534Y3816400D01*
X3985514Y3818686D01*
X3971340Y3819144D01*
X3957218Y3817772D01*
X3943400Y3814622D01*
X3930091Y3809695D01*
X3917543Y3803142D01*
X3905910Y3795064D01*
X3895445Y3785514D01*
X3886250Y3774744D01*
X3878478Y3762857D01*
X3872331Y3750056D01*
X3867861Y3736594D01*
X3865168Y3722674D01*
X3864254Y3708552D01*
X3865168Y3694429D01*
X3867861Y3680510D01*
X3872331Y3667048D01*
X3878478Y3654247D01*
X3886250Y3642360D01*
X3895445Y3631590D01*
X3905910Y3622040D01*
X3917543Y3613962D01*
X3924706Y3610203D01*
X3927551Y3607968D01*
X3929481Y3604818D01*
X3930142Y3601212D01*
X3930192Y3491026D01*
X3931361Y3482543D01*
X3934002Y3474720D01*
X3938015Y3467506D01*
X3943553Y3460800D01*
X4181398Y3222955D01*
X4183634Y3219653D01*
X4184396Y3215792D01*
X4184396Y2805379D01*
X4183938Y2802331D01*
X4182567Y2799537D01*
X4180535Y2796641D01*
X4176369Y2787802D01*
X4173880Y2778353D01*
X4173016Y2768600D01*
X4173880Y2758846D01*
X4176369Y2749397D01*
X4180535Y2740558D01*
X4186123Y2732532D01*
X4193032Y2725623D01*
X4201058Y2720035D01*
X4209897Y2715869D01*
X4219346Y2713380D01*
G37*
G36*
X2753563Y2767126D02*
G01*
X2754172Y2768447D01*
X2757728Y2771241D01*
X2762097Y2772257D01*
X2789580Y2772257D01*
X2797556Y2773019D01*
X2804769Y2775204D01*
X2811373Y2778760D01*
X2817164Y2783535D01*
X2821940Y2789326D01*
X2825496Y2795930D01*
X2827680Y2803144D01*
X2828442Y2811119D01*
X2828442Y2846730D01*
X2753969Y2846730D01*
X2753969Y2769260D01*
G37*
G36*
X3971340Y2785160D02*
G01*
X3985514Y2785618D01*
X3999534Y2787904D01*
X4013098Y2791917D01*
X4026052Y2797657D01*
X4038193Y2805023D01*
X4049268Y2813862D01*
X4059123Y2824022D01*
X4067606Y2835402D01*
X4074566Y2847746D01*
X4079900Y2860903D01*
X4083507Y2874619D01*
X4085285Y2888640D01*
X4085285Y2902864D01*
X4083507Y2916885D01*
X4079900Y2930601D01*
X4074566Y2943758D01*
X4067606Y2956102D01*
X4059123Y2967482D01*
X4049268Y2977642D01*
X4038193Y2986481D01*
X4026052Y2993847D01*
X4013098Y2999587D01*
X3999534Y3003600D01*
X3985514Y3005886D01*
X3971340Y3006344D01*
X3957218Y3004972D01*
X3943400Y3001822D01*
X3930091Y2996895D01*
X3917543Y2990342D01*
X3905910Y2982264D01*
X3895445Y2972714D01*
X3886250Y2961944D01*
X3878478Y2950057D01*
X3872331Y2937256D01*
X3867861Y2923794D01*
X3865168Y2909874D01*
X3864254Y2895752D01*
X3865168Y2881630D01*
X3867861Y2867710D01*
X3872331Y2854248D01*
X3878478Y2841447D01*
X3886250Y2829560D01*
X3895445Y2818790D01*
X3905910Y2809240D01*
X3917543Y2801162D01*
X3930091Y2794609D01*
X3943400Y2789682D01*
X3957218Y2786532D01*
G37*
G36*
X2753969Y2944469D02*
G01*
X2828442Y2944469D01*
X2828442Y2980080D01*
X2827680Y2988056D01*
X2825496Y2995269D01*
X2821940Y3001873D01*
X2817164Y3007664D01*
X2811373Y3012440D01*
X2804769Y3015996D01*
X2797556Y3018180D01*
X2789580Y3018942D01*
X2753969Y3018942D01*
G37*
G36*
X1205128Y2975457D02*
G01*
X1221384Y2976372D01*
X1237488Y2979064D01*
X1253185Y2983585D01*
X1268272Y2989884D01*
X1282598Y2997758D01*
X1295908Y3007207D01*
X1308100Y3018078D01*
X1318971Y3030270D01*
X1328420Y3043580D01*
X1336294Y3057906D01*
X1342593Y3072993D01*
X1347114Y3088690D01*
X1349806Y3104794D01*
X1350721Y3121050D01*
X1349806Y3137357D01*
X1347114Y3153460D01*
X1342593Y3169158D01*
X1336294Y3184245D01*
X1328420Y3198571D01*
X1318971Y3211880D01*
X1308100Y3224072D01*
X1295908Y3234944D01*
X1282598Y3244392D01*
X1268272Y3252266D01*
X1253185Y3258565D01*
X1237488Y3263087D01*
X1221384Y3265779D01*
X1205128Y3266694D01*
X1188821Y3265779D01*
X1172718Y3263087D01*
X1157020Y3258565D01*
X1141933Y3252266D01*
X1127607Y3244392D01*
X1114298Y3234944D01*
X1102106Y3224072D01*
X1091234Y3211880D01*
X1081786Y3198571D01*
X1073912Y3184245D01*
X1067612Y3169158D01*
X1063091Y3153460D01*
X1060399Y3137357D01*
X1059484Y3121050D01*
X1060399Y3104794D01*
X1063091Y3088690D01*
X1067612Y3072993D01*
X1073912Y3057906D01*
X1081786Y3043580D01*
X1091234Y3030270D01*
X1102106Y3018078D01*
X1114298Y3007207D01*
X1127607Y2997758D01*
X1141933Y2989884D01*
X1157020Y2983585D01*
X1172718Y2979064D01*
X1188821Y2976372D01*
G37*
G36*
X2708910Y3585108D02*
G01*
X2723997Y3586530D01*
X2738831Y3589782D01*
X2753156Y3594811D01*
X2766771Y3601567D01*
X2779420Y3610000D01*
X2790952Y3619855D01*
X2801162Y3631082D01*
X2809951Y3643477D01*
X2817164Y3656837D01*
X2822651Y3671011D01*
X2826359Y3685743D01*
X2828188Y3700830D01*
X2828188Y3715969D01*
X2826359Y3731056D01*
X2822651Y3745788D01*
X2817164Y3759962D01*
X2809951Y3773322D01*
X2801162Y3785717D01*
X2790952Y3796944D01*
X2779420Y3806799D01*
X2766771Y3815232D01*
X2753156Y3821988D01*
X2738831Y3827018D01*
X2723997Y3830269D01*
X2708910Y3831691D01*
X2693720Y3831183D01*
X2678734Y3828897D01*
X2664104Y3824732D01*
X2650134Y3818788D01*
X2636977Y3811219D01*
X2624836Y3802075D01*
X2613964Y3791508D01*
X2604414Y3779672D01*
X2596438Y3766769D01*
X2590088Y3752951D01*
X2585466Y3738473D01*
X2582722Y3723538D01*
X2581757Y3708400D01*
X2582722Y3693261D01*
X2585466Y3678326D01*
X2590088Y3663848D01*
X2596438Y3650030D01*
X2604414Y3637127D01*
X2613964Y3625291D01*
X2624836Y3614724D01*
X2636977Y3605580D01*
X2650134Y3598011D01*
X2664104Y3592068D01*
X2678734Y3587902D01*
X2693720Y3585616D01*
G37*
G36*
X3478936Y3612743D02*
G01*
X3489756Y3617772D01*
X3501390Y3625189D01*
X3511956Y3634130D01*
X3521201Y3644341D01*
X3529025Y3655720D01*
X3535222Y3668064D01*
X3535730Y3669537D01*
X3478936Y3669537D01*
G37*
G36*
X3478936Y3747262D02*
G01*
X3535730Y3747262D01*
X3535222Y3748735D01*
X3529025Y3761079D01*
X3521201Y3772458D01*
X3511956Y3782669D01*
X3501390Y3791610D01*
X3489756Y3799027D01*
X3478936Y3804056D01*
G37*
G36*
X7121296Y3759047D02*
G01*
X7134910Y3759504D01*
X7148322Y3761740D01*
X7161275Y3765753D01*
X7173620Y3771493D01*
X7185101Y3778808D01*
X7195515Y3787597D01*
X7204608Y3797706D01*
X7212330Y3808882D01*
X7218425Y3821023D01*
X7222896Y3833876D01*
X7225639Y3847236D01*
X7226553Y3860800D01*
X7225639Y3874363D01*
X7222896Y3887724D01*
X7218425Y3900576D01*
X7212330Y3912717D01*
X7204608Y3923893D01*
X7195515Y3934002D01*
X7185101Y3942791D01*
X7173620Y3950106D01*
X7161275Y3955846D01*
X7148322Y3959860D01*
X7134910Y3962095D01*
X7121296Y3962552D01*
X7107783Y3961231D01*
X7094524Y3958082D01*
X7081824Y3953154D01*
X7069886Y3946651D01*
X7058964Y3938574D01*
X7049160Y3929126D01*
X7040727Y3918407D01*
X7033818Y3906723D01*
X7028484Y3894226D01*
X7024928Y3881069D01*
X7023100Y3867607D01*
X7023100Y3853992D01*
X7024928Y3840530D01*
X7028484Y3827373D01*
X7033818Y3814876D01*
X7040727Y3803192D01*
X7049160Y3792474D01*
X7058964Y3783025D01*
X7069886Y3774948D01*
X7081824Y3768445D01*
X7094524Y3763518D01*
X7107783Y3760368D01*
G37*
G36*
X2753969Y3849217D02*
G01*
X2766771Y3855567D01*
X2779420Y3864000D01*
X2790952Y3873855D01*
X2801162Y3885082D01*
X2809951Y3897477D01*
X2817164Y3910837D01*
X2818180Y3913530D01*
X2753969Y3913530D01*
G37*
G36*
X2656230Y3849420D02*
G01*
X2656230Y3913530D01*
X2592070Y3913530D01*
X2596438Y3904030D01*
X2604414Y3891127D01*
X2613964Y3879291D01*
X2624836Y3868724D01*
X2636977Y3859580D01*
X2650134Y3852011D01*
G37*
G36*
X5860034Y3966921D02*
G01*
X5866536Y3969867D01*
X5881471Y3978706D01*
X5895441Y3989070D01*
X5908243Y4000855D01*
X5919673Y4013911D01*
X5929680Y4028186D01*
X5938113Y4043375D01*
X5939180Y4045965D01*
X5860034Y4045965D01*
G37*
G36*
X5722366Y3966921D02*
G01*
X5722366Y4045965D01*
X5643219Y4045965D01*
X5644286Y4043375D01*
X5652719Y4028186D01*
X5662726Y4013911D01*
X5674156Y4000855D01*
X5686958Y3989070D01*
X5700928Y3978706D01*
X5715863Y3969867D01*
G37*
G36*
X2592070Y4011269D02*
G01*
X2656230Y4011269D01*
X2656230Y4075379D01*
X2650134Y4072788D01*
X2636977Y4065219D01*
X2624836Y4056075D01*
X2613964Y4045508D01*
X2604414Y4033672D01*
X2596438Y4020769D01*
G37*
G36*
X2753969Y4011269D02*
G01*
X2818180Y4011269D01*
X2817164Y4013962D01*
X2809951Y4027322D01*
X2801162Y4039717D01*
X2790952Y4050944D01*
X2779420Y4060799D01*
X2766771Y4069232D01*
X2753969Y4075582D01*
G37*
G36*
X7121296Y4013047D02*
G01*
X7134910Y4013504D01*
X7148322Y4015740D01*
X7161275Y4019753D01*
X7173620Y4025493D01*
X7185101Y4032808D01*
X7195515Y4041597D01*
X7204608Y4051706D01*
X7212330Y4062882D01*
X7218425Y4075023D01*
X7222896Y4087876D01*
X7225639Y4101236D01*
X7226553Y4114800D01*
X7225639Y4128363D01*
X7222896Y4141724D01*
X7218425Y4154576D01*
X7212330Y4166717D01*
X7204608Y4177893D01*
X7195515Y4188002D01*
X7185101Y4196791D01*
X7173620Y4204106D01*
X7161275Y4209846D01*
X7148322Y4213860D01*
X7134910Y4216095D01*
X7121296Y4216552D01*
X7107783Y4215231D01*
X7094524Y4212082D01*
X7081824Y4207154D01*
X7069886Y4200652D01*
X7058964Y4192574D01*
X7049160Y4183126D01*
X7040727Y4172407D01*
X7033818Y4160723D01*
X7028484Y4148226D01*
X7024928Y4135069D01*
X7023100Y4121607D01*
X7023100Y4107992D01*
X7024928Y4094530D01*
X7028484Y4081373D01*
X7033818Y4068876D01*
X7040727Y4057192D01*
X7049160Y4046474D01*
X7058964Y4037025D01*
X7069886Y4028948D01*
X7081824Y4022445D01*
X7094524Y4017518D01*
X7107783Y4014368D01*
G37*
G36*
X4835296Y4013047D02*
G01*
X4848910Y4013504D01*
X4862322Y4015740D01*
X4875276Y4019753D01*
X4887620Y4025493D01*
X4899101Y4032808D01*
X4909515Y4041597D01*
X4918608Y4051706D01*
X4926330Y4062882D01*
X4932426Y4075023D01*
X4936896Y4087876D01*
X4939639Y4101236D01*
X4940554Y4114800D01*
X4939639Y4128363D01*
X4936896Y4141724D01*
X4932426Y4154576D01*
X4926330Y4166717D01*
X4918608Y4177893D01*
X4909515Y4188002D01*
X4899101Y4196791D01*
X4887620Y4204106D01*
X4875276Y4209846D01*
X4862322Y4213860D01*
X4848910Y4216095D01*
X4835296Y4216552D01*
X4821783Y4215231D01*
X4808524Y4212082D01*
X4795824Y4207154D01*
X4783886Y4200652D01*
X4772964Y4192574D01*
X4763160Y4183126D01*
X4754727Y4172407D01*
X4747818Y4160723D01*
X4742484Y4148226D01*
X4738928Y4135069D01*
X4737100Y4121607D01*
X4737100Y4107992D01*
X4738928Y4094530D01*
X4742484Y4081373D01*
X4747818Y4068876D01*
X4754727Y4057192D01*
X4763160Y4046474D01*
X4772964Y4037025D01*
X4783886Y4028948D01*
X4795824Y4022445D01*
X4808524Y4017518D01*
X4821783Y4014368D01*
G37*
G36*
X2701544Y4105808D02*
G01*
X2715717Y4106265D01*
X2729738Y4108551D01*
X2743301Y4112564D01*
X2756255Y4118305D01*
X2768396Y4125671D01*
X2779471Y4134510D01*
X2789326Y4144670D01*
X2797810Y4156049D01*
X2804769Y4168394D01*
X2810103Y4181551D01*
X2813710Y4195267D01*
X2815488Y4209288D01*
X2815488Y4223512D01*
X2813710Y4237532D01*
X2810103Y4251248D01*
X2804769Y4264406D01*
X2797810Y4276750D01*
X2789326Y4288129D01*
X2779471Y4298289D01*
X2768396Y4307128D01*
X2756255Y4314494D01*
X2743301Y4320235D01*
X2729738Y4324248D01*
X2715717Y4326534D01*
X2701544Y4326991D01*
X2687472Y4325620D01*
X2672791Y4322267D01*
X2669387Y4322064D01*
X2666136Y4322978D01*
X2663342Y4324959D01*
X2430475Y4557877D01*
X2428240Y4561179D01*
X2427478Y4565040D01*
X2427478Y4883962D01*
X2427325Y4887518D01*
X2426665Y4892954D01*
X2425954Y4896104D01*
X2424226Y4901336D01*
X2422956Y4904282D01*
X2420315Y4909108D01*
X2418537Y4911801D01*
X2415082Y4916068D01*
X1794459Y5504586D01*
X1792427Y5507278D01*
X1791411Y5510530D01*
X1791512Y5513933D01*
X1793849Y5525617D01*
X1794713Y5539384D01*
X1793849Y5553202D01*
X1791157Y5566714D01*
X1786686Y5579821D01*
X1780590Y5592216D01*
X1774291Y5601614D01*
X1772716Y5605576D01*
X1772920Y5609793D01*
X1774799Y5613603D01*
X1778050Y5616295D01*
X1782165Y5617413D01*
X1786382Y5616752D01*
X1789938Y5614466D01*
X2454198Y4950155D01*
X2456434Y4946853D01*
X2457196Y4942992D01*
X2457246Y4811572D01*
X2458415Y4803089D01*
X2461056Y4795266D01*
X2465070Y4788052D01*
X2470607Y4781346D01*
X2560421Y4691634D01*
X2567279Y4686452D01*
X2574645Y4682744D01*
X2582722Y4680458D01*
X2588869Y4679746D01*
X2597759Y4679696D01*
X2601468Y4678984D01*
X2604617Y4676952D01*
X2606852Y4673955D01*
X2608681Y4670094D01*
X2616454Y4658207D01*
X2625648Y4647438D01*
X2636113Y4637887D01*
X2647746Y4629810D01*
X2660294Y4623257D01*
X2673604Y4618329D01*
X2687421Y4615180D01*
X2701544Y4613808D01*
X2715717Y4614265D01*
X2729738Y4616551D01*
X2743301Y4620564D01*
X2756255Y4626305D01*
X2768396Y4633671D01*
X2779471Y4642510D01*
X2789326Y4652670D01*
X2797810Y4664049D01*
X2804769Y4676394D01*
X2810103Y4689551D01*
X2813710Y4703267D01*
X2815488Y4717288D01*
X2815488Y4731512D01*
X2813710Y4745532D01*
X2810103Y4759248D01*
X2804769Y4772406D01*
X2797810Y4784750D01*
X2789326Y4796129D01*
X2779471Y4806289D01*
X2768396Y4815128D01*
X2756255Y4822494D01*
X2743301Y4828235D01*
X2729738Y4832248D01*
X2715717Y4834534D01*
X2701544Y4834991D01*
X2687421Y4833620D01*
X2673604Y4830470D01*
X2660294Y4825542D01*
X2647746Y4818989D01*
X2636113Y4810912D01*
X2625648Y4801362D01*
X2616454Y4790592D01*
X2611983Y4783734D01*
X2608783Y4780635D01*
X2604566Y4779213D01*
X2600096Y4779721D01*
X2596286Y4782108D01*
X2549601Y4828844D01*
X2547366Y4832146D01*
X2546604Y4836007D01*
X2546553Y4967427D01*
X2545384Y4975910D01*
X2542743Y4983734D01*
X2538730Y4990947D01*
X2533192Y4997653D01*
X1782978Y5747766D01*
X1776120Y5752947D01*
X1768754Y5756656D01*
X1760829Y5758891D01*
X1752142Y5759704D01*
X1636572Y5759653D01*
X1628089Y5758484D01*
X1620266Y5755843D01*
X1613052Y5751830D01*
X1606346Y5746292D01*
X1545742Y5685688D01*
X1542592Y5683554D01*
X1538833Y5682691D01*
X1535074Y5683351D01*
X1531772Y5685332D01*
X1529486Y5688380D01*
X1526590Y5694222D01*
X1518920Y5705703D01*
X1509776Y5716117D01*
X1499412Y5725210D01*
X1487932Y5732881D01*
X1475536Y5738977D01*
X1462430Y5743448D01*
X1448866Y5746140D01*
X1435100Y5747054D01*
X1421333Y5746140D01*
X1407769Y5743448D01*
X1394663Y5738977D01*
X1382268Y5732881D01*
X1370787Y5725210D01*
X1360424Y5716117D01*
X1351280Y5705703D01*
X1343609Y5694222D01*
X1337513Y5681827D01*
X1333042Y5668721D01*
X1330350Y5655208D01*
X1329486Y5641390D01*
X1330350Y5627624D01*
X1333042Y5614060D01*
X1337513Y5601004D01*
X1343609Y5588609D01*
X1351280Y5577078D01*
X1360424Y5566714D01*
X1370787Y5557621D01*
X1382268Y5549900D01*
X1385163Y5548528D01*
X1388618Y5545683D01*
X1390548Y5541619D01*
X1390548Y5537149D01*
X1388618Y5533085D01*
X1385163Y5530291D01*
X1382268Y5528868D01*
X1370787Y5521198D01*
X1360424Y5512104D01*
X1351280Y5501690D01*
X1343609Y5490210D01*
X1337513Y5477814D01*
X1333042Y5464708D01*
X1330350Y5451195D01*
X1329486Y5437378D01*
X1330350Y5423611D01*
X1333042Y5410047D01*
X1337513Y5396992D01*
X1343609Y5384596D01*
X1351280Y5373065D01*
X1360424Y5362702D01*
X1370787Y5353608D01*
X1382268Y5345887D01*
X1385112Y5344515D01*
X1388618Y5341670D01*
X1390548Y5337657D01*
X1390548Y5333136D01*
X1388618Y5329123D01*
X1385112Y5326278D01*
X1382268Y5324906D01*
X1370787Y5317185D01*
X1360424Y5308092D01*
X1351280Y5297728D01*
X1343609Y5286197D01*
X1337513Y5273802D01*
X1333042Y5260746D01*
X1330350Y5247182D01*
X1329486Y5233416D01*
X1330350Y5219598D01*
X1333042Y5206085D01*
X1337513Y5192979D01*
X1343609Y5180584D01*
X1351280Y5169103D01*
X1360424Y5158689D01*
X1370787Y5149596D01*
X1382268Y5141925D01*
X1394663Y5135829D01*
X1407769Y5131358D01*
X1421333Y5128666D01*
X1435100Y5127752D01*
X1448866Y5128666D01*
X1462430Y5131358D01*
X1475536Y5135829D01*
X1487932Y5141925D01*
X1499412Y5149596D01*
X1509776Y5158689D01*
X1518920Y5169103D01*
X1526590Y5180584D01*
X1532686Y5192979D01*
X1537157Y5206085D01*
X1539849Y5219598D01*
X1540713Y5233416D01*
X1539849Y5247182D01*
X1537157Y5260746D01*
X1532686Y5273802D01*
X1526590Y5286197D01*
X1518920Y5297728D01*
X1509776Y5308092D01*
X1499412Y5317185D01*
X1487932Y5324906D01*
X1485087Y5326278D01*
X1481582Y5329123D01*
X1479651Y5333136D01*
X1479651Y5337657D01*
X1481582Y5341670D01*
X1485087Y5344515D01*
X1487932Y5345887D01*
X1499412Y5353608D01*
X1509776Y5362702D01*
X1518920Y5373065D01*
X1526590Y5384596D01*
X1532686Y5396992D01*
X1535430Y5405018D01*
X1537512Y5408523D01*
X1540764Y5410962D01*
X1544777Y5411876D01*
X1548790Y5411165D01*
X1552244Y5408930D01*
X1585468Y5375656D01*
X1587601Y5372608D01*
X1588414Y5368950D01*
X1587906Y5365242D01*
X1587042Y5362752D01*
X1584350Y5349189D01*
X1583486Y5335422D01*
X1584350Y5321604D01*
X1587042Y5308092D01*
X1591513Y5294985D01*
X1597609Y5282590D01*
X1605280Y5271109D01*
X1614424Y5260695D01*
X1621078Y5254853D01*
X1623568Y5251602D01*
X1624533Y5247640D01*
X1623923Y5243626D01*
X1621739Y5240172D01*
X1618386Y5237886D01*
X1614373Y5237073D01*
X1609648Y5237073D01*
X1603400Y5236362D01*
X1598015Y5234432D01*
X1593138Y5231384D01*
X1589074Y5227370D01*
X1586026Y5222494D01*
X1584147Y5217109D01*
X1583436Y5210810D01*
X1583436Y5051958D01*
X1584147Y5045710D01*
X1586026Y5040274D01*
X1589074Y5035448D01*
X1593138Y5031384D01*
X1598015Y5028336D01*
X1603400Y5026456D01*
X1609648Y5025745D01*
X1768551Y5025745D01*
X1774799Y5026456D01*
X1780184Y5028336D01*
X1785061Y5031384D01*
X1789125Y5035448D01*
X1792173Y5040274D01*
X1794052Y5045710D01*
X1794764Y5051958D01*
X1794764Y5210810D01*
X1794052Y5217109D01*
X1792173Y5222494D01*
X1789125Y5227370D01*
X1785061Y5231384D01*
X1780184Y5234432D01*
X1774799Y5236362D01*
X1768551Y5237073D01*
X1763826Y5237073D01*
X1759813Y5237886D01*
X1756460Y5240172D01*
X1754276Y5243626D01*
X1753666Y5247640D01*
X1754632Y5251602D01*
X1757121Y5254853D01*
X1763775Y5260695D01*
X1772920Y5271109D01*
X1780590Y5282590D01*
X1786686Y5294985D01*
X1791157Y5308092D01*
X1793849Y5321604D01*
X1794713Y5335422D01*
X1793748Y5349646D01*
X1793798Y5353913D01*
X1795576Y5357774D01*
X1798777Y5360517D01*
X1802841Y5361787D01*
X1807057Y5361228D01*
X1810715Y5358993D01*
X2329840Y4866843D01*
X2332177Y4863490D01*
X2332990Y4859477D01*
X2333040Y4539437D01*
X2334310Y4530445D01*
X2337054Y4522216D01*
X2341270Y4514596D01*
X2347163Y4507534D01*
X2596692Y4258005D01*
X2598775Y4254957D01*
X2599639Y4251299D01*
X2599131Y4247642D01*
X2598064Y4244441D01*
X2595372Y4230522D01*
X2594457Y4216400D01*
X2595372Y4202277D01*
X2598064Y4188358D01*
X2602534Y4174896D01*
X2608681Y4162094D01*
X2616454Y4150207D01*
X2625648Y4139437D01*
X2636113Y4129887D01*
X2647746Y4121810D01*
X2660294Y4115257D01*
X2673604Y4110329D01*
X2687421Y4107179D01*
G37*
G36*
X1205128Y4175455D02*
G01*
X1221384Y4176369D01*
X1237488Y4179062D01*
X1253185Y4183583D01*
X1268272Y4189882D01*
X1282598Y4197756D01*
X1295908Y4207205D01*
X1308100Y4218076D01*
X1318971Y4230268D01*
X1328420Y4243578D01*
X1336294Y4257903D01*
X1342593Y4272991D01*
X1347114Y4288688D01*
X1349806Y4304792D01*
X1350721Y4321048D01*
X1349806Y4337354D01*
X1347114Y4353458D01*
X1342593Y4369155D01*
X1336294Y4384243D01*
X1328420Y4398568D01*
X1318971Y4411878D01*
X1308100Y4424070D01*
X1295908Y4434941D01*
X1282598Y4444390D01*
X1268272Y4452264D01*
X1253185Y4458563D01*
X1237488Y4463084D01*
X1221384Y4465777D01*
X1205128Y4466691D01*
X1188821Y4465777D01*
X1172718Y4463084D01*
X1157020Y4458563D01*
X1141933Y4452264D01*
X1127607Y4444390D01*
X1114298Y4434941D01*
X1102106Y4424070D01*
X1091234Y4411878D01*
X1081786Y4398568D01*
X1073912Y4384243D01*
X1067612Y4369155D01*
X1063091Y4353458D01*
X1060399Y4337354D01*
X1059484Y4321048D01*
X1060399Y4304792D01*
X1063091Y4288688D01*
X1067612Y4272991D01*
X1073912Y4257903D01*
X1081786Y4243578D01*
X1091234Y4230268D01*
X1102106Y4218076D01*
X1114298Y4207205D01*
X1127607Y4197756D01*
X1141933Y4189882D01*
X1157020Y4183583D01*
X1172718Y4179062D01*
X1188821Y4176369D01*
G37*
G36*
X5860034Y4183634D02*
G01*
X5939078Y4183634D01*
X5934100Y4193946D01*
X5924854Y4208678D01*
X5914136Y4222343D01*
X5901994Y4234840D01*
X5888634Y4245914D01*
X5874105Y4255516D01*
X5860034Y4262831D01*
G37*
G36*
X5643321Y4183634D02*
G01*
X5722366Y4183634D01*
X5722366Y4262831D01*
X5708294Y4255516D01*
X5693765Y4245914D01*
X5680405Y4234840D01*
X5668264Y4222343D01*
X5657545Y4208678D01*
X5648299Y4193946D01*
G37*
G36*
X7121296Y4267047D02*
G01*
X7134910Y4267504D01*
X7148322Y4269740D01*
X7161275Y4273753D01*
X7173620Y4279493D01*
X7185101Y4286808D01*
X7195515Y4295597D01*
X7204608Y4305706D01*
X7212330Y4316882D01*
X7218425Y4329023D01*
X7222896Y4341876D01*
X7225639Y4355236D01*
X7226553Y4368800D01*
X7225639Y4382363D01*
X7222896Y4395724D01*
X7218425Y4408576D01*
X7212330Y4420717D01*
X7204608Y4431893D01*
X7195515Y4442002D01*
X7185101Y4450791D01*
X7173620Y4458106D01*
X7161275Y4463846D01*
X7148322Y4467860D01*
X7134910Y4470095D01*
X7121296Y4470552D01*
X7107783Y4469231D01*
X7094524Y4466082D01*
X7081824Y4461154D01*
X7069886Y4454652D01*
X7058964Y4446574D01*
X7049160Y4437126D01*
X7040727Y4426407D01*
X7033818Y4414723D01*
X7028484Y4402226D01*
X7024928Y4389069D01*
X7023100Y4375607D01*
X7023100Y4361992D01*
X7024928Y4348530D01*
X7028484Y4335373D01*
X7033818Y4322876D01*
X7040727Y4311192D01*
X7049160Y4300474D01*
X7058964Y4291025D01*
X7069886Y4282948D01*
X7081824Y4276445D01*
X7094524Y4271518D01*
X7107783Y4268368D01*
G37*
G36*
X2701544Y4359808D02*
G01*
X2715717Y4360265D01*
X2729738Y4362551D01*
X2743301Y4366564D01*
X2756255Y4372305D01*
X2768396Y4379671D01*
X2779471Y4388510D01*
X2789326Y4398670D01*
X2797810Y4410049D01*
X2804769Y4422394D01*
X2810103Y4435551D01*
X2813710Y4449267D01*
X2815488Y4463288D01*
X2815488Y4477512D01*
X2813710Y4491532D01*
X2810103Y4505248D01*
X2804769Y4518406D01*
X2797810Y4530750D01*
X2789326Y4542129D01*
X2779471Y4552289D01*
X2768396Y4561128D01*
X2756255Y4568494D01*
X2743301Y4574235D01*
X2729738Y4578248D01*
X2715717Y4580534D01*
X2701544Y4580991D01*
X2687421Y4579620D01*
X2673604Y4576470D01*
X2660294Y4571542D01*
X2647746Y4564989D01*
X2636113Y4556912D01*
X2625648Y4547362D01*
X2616454Y4536592D01*
X2608681Y4524705D01*
X2602534Y4511903D01*
X2598064Y4498441D01*
X2595372Y4484522D01*
X2594457Y4470400D01*
X2595372Y4456277D01*
X2598064Y4442358D01*
X2602534Y4428896D01*
X2608681Y4416094D01*
X2616454Y4404207D01*
X2625648Y4393438D01*
X2636113Y4383887D01*
X2647746Y4375810D01*
X2660294Y4369257D01*
X2673604Y4364329D01*
X2687421Y4361180D01*
G37*
G36*
X7121296Y4521047D02*
G01*
X7134910Y4521504D01*
X7148322Y4523740D01*
X7161275Y4527753D01*
X7173620Y4533493D01*
X7185101Y4540808D01*
X7195515Y4549597D01*
X7204608Y4559706D01*
X7212330Y4570882D01*
X7218425Y4583023D01*
X7222896Y4595876D01*
X7225639Y4609236D01*
X7226553Y4622800D01*
X7225639Y4636363D01*
X7222896Y4649724D01*
X7218425Y4662576D01*
X7212330Y4674717D01*
X7204608Y4685893D01*
X7195515Y4696002D01*
X7185101Y4704791D01*
X7173620Y4712106D01*
X7161275Y4717846D01*
X7148322Y4721860D01*
X7134910Y4724095D01*
X7121296Y4724552D01*
X7107783Y4723231D01*
X7094524Y4720082D01*
X7081824Y4715154D01*
X7069886Y4708652D01*
X7058964Y4700574D01*
X7049160Y4691126D01*
X7040727Y4680407D01*
X7033818Y4668723D01*
X7028484Y4656226D01*
X7024928Y4643069D01*
X7023100Y4629607D01*
X7023100Y4615992D01*
X7024928Y4602530D01*
X7028484Y4589373D01*
X7033818Y4576876D01*
X7040727Y4565192D01*
X7049160Y4554474D01*
X7058964Y4545025D01*
X7069886Y4536948D01*
X7081824Y4530445D01*
X7094524Y4525518D01*
X7107783Y4522368D01*
G37*
G36*
X10204450Y4542840D02*
G01*
X10208768Y4544568D01*
X10221366Y4551476D01*
X10232999Y4559960D01*
X10243464Y4569815D01*
X10252659Y4580890D01*
X10260330Y4593031D01*
X10265410Y4603750D01*
X10204450Y4603750D01*
G37*
G36*
X3971340Y4613960D02*
G01*
X3985514Y4614418D01*
X3999534Y4616704D01*
X4013098Y4620717D01*
X4026052Y4626457D01*
X4038193Y4633823D01*
X4049268Y4642662D01*
X4059123Y4652822D01*
X4067606Y4664202D01*
X4074566Y4676546D01*
X4079900Y4689703D01*
X4083507Y4703419D01*
X4085285Y4717440D01*
X4085285Y4731664D01*
X4083507Y4745685D01*
X4079900Y4759401D01*
X4074566Y4772558D01*
X4067606Y4784902D01*
X4059123Y4796282D01*
X4049268Y4806442D01*
X4038193Y4815281D01*
X4025595Y4822850D01*
X4022394Y4825085D01*
X4020312Y4828336D01*
X4019550Y4832146D01*
X4019550Y4870958D01*
X4020312Y4874768D01*
X4022394Y4878019D01*
X4026052Y4880457D01*
X4038193Y4887823D01*
X4049268Y4896662D01*
X4059123Y4906822D01*
X4067606Y4918202D01*
X4074566Y4930546D01*
X4079900Y4943703D01*
X4083507Y4957419D01*
X4085285Y4971440D01*
X4085285Y4985664D01*
X4083507Y4999685D01*
X4079900Y5013401D01*
X4074566Y5026558D01*
X4067606Y5038902D01*
X4059123Y5050282D01*
X4049268Y5060442D01*
X4038193Y5069281D01*
X4026052Y5076647D01*
X4013098Y5082387D01*
X3999534Y5086400D01*
X3985514Y5088686D01*
X3971340Y5089144D01*
X3957218Y5087772D01*
X3943400Y5084622D01*
X3930091Y5079695D01*
X3917543Y5073142D01*
X3905910Y5065064D01*
X3895445Y5055514D01*
X3886250Y5044744D01*
X3878478Y5032857D01*
X3872331Y5020056D01*
X3867861Y5006594D01*
X3865168Y4992674D01*
X3864254Y4978552D01*
X3865168Y4964430D01*
X3867861Y4950510D01*
X3872331Y4937048D01*
X3878478Y4924247D01*
X3886250Y4912360D01*
X3895445Y4901590D01*
X3905910Y4892040D01*
X3917543Y4883962D01*
X3924706Y4880203D01*
X3927551Y4877968D01*
X3929481Y4874818D01*
X3930142Y4871212D01*
X3930142Y4831892D01*
X3929481Y4828286D01*
X3927551Y4825136D01*
X3924706Y4822901D01*
X3917543Y4819142D01*
X3905910Y4811064D01*
X3895445Y4801514D01*
X3886250Y4790744D01*
X3878478Y4778857D01*
X3872331Y4766056D01*
X3867861Y4752594D01*
X3865168Y4738674D01*
X3864254Y4724552D01*
X3865168Y4710430D01*
X3867861Y4696510D01*
X3872331Y4683048D01*
X3878478Y4670247D01*
X3886250Y4658360D01*
X3895445Y4647590D01*
X3905910Y4638040D01*
X3917543Y4629962D01*
X3930091Y4623409D01*
X3943400Y4618482D01*
X3957218Y4615332D01*
G37*
G36*
X1205128Y4640732D02*
G01*
X1221384Y4641646D01*
X1237488Y4644390D01*
X1253185Y4648911D01*
X1268272Y4655159D01*
X1282598Y4663084D01*
X1295908Y4672533D01*
X1308100Y4683404D01*
X1318971Y4695596D01*
X1328420Y4708906D01*
X1336294Y4723180D01*
X1342593Y4738268D01*
X1347114Y4753965D01*
X1349806Y4770069D01*
X1350721Y4786376D01*
X1349806Y4802682D01*
X1347114Y4818786D01*
X1342593Y4834483D01*
X1336294Y4849571D01*
X1328420Y4863846D01*
X1318971Y4877155D01*
X1308100Y4889347D01*
X1295908Y4900218D01*
X1282598Y4909667D01*
X1268272Y4917592D01*
X1253185Y4923840D01*
X1237488Y4928362D01*
X1221384Y4931105D01*
X1205128Y4932019D01*
X1188821Y4931105D01*
X1172718Y4928362D01*
X1157020Y4923840D01*
X1141933Y4917592D01*
X1127607Y4909667D01*
X1114298Y4900218D01*
X1102106Y4889347D01*
X1091234Y4877155D01*
X1081786Y4863846D01*
X1073912Y4849571D01*
X1067612Y4834483D01*
X1063091Y4818786D01*
X1060399Y4802682D01*
X1059484Y4786376D01*
X1060399Y4770069D01*
X1063091Y4753965D01*
X1067612Y4738268D01*
X1073912Y4723180D01*
X1081786Y4708906D01*
X1091234Y4695596D01*
X1102106Y4683404D01*
X1114298Y4672533D01*
X1127607Y4663084D01*
X1141933Y4655159D01*
X1157020Y4648911D01*
X1172718Y4644390D01*
X1188821Y4641646D01*
G37*
G36*
X10204450Y4692650D02*
G01*
X10265410Y4692650D01*
X10260330Y4703368D01*
X10252659Y4715510D01*
X10243464Y4726584D01*
X10232999Y4736439D01*
X10221366Y4744923D01*
X10208768Y4751832D01*
X10204450Y4753559D01*
G37*
G36*
X7121296Y4775047D02*
G01*
X7134910Y4775504D01*
X7148322Y4777740D01*
X7161275Y4781753D01*
X7173620Y4787493D01*
X7185101Y4794808D01*
X7195515Y4803597D01*
X7204608Y4813706D01*
X7212330Y4824882D01*
X7218425Y4837023D01*
X7222896Y4849876D01*
X7225639Y4863236D01*
X7226553Y4876800D01*
X7225639Y4890363D01*
X7222896Y4903724D01*
X7218425Y4916576D01*
X7212330Y4928717D01*
X7204608Y4939893D01*
X7195515Y4950002D01*
X7185101Y4958791D01*
X7173620Y4966106D01*
X7161275Y4971846D01*
X7148322Y4975860D01*
X7134910Y4978095D01*
X7121296Y4978552D01*
X7107783Y4977231D01*
X7094524Y4974082D01*
X7081824Y4969154D01*
X7069886Y4962652D01*
X7058964Y4954574D01*
X7049160Y4945126D01*
X7040727Y4934407D01*
X7033818Y4922723D01*
X7028484Y4910226D01*
X7024928Y4897069D01*
X7023100Y4883607D01*
X7023100Y4869992D01*
X7024928Y4856530D01*
X7028484Y4843373D01*
X7033818Y4830876D01*
X7040727Y4819192D01*
X7049160Y4808474D01*
X7058964Y4799025D01*
X7069886Y4790948D01*
X7081824Y4784445D01*
X7094524Y4779518D01*
X7107783Y4776368D01*
G37*
G36*
X4835296Y4775047D02*
G01*
X4848910Y4775504D01*
X4862322Y4777740D01*
X4875276Y4781753D01*
X4887620Y4787493D01*
X4899101Y4794808D01*
X4909515Y4803597D01*
X4918608Y4813706D01*
X4926330Y4824882D01*
X4932426Y4837023D01*
X4936896Y4849876D01*
X4939639Y4863236D01*
X4940554Y4876800D01*
X4939639Y4890363D01*
X4936896Y4903724D01*
X4932426Y4916576D01*
X4926330Y4928717D01*
X4918608Y4939893D01*
X4909515Y4950002D01*
X4899101Y4958791D01*
X4887620Y4966106D01*
X4875276Y4971846D01*
X4862322Y4975860D01*
X4848910Y4978095D01*
X4835296Y4978552D01*
X4821783Y4977231D01*
X4808524Y4974082D01*
X4795824Y4969154D01*
X4783886Y4962652D01*
X4772964Y4954574D01*
X4763160Y4945126D01*
X4754727Y4934407D01*
X4747818Y4922723D01*
X4742484Y4910226D01*
X4738928Y4897069D01*
X4737100Y4883607D01*
X4737100Y4869992D01*
X4738928Y4856530D01*
X4742484Y4843373D01*
X4747818Y4830876D01*
X4754727Y4819192D01*
X4763160Y4808474D01*
X4772964Y4799025D01*
X4783886Y4790948D01*
X4795824Y4784445D01*
X4808524Y4779518D01*
X4821783Y4776368D01*
G37*
G36*
X7121296Y5029047D02*
G01*
X7134910Y5029504D01*
X7148322Y5031740D01*
X7161275Y5035753D01*
X7173620Y5041493D01*
X7185101Y5048808D01*
X7195515Y5057597D01*
X7204608Y5067706D01*
X7212330Y5078882D01*
X7218425Y5091023D01*
X7222896Y5103876D01*
X7225639Y5117236D01*
X7226553Y5130800D01*
X7225639Y5144363D01*
X7222896Y5157724D01*
X7218425Y5170576D01*
X7212330Y5182717D01*
X7204608Y5193893D01*
X7195515Y5204002D01*
X7185101Y5212791D01*
X7173620Y5220106D01*
X7161275Y5225846D01*
X7148322Y5229860D01*
X7134910Y5232095D01*
X7121296Y5232552D01*
X7107783Y5231231D01*
X7094524Y5228082D01*
X7081824Y5223154D01*
X7069886Y5216652D01*
X7058964Y5208574D01*
X7049160Y5199126D01*
X7040727Y5188407D01*
X7033818Y5176723D01*
X7028484Y5164226D01*
X7024928Y5151069D01*
X7023100Y5137607D01*
X7023100Y5123992D01*
X7024928Y5110530D01*
X7028484Y5097373D01*
X7033818Y5084876D01*
X7040727Y5073192D01*
X7049160Y5062474D01*
X7058964Y5053025D01*
X7069886Y5044948D01*
X7081824Y5038445D01*
X7094524Y5033518D01*
X7107783Y5030368D01*
G37*
G36*
X4835296Y5029047D02*
G01*
X4848910Y5029504D01*
X4862322Y5031740D01*
X4875276Y5035753D01*
X4887620Y5041493D01*
X4899101Y5048808D01*
X4909515Y5057597D01*
X4918608Y5067706D01*
X4926330Y5078882D01*
X4932426Y5091023D01*
X4936896Y5103876D01*
X4939639Y5117236D01*
X4940554Y5130800D01*
X4939639Y5144363D01*
X4936896Y5157724D01*
X4932426Y5170576D01*
X4926330Y5182717D01*
X4918608Y5193893D01*
X4909515Y5204002D01*
X4899101Y5212791D01*
X4887620Y5220106D01*
X4875276Y5225846D01*
X4862322Y5229860D01*
X4848910Y5232095D01*
X4835296Y5232552D01*
X4821783Y5231231D01*
X4808524Y5228082D01*
X4795824Y5223154D01*
X4783886Y5216652D01*
X4772964Y5208574D01*
X4763160Y5199126D01*
X4754727Y5188407D01*
X4747818Y5176723D01*
X4742484Y5164226D01*
X4738928Y5151069D01*
X4737100Y5137607D01*
X4737100Y5123992D01*
X4738928Y5110530D01*
X4742484Y5097373D01*
X4747818Y5084876D01*
X4754727Y5073192D01*
X4763160Y5062474D01*
X4772964Y5053025D01*
X4783886Y5044948D01*
X4795824Y5038445D01*
X4808524Y5033518D01*
X4821783Y5030368D01*
G37*
G36*
X4835296Y5283047D02*
G01*
X4848910Y5283504D01*
X4862322Y5285740D01*
X4875276Y5289753D01*
X4887620Y5295493D01*
X4899101Y5302808D01*
X4909515Y5311597D01*
X4918608Y5321706D01*
X4926330Y5332882D01*
X4932426Y5345023D01*
X4936896Y5357876D01*
X4939639Y5371236D01*
X4940554Y5384800D01*
X4939639Y5398363D01*
X4936896Y5411724D01*
X4932426Y5424576D01*
X4926330Y5436717D01*
X4918608Y5447893D01*
X4909515Y5458002D01*
X4899101Y5466791D01*
X4887620Y5474106D01*
X4875276Y5479846D01*
X4862322Y5483860D01*
X4848910Y5486095D01*
X4835296Y5486552D01*
X4821783Y5485231D01*
X4808524Y5482082D01*
X4795824Y5477154D01*
X4783886Y5470652D01*
X4772964Y5462574D01*
X4763160Y5453126D01*
X4754727Y5442407D01*
X4747818Y5430723D01*
X4742484Y5418226D01*
X4738928Y5405069D01*
X4737100Y5391607D01*
X4737100Y5377992D01*
X4738928Y5364530D01*
X4742484Y5351373D01*
X4747818Y5338876D01*
X4754727Y5327192D01*
X4763160Y5316474D01*
X4772964Y5307025D01*
X4783886Y5298948D01*
X4795824Y5292445D01*
X4808524Y5287518D01*
X4821783Y5284368D01*
G37*
G36*
X2656687Y5357672D02*
G01*
X2656230Y5359958D01*
X2656230Y5437530D01*
X2581757Y5437530D01*
X2581757Y5401919D01*
X2582519Y5393944D01*
X2584704Y5386730D01*
X2588260Y5380126D01*
X2593035Y5374335D01*
X2598826Y5369560D01*
X2605430Y5366004D01*
X2612644Y5363819D01*
X2620619Y5363057D01*
X2647899Y5363057D01*
X2651760Y5362295D01*
X2655062Y5360111D01*
G37*
G36*
X2753563Y5357926D02*
G01*
X2754172Y5359247D01*
X2757728Y5362041D01*
X2762097Y5363057D01*
X2789580Y5363057D01*
X2797556Y5363819D01*
X2804769Y5366004D01*
X2811373Y5369560D01*
X2817164Y5374335D01*
X2821940Y5380126D01*
X2825496Y5386730D01*
X2827680Y5393944D01*
X2828442Y5401919D01*
X2828442Y5437530D01*
X2753969Y5437530D01*
X2753969Y5360060D01*
G37*
G36*
X9463582Y5379669D02*
G01*
X9506762Y5379669D01*
X9506762Y5461660D01*
X9424771Y5461660D01*
X9424771Y5418480D01*
X9425533Y5410504D01*
X9427718Y5403342D01*
X9431274Y5396738D01*
X9435998Y5390896D01*
X9441840Y5386171D01*
X9448444Y5382615D01*
X9455607Y5380431D01*
G37*
G36*
X9619437Y5379669D02*
G01*
X9662617Y5379669D01*
X9670592Y5380431D01*
X9677755Y5382615D01*
X9684359Y5386171D01*
X9690201Y5390896D01*
X9694926Y5396738D01*
X9698482Y5403342D01*
X9700666Y5410504D01*
X9701479Y5418480D01*
X9701479Y5461660D01*
X9619437Y5461660D01*
G37*
G36*
X4763008Y5524246D02*
G01*
X4914392Y5524246D01*
X4922367Y5525008D01*
X4929581Y5527192D01*
X4936185Y5530748D01*
X4941976Y5535523D01*
X4946751Y5541314D01*
X4950307Y5547918D01*
X4952492Y5555132D01*
X4953254Y5563108D01*
X4953254Y5714492D01*
X4952492Y5722467D01*
X4950307Y5729681D01*
X4946751Y5736285D01*
X4941976Y5742076D01*
X4936185Y5746851D01*
X4929581Y5750407D01*
X4922367Y5752592D01*
X4914392Y5753354D01*
X4763008Y5753354D01*
X4755032Y5752592D01*
X4747818Y5750407D01*
X4741214Y5746851D01*
X4735423Y5742076D01*
X4730648Y5736285D01*
X4727092Y5729681D01*
X4724908Y5722467D01*
X4724146Y5714492D01*
X4724146Y5563108D01*
X4724908Y5555132D01*
X4727092Y5547918D01*
X4730648Y5541314D01*
X4735423Y5535523D01*
X4741214Y5530748D01*
X4747818Y5527192D01*
X4755032Y5525008D01*
G37*
G36*
X7080250Y5533440D02*
G01*
X7080250Y5594350D01*
X7019290Y5594350D01*
X7024319Y5583631D01*
X7032040Y5571490D01*
X7041184Y5560415D01*
X7051700Y5550560D01*
X7063333Y5542076D01*
X7075931Y5535168D01*
G37*
G36*
X2753969Y5535269D02*
G01*
X2828442Y5535269D01*
X2828442Y5570880D01*
X2827680Y5578856D01*
X2825496Y5586069D01*
X2821940Y5592673D01*
X2817164Y5598464D01*
X2811373Y5603240D01*
X2804769Y5606796D01*
X2797556Y5608980D01*
X2789580Y5609742D01*
X2753969Y5609742D01*
G37*
G36*
X2581757Y5535269D02*
G01*
X2656230Y5535269D01*
X2656230Y5609742D01*
X2620619Y5609742D01*
X2612644Y5608980D01*
X2605430Y5606796D01*
X2598826Y5603240D01*
X2593035Y5598464D01*
X2588260Y5592673D01*
X2584704Y5586069D01*
X2582519Y5578856D01*
X2581757Y5570880D01*
G37*
G36*
X9424771Y5574334D02*
G01*
X9506762Y5574334D01*
X9506762Y5656376D01*
X9463582Y5656376D01*
X9455607Y5655564D01*
X9448444Y5653379D01*
X9441840Y5649874D01*
X9435998Y5645099D01*
X9431274Y5639257D01*
X9427718Y5632653D01*
X9425533Y5625490D01*
X9424771Y5617514D01*
G37*
G36*
X9619437Y5574334D02*
G01*
X9701479Y5574334D01*
X9701479Y5617514D01*
X9700666Y5625490D01*
X9698482Y5632653D01*
X9694926Y5639257D01*
X9690201Y5645099D01*
X9684359Y5649874D01*
X9677755Y5653379D01*
X9670592Y5655564D01*
X9662617Y5656376D01*
X9619437Y5656376D01*
G37*
G36*
X7019290Y5683250D02*
G01*
X7080250Y5683250D01*
X7080250Y5744159D01*
X7075931Y5742432D01*
X7063333Y5735523D01*
X7051700Y5727039D01*
X7041184Y5717184D01*
X7032040Y5706110D01*
X7024319Y5693968D01*
G37*
G36*
X7169150Y5683250D02*
G01*
X7230109Y5683250D01*
X7225080Y5693968D01*
X7217359Y5706110D01*
X7208215Y5717184D01*
X7197699Y5727039D01*
X7186066Y5735523D01*
X7173468Y5742432D01*
X7169150Y5744159D01*
G37*
G36*
X1205128Y5840730D02*
G01*
X1221384Y5841644D01*
X1237488Y5844387D01*
X1253185Y5848908D01*
X1268272Y5855157D01*
X1282598Y5863082D01*
X1295908Y5872530D01*
X1308100Y5883402D01*
X1318971Y5895594D01*
X1328420Y5908903D01*
X1336294Y5923178D01*
X1342593Y5938266D01*
X1347114Y5953963D01*
X1349806Y5970066D01*
X1350721Y5986373D01*
X1349806Y6002680D01*
X1347114Y6018784D01*
X1342593Y6034481D01*
X1336294Y6049568D01*
X1328420Y6063843D01*
X1318971Y6077153D01*
X1308100Y6089345D01*
X1295908Y6100216D01*
X1282598Y6109665D01*
X1268272Y6117590D01*
X1253185Y6123838D01*
X1237488Y6128359D01*
X1221384Y6131102D01*
X1205128Y6132017D01*
X1188821Y6131102D01*
X1172718Y6128359D01*
X1157020Y6123838D01*
X1141933Y6117590D01*
X1127607Y6109665D01*
X1114298Y6100216D01*
X1102106Y6089345D01*
X1091234Y6077153D01*
X1081786Y6063843D01*
X1073912Y6049568D01*
X1067612Y6034481D01*
X1063091Y6018784D01*
X1060399Y6002680D01*
X1059484Y5986373D01*
X1060399Y5970066D01*
X1063091Y5953963D01*
X1067612Y5938266D01*
X1073912Y5923178D01*
X1081786Y5908903D01*
X1091234Y5895594D01*
X1102106Y5883402D01*
X1114298Y5872530D01*
X1127607Y5863082D01*
X1141933Y5855157D01*
X1157020Y5848908D01*
X1172718Y5844387D01*
X1188821Y5841644D01*
G37*
G36*
X3604006Y5954979D02*
G01*
X3619449Y5955893D01*
X3634689Y5958687D01*
X3649522Y5963310D01*
X3663645Y5969660D01*
X3676904Y5977686D01*
X3689096Y5987237D01*
X3700068Y5998210D01*
X3709619Y6010402D01*
X3717645Y6023660D01*
X3723995Y6037783D01*
X3728618Y6052566D01*
X3731412Y6067806D01*
X3732326Y6083300D01*
X3731412Y6098794D01*
X3728618Y6114034D01*
X3723995Y6128816D01*
X3717645Y6142939D01*
X3709619Y6156198D01*
X3700068Y6168390D01*
X3689096Y6179362D01*
X3676904Y6188913D01*
X3663645Y6196939D01*
X3649522Y6203289D01*
X3634689Y6207912D01*
X3619449Y6210706D01*
X3604006Y6211620D01*
X3588512Y6210706D01*
X3573272Y6207912D01*
X3558489Y6203289D01*
X3544366Y6196939D01*
X3531108Y6188913D01*
X3518915Y6179362D01*
X3507943Y6168390D01*
X3498392Y6156198D01*
X3490366Y6142939D01*
X3484016Y6128816D01*
X3479393Y6114034D01*
X3476599Y6098794D01*
X3475685Y6083300D01*
X3476599Y6067806D01*
X3479393Y6052566D01*
X3484016Y6037783D01*
X3490366Y6023660D01*
X3498392Y6010402D01*
X3507943Y5998210D01*
X3518915Y5987237D01*
X3531108Y5977686D01*
X3544366Y5969660D01*
X3558489Y5963310D01*
X3573272Y5958687D01*
X3588512Y5955893D01*
G37*
G36*
X4523994Y5954979D02*
G01*
X4539488Y5955893D01*
X4554728Y5958687D01*
X4569510Y5963310D01*
X4583633Y5969660D01*
X4596892Y5977686D01*
X4609084Y5987237D01*
X4620056Y5998210D01*
X4629607Y6010402D01*
X4637633Y6023660D01*
X4643983Y6037783D01*
X4648606Y6052566D01*
X4651400Y6067806D01*
X4652314Y6083300D01*
X4651400Y6098794D01*
X4648606Y6114034D01*
X4643983Y6128816D01*
X4637633Y6142939D01*
X4629607Y6156198D01*
X4620056Y6168390D01*
X4609084Y6179362D01*
X4596892Y6188913D01*
X4583633Y6196939D01*
X4569510Y6203289D01*
X4554728Y6207912D01*
X4539488Y6210706D01*
X4523994Y6211620D01*
X4508550Y6210706D01*
X4493310Y6207912D01*
X4478477Y6203289D01*
X4464354Y6196939D01*
X4451096Y6188913D01*
X4438904Y6179362D01*
X4427931Y6168390D01*
X4418380Y6156198D01*
X4410354Y6142939D01*
X4404004Y6128816D01*
X4399381Y6114034D01*
X4396587Y6098794D01*
X4395673Y6083300D01*
X4396587Y6067806D01*
X4399381Y6052566D01*
X4404004Y6037783D01*
X4410354Y6023660D01*
X4418380Y6010402D01*
X4427931Y5998210D01*
X4438904Y5987237D01*
X4451096Y5977686D01*
X4464354Y5969660D01*
X4478477Y5963310D01*
X4493310Y5958687D01*
X4508550Y5955893D01*
G37*
G36*
X2598826Y5958535D02*
G01*
X2617571Y5958992D01*
X2636215Y5961329D01*
X2654503Y5965494D01*
X2672334Y5971489D01*
X2689402Y5979210D01*
X2705658Y5988608D01*
X2720949Y5999530D01*
X2735021Y6011976D01*
X2747772Y6025743D01*
X2759100Y6040678D01*
X2768904Y6056731D01*
X2777032Y6073648D01*
X2783484Y6091275D01*
X2788107Y6109462D01*
X2790901Y6128054D01*
X2791866Y6146800D01*
X2790901Y6165545D01*
X2788107Y6184138D01*
X2783484Y6202324D01*
X2777032Y6219952D01*
X2768904Y6236868D01*
X2759100Y6252921D01*
X2747772Y6267856D01*
X2735021Y6281623D01*
X2720949Y6294069D01*
X2705658Y6304991D01*
X2689402Y6314389D01*
X2672334Y6322110D01*
X2654503Y6328105D01*
X2636215Y6332270D01*
X2617571Y6334607D01*
X2598826Y6335064D01*
X2580081Y6333693D01*
X2561590Y6330442D01*
X2543505Y6325311D01*
X2526030Y6318453D01*
X2509316Y6309918D01*
X2493568Y6299708D01*
X2478887Y6288024D01*
X2465425Y6274917D01*
X2453386Y6260541D01*
X2442768Y6244996D01*
X2433828Y6228537D01*
X2426512Y6211214D01*
X2420975Y6193282D01*
X2417267Y6174892D01*
X2415387Y6156198D01*
X2415387Y6137402D01*
X2417267Y6118707D01*
X2420975Y6100318D01*
X2426512Y6082385D01*
X2433828Y6065062D01*
X2442768Y6048603D01*
X2453386Y6033058D01*
X2465425Y6018682D01*
X2478887Y6005576D01*
X2493568Y5993892D01*
X2509316Y5983681D01*
X2526030Y5975146D01*
X2543505Y5968288D01*
X2561590Y5963158D01*
X2580081Y5959906D01*
G37*
G36*
X3192830Y5977128D02*
G01*
X3197402Y5979210D01*
X3213658Y5988608D01*
X3228949Y5999530D01*
X3243021Y6011976D01*
X3255772Y6025743D01*
X3267100Y6040678D01*
X3276904Y6056731D01*
X3281121Y6065469D01*
X3192830Y6065469D01*
G37*
G36*
X3030169Y5977128D02*
G01*
X3030169Y6065469D01*
X2941675Y6065469D01*
X2950768Y6048603D01*
X2961386Y6033058D01*
X2973425Y6018682D01*
X2986887Y6005576D01*
X3001568Y5993892D01*
X3017316Y5983681D01*
G37*
G36*
X7609382Y6192469D02*
G01*
X7808417Y6192469D01*
X7816392Y6193231D01*
X7823555Y6195415D01*
X7830159Y6198971D01*
X7836001Y6203696D01*
X7840725Y6209538D01*
X7844281Y6216142D01*
X7846466Y6223304D01*
X7847279Y6231280D01*
X7847279Y6430314D01*
X7846466Y6438290D01*
X7844281Y6445453D01*
X7840725Y6452057D01*
X7836001Y6457899D01*
X7830159Y6462674D01*
X7823555Y6466179D01*
X7816392Y6468364D01*
X7808417Y6469176D01*
X7609382Y6469176D01*
X7601407Y6468364D01*
X7594244Y6466179D01*
X7587640Y6462674D01*
X7581798Y6457899D01*
X7577074Y6452057D01*
X7573518Y6445453D01*
X7571333Y6438290D01*
X7570571Y6430314D01*
X7570571Y6231280D01*
X7571333Y6223304D01*
X7573518Y6216142D01*
X7577074Y6209538D01*
X7581798Y6203696D01*
X7587640Y6198971D01*
X7594244Y6195415D01*
X7601407Y6193231D01*
G37*
G36*
X3192830Y6228130D02*
G01*
X3281121Y6228130D01*
X3276904Y6236868D01*
X3267100Y6252921D01*
X3255772Y6267856D01*
X3243021Y6281623D01*
X3228949Y6294069D01*
X3213658Y6304991D01*
X3197402Y6314389D01*
X3192830Y6316472D01*
G37*
G36*
X2941675Y6228130D02*
G01*
X3030169Y6228130D01*
X3030169Y6316472D01*
X3017316Y6309918D01*
X3001568Y6299708D01*
X2986887Y6288024D01*
X2973425Y6274917D01*
X2961386Y6260541D01*
X2950768Y6244996D01*
G37*
G36*
X1261821Y6257036D02*
G01*
X1279855Y6258407D01*
X1297635Y6261658D01*
X1315008Y6266688D01*
X1331772Y6273546D01*
X1347724Y6282029D01*
X1362710Y6292138D01*
X1376629Y6303721D01*
X1389227Y6316675D01*
X1400454Y6330848D01*
X1410157Y6346088D01*
X1418234Y6362242D01*
X1424635Y6379210D01*
X1429207Y6396685D01*
X1432001Y6414516D01*
X1432915Y6432600D01*
X1432001Y6450634D01*
X1429207Y6468516D01*
X1424635Y6485991D01*
X1418234Y6502958D01*
X1410157Y6519113D01*
X1400454Y6534353D01*
X1389227Y6548526D01*
X1376629Y6561480D01*
X1362710Y6573062D01*
X1347724Y6583172D01*
X1331772Y6591655D01*
X1315008Y6598513D01*
X1297635Y6603542D01*
X1279855Y6606794D01*
X1261821Y6608165D01*
X1243736Y6607708D01*
X1225804Y6605371D01*
X1208227Y6601256D01*
X1191107Y6595313D01*
X1174750Y6587642D01*
X1159256Y6578346D01*
X1144778Y6567474D01*
X1131519Y6555181D01*
X1119581Y6541617D01*
X1109116Y6526885D01*
X1100175Y6511137D01*
X1092962Y6494576D01*
X1087475Y6477355D01*
X1083767Y6459626D01*
X1081887Y6441643D01*
X1081887Y6423558D01*
X1083767Y6405575D01*
X1087475Y6387846D01*
X1092962Y6370624D01*
X1100175Y6354064D01*
X1109116Y6338316D01*
X1119581Y6323584D01*
X1131519Y6310020D01*
X1144778Y6297726D01*
X1159256Y6286855D01*
X1174750Y6277559D01*
X1191107Y6269888D01*
X1208227Y6263944D01*
X1225804Y6259830D01*
X1243736Y6257493D01*
G37*
G36*
X10261854Y6257036D02*
G01*
X10279837Y6258407D01*
X10297668Y6261658D01*
X10314990Y6266688D01*
X10331754Y6273546D01*
X10347706Y6282029D01*
X10362742Y6292138D01*
X10376611Y6303721D01*
X10389260Y6316675D01*
X10400436Y6330848D01*
X10410190Y6346088D01*
X10418267Y6362242D01*
X10424617Y6379210D01*
X10429240Y6396685D01*
X10432034Y6414516D01*
X10432948Y6432600D01*
X10432034Y6450634D01*
X10429240Y6468516D01*
X10424617Y6485991D01*
X10418267Y6502958D01*
X10410190Y6519113D01*
X10400436Y6534353D01*
X10389260Y6548526D01*
X10376611Y6561480D01*
X10362742Y6573062D01*
X10347706Y6583172D01*
X10331754Y6591655D01*
X10314990Y6598513D01*
X10297668Y6603542D01*
X10279837Y6606794D01*
X10261854Y6608165D01*
X10243769Y6607708D01*
X10225836Y6605371D01*
X10208209Y6601256D01*
X10191140Y6595313D01*
X10174782Y6587642D01*
X10159238Y6578346D01*
X10144810Y6567474D01*
X10131501Y6555181D01*
X10119563Y6541617D01*
X10109098Y6526885D01*
X10100208Y6511137D01*
X10092944Y6494576D01*
X10087457Y6477355D01*
X10083749Y6459626D01*
X10081920Y6441643D01*
X10081920Y6423558D01*
X10083749Y6405575D01*
X10087457Y6387846D01*
X10092944Y6370624D01*
X10100208Y6354064D01*
X10109098Y6338316D01*
X10119563Y6323584D01*
X10131501Y6310020D01*
X10144810Y6297726D01*
X10159238Y6286855D01*
X10174782Y6277559D01*
X10191140Y6269888D01*
X10208209Y6263944D01*
X10225836Y6259830D01*
X10243769Y6257493D01*
G37*

%LPD*%
G36*
X8403539Y1935988D02*
G01*
X8399678Y1936750D01*
X8396376Y1938985D01*
X8336838Y1998522D01*
X8334908Y2001164D01*
X8333943Y2004263D01*
X8333994Y2007514D01*
X8335568Y2016353D01*
X8336534Y2032000D01*
X8335568Y2047646D01*
X8332825Y2063089D01*
X8328253Y2078075D01*
X8321903Y2092401D01*
X8313928Y2105914D01*
X8304428Y2118360D01*
X8293506Y2129637D01*
X8281314Y2139492D01*
X8268106Y2147874D01*
X8253933Y2154631D01*
X8239099Y2159660D01*
X8223758Y2162860D01*
X8208111Y2164283D01*
X8192465Y2163775D01*
X8176971Y2161489D01*
X8161832Y2157323D01*
X8147303Y2151430D01*
X8133588Y2143861D01*
X8120837Y2134768D01*
X8109254Y2124151D01*
X8099044Y2112264D01*
X8090255Y2099310D01*
X8083092Y2085339D01*
X8079994Y2076957D01*
X8077911Y2073605D01*
X8074710Y2071268D01*
X8070850Y2070354D01*
X8066938Y2070963D01*
X8063585Y2073046D01*
X8061248Y2076246D01*
X8055559Y2088591D01*
X8047837Y2101088D01*
X8038592Y2112568D01*
X8028025Y2122830D01*
X8016290Y2131720D01*
X8003540Y2139086D01*
X7989976Y2144826D01*
X7975193Y2148992D01*
X7971332Y2151075D01*
X7968742Y2154529D01*
X7967827Y2159203D01*
X7968742Y2163470D01*
X7971332Y2166924D01*
X7975193Y2169007D01*
X7989976Y2173173D01*
X8003540Y2178913D01*
X8016290Y2186279D01*
X8028025Y2195169D01*
X8038592Y2205431D01*
X8047837Y2216912D01*
X8055559Y2229408D01*
X8061756Y2242769D01*
X8066227Y2256840D01*
X8068919Y2271318D01*
X8069834Y2286000D01*
X8068919Y2300681D01*
X8066227Y2315159D01*
X8061756Y2329230D01*
X8055559Y2342591D01*
X8047837Y2355088D01*
X8038592Y2366568D01*
X8028025Y2376830D01*
X8016290Y2385720D01*
X8003540Y2393086D01*
X7989976Y2398826D01*
X7975193Y2402992D01*
X7971332Y2405075D01*
X7968742Y2408529D01*
X7967827Y2413203D01*
X7968742Y2417470D01*
X7971332Y2420924D01*
X7975193Y2423007D01*
X7989976Y2427173D01*
X8003540Y2432913D01*
X8016290Y2440279D01*
X8028025Y2449169D01*
X8038592Y2459431D01*
X8047837Y2470912D01*
X8055559Y2483408D01*
X8061756Y2496769D01*
X8066227Y2510840D01*
X8068919Y2525318D01*
X8069834Y2540000D01*
X8068919Y2554681D01*
X8066227Y2569159D01*
X8061756Y2583230D01*
X8055559Y2596591D01*
X8047837Y2609088D01*
X8038592Y2620568D01*
X8028025Y2630830D01*
X8016290Y2639720D01*
X8003540Y2647086D01*
X7989976Y2652826D01*
X7975193Y2656992D01*
X7971332Y2659075D01*
X7968742Y2662529D01*
X7967827Y2667203D01*
X7968742Y2671470D01*
X7971332Y2674924D01*
X7975193Y2677007D01*
X7989976Y2681173D01*
X8003540Y2686913D01*
X8016290Y2694279D01*
X8028025Y2703169D01*
X8038592Y2713431D01*
X8047837Y2724912D01*
X8055559Y2737408D01*
X8061756Y2750769D01*
X8066227Y2764840D01*
X8068919Y2779318D01*
X8069834Y2794000D01*
X8068919Y2808681D01*
X8066227Y2823159D01*
X8061756Y2837230D01*
X8055559Y2850591D01*
X8047837Y2863088D01*
X8038592Y2874568D01*
X8028025Y2884830D01*
X8016290Y2893720D01*
X8003540Y2901086D01*
X7989976Y2906826D01*
X7975193Y2910992D01*
X7971332Y2913075D01*
X7968742Y2916529D01*
X7967827Y2921203D01*
X7968742Y2925470D01*
X7971332Y2928924D01*
X7975193Y2931007D01*
X7989976Y2935173D01*
X8003540Y2940913D01*
X8016290Y2948279D01*
X8028025Y2957169D01*
X8038592Y2967431D01*
X8047837Y2978912D01*
X8055559Y2991408D01*
X8061756Y3004769D01*
X8066227Y3018840D01*
X8068919Y3033318D01*
X8069834Y3048000D01*
X8068919Y3062681D01*
X8066227Y3077159D01*
X8061756Y3091230D01*
X8055559Y3104591D01*
X8047837Y3117088D01*
X8038592Y3128568D01*
X8028025Y3138830D01*
X8016290Y3147720D01*
X8003540Y3155086D01*
X7989976Y3160826D01*
X7975193Y3164992D01*
X7971332Y3167075D01*
X7968742Y3170529D01*
X7967827Y3175203D01*
X7968742Y3179470D01*
X7971332Y3182924D01*
X7975193Y3185007D01*
X7989976Y3189173D01*
X8003540Y3194913D01*
X8016290Y3202279D01*
X8028025Y3211169D01*
X8038592Y3221431D01*
X8047837Y3232912D01*
X8055559Y3245408D01*
X8061756Y3258769D01*
X8066227Y3272840D01*
X8068919Y3287318D01*
X8069834Y3302000D01*
X8068919Y3316681D01*
X8066227Y3331159D01*
X8061756Y3345230D01*
X8055559Y3358591D01*
X8047837Y3371087D01*
X8038592Y3382568D01*
X8028025Y3392830D01*
X8016290Y3401720D01*
X8003540Y3409086D01*
X7989976Y3414826D01*
X7975193Y3418992D01*
X7971332Y3421075D01*
X7968742Y3424529D01*
X7967827Y3429203D01*
X7968742Y3433470D01*
X7971332Y3436924D01*
X7975193Y3439007D01*
X7989976Y3443173D01*
X8003540Y3448913D01*
X8016290Y3456279D01*
X8028025Y3465169D01*
X8038592Y3475431D01*
X8047837Y3486912D01*
X8055559Y3499408D01*
X8061756Y3512769D01*
X8066227Y3526840D01*
X8068919Y3541318D01*
X8069834Y3556000D01*
X8068919Y3570681D01*
X8066227Y3585159D01*
X8061756Y3599230D01*
X8055559Y3612591D01*
X8047837Y3625087D01*
X8038592Y3636568D01*
X8028025Y3646830D01*
X8016290Y3655720D01*
X8003540Y3663086D01*
X7989976Y3668826D01*
X7975193Y3672992D01*
X7971332Y3675075D01*
X7968742Y3678529D01*
X7967827Y3683203D01*
X7968742Y3687470D01*
X7971332Y3690924D01*
X7975193Y3693007D01*
X7989976Y3697173D01*
X8003540Y3702913D01*
X8016290Y3710279D01*
X8028025Y3719169D01*
X8038592Y3729431D01*
X8047837Y3740912D01*
X8055559Y3753408D01*
X8061756Y3766769D01*
X8066227Y3780840D01*
X8068919Y3795318D01*
X8069834Y3810000D01*
X8068919Y3824681D01*
X8066227Y3839159D01*
X8061756Y3853230D01*
X8055559Y3866591D01*
X8047837Y3879087D01*
X8038592Y3890568D01*
X8028025Y3900830D01*
X8016290Y3909720D01*
X8003540Y3917086D01*
X7994599Y3920845D01*
X7992262Y3922471D01*
X7990586Y3922623D01*
X7975803Y3926840D01*
X7961223Y3929126D01*
X7946491Y3929583D01*
X7931861Y3928211D01*
X7917484Y3925062D01*
X7910372Y3922572D01*
X7907426Y3922115D01*
X7890408Y3913581D01*
X7878114Y3905453D01*
X7866938Y3895851D01*
X7857032Y3884980D01*
X7848498Y3872992D01*
X7841538Y3859987D01*
X7836204Y3846271D01*
X7832598Y3831996D01*
X7830820Y3817365D01*
X7830820Y3802634D01*
X7832598Y3788003D01*
X7836204Y3773728D01*
X7841538Y3760012D01*
X7848498Y3747008D01*
X7857032Y3735019D01*
X7866938Y3724148D01*
X7878114Y3714546D01*
X7890408Y3706418D01*
X7903565Y3699865D01*
X7917484Y3694937D01*
X7926730Y3692906D01*
X7930286Y3691382D01*
X7933029Y3688587D01*
X7934502Y3684930D01*
X7934502Y3681069D01*
X7933029Y3677412D01*
X7930286Y3674618D01*
X7926730Y3673094D01*
X7917484Y3671062D01*
X7903565Y3666134D01*
X7890408Y3659581D01*
X7878114Y3651453D01*
X7866938Y3641851D01*
X7857032Y3630980D01*
X7848498Y3618992D01*
X7841538Y3605987D01*
X7836204Y3592271D01*
X7832598Y3577996D01*
X7830820Y3563365D01*
X7830820Y3548634D01*
X7832598Y3534003D01*
X7836204Y3519728D01*
X7841538Y3506012D01*
X7848498Y3493008D01*
X7857032Y3481019D01*
X7866938Y3470148D01*
X7878114Y3460546D01*
X7890408Y3452418D01*
X7903565Y3445865D01*
X7917484Y3440937D01*
X7926730Y3438906D01*
X7930286Y3437382D01*
X7933029Y3434587D01*
X7934502Y3430930D01*
X7934502Y3427069D01*
X7933029Y3423412D01*
X7930286Y3420618D01*
X7926730Y3419094D01*
X7917484Y3417062D01*
X7903565Y3412134D01*
X7890408Y3405581D01*
X7878114Y3397453D01*
X7866938Y3387851D01*
X7857032Y3376980D01*
X7848498Y3364992D01*
X7841538Y3351987D01*
X7836204Y3338271D01*
X7832598Y3323996D01*
X7830820Y3309365D01*
X7830820Y3294634D01*
X7832598Y3280003D01*
X7836204Y3265728D01*
X7841538Y3252012D01*
X7848498Y3239008D01*
X7857032Y3227019D01*
X7866938Y3216148D01*
X7878114Y3206546D01*
X7890408Y3198418D01*
X7903565Y3191865D01*
X7917484Y3186938D01*
X7926730Y3184906D01*
X7930286Y3183382D01*
X7933029Y3180588D01*
X7934502Y3176930D01*
X7934502Y3173069D01*
X7933029Y3169412D01*
X7930286Y3166618D01*
X7926730Y3165094D01*
X7917484Y3163062D01*
X7903565Y3158134D01*
X7890408Y3151581D01*
X7878114Y3143453D01*
X7866938Y3133852D01*
X7857032Y3122980D01*
X7848498Y3110992D01*
X7841538Y3097987D01*
X7836204Y3084271D01*
X7832598Y3069996D01*
X7830820Y3055366D01*
X7830820Y3040634D01*
X7832598Y3026003D01*
X7836204Y3011728D01*
X7841538Y2998012D01*
X7848498Y2985008D01*
X7857032Y2973019D01*
X7866938Y2962148D01*
X7878114Y2952546D01*
X7890408Y2944418D01*
X7903565Y2937865D01*
X7917484Y2932938D01*
X7926730Y2930906D01*
X7930286Y2929382D01*
X7933029Y2926588D01*
X7934502Y2922930D01*
X7934502Y2919069D01*
X7933029Y2915412D01*
X7930286Y2912618D01*
X7926730Y2911094D01*
X7917484Y2909062D01*
X7903565Y2904134D01*
X7890408Y2897581D01*
X7878114Y2889453D01*
X7866938Y2879852D01*
X7857032Y2868980D01*
X7848498Y2856992D01*
X7841538Y2843987D01*
X7836204Y2830271D01*
X7832598Y2815996D01*
X7830820Y2801366D01*
X7830820Y2786634D01*
X7832598Y2772003D01*
X7836204Y2757728D01*
X7841538Y2744012D01*
X7848498Y2731008D01*
X7857032Y2719019D01*
X7866938Y2708148D01*
X7878114Y2698546D01*
X7890408Y2690418D01*
X7903565Y2683865D01*
X7917484Y2678938D01*
X7926730Y2676906D01*
X7930286Y2675382D01*
X7933029Y2672588D01*
X7934502Y2668930D01*
X7934502Y2665069D01*
X7933029Y2661412D01*
X7930286Y2658618D01*
X7926730Y2657094D01*
X7917484Y2655062D01*
X7903565Y2650134D01*
X7890408Y2643581D01*
X7878114Y2635453D01*
X7866938Y2625852D01*
X7857032Y2614980D01*
X7848498Y2602992D01*
X7841538Y2589987D01*
X7836204Y2576271D01*
X7832598Y2561996D01*
X7830820Y2547366D01*
X7830820Y2532634D01*
X7832598Y2518003D01*
X7836204Y2503728D01*
X7841538Y2490012D01*
X7848498Y2477008D01*
X7857032Y2465019D01*
X7866938Y2454148D01*
X7878114Y2444546D01*
X7890408Y2436418D01*
X7903565Y2429865D01*
X7917484Y2424938D01*
X7926730Y2422906D01*
X7930286Y2421382D01*
X7933029Y2418588D01*
X7934502Y2414930D01*
X7934502Y2411069D01*
X7933029Y2407412D01*
X7930286Y2404618D01*
X7926730Y2403094D01*
X7917484Y2401062D01*
X7903565Y2396134D01*
X7890408Y2389581D01*
X7878114Y2381453D01*
X7866938Y2371852D01*
X7857032Y2360980D01*
X7848498Y2348992D01*
X7841538Y2335987D01*
X7836204Y2322271D01*
X7832598Y2307996D01*
X7830820Y2293366D01*
X7830820Y2278634D01*
X7832598Y2264003D01*
X7836204Y2249728D01*
X7841538Y2236012D01*
X7846161Y2227376D01*
X7847330Y2223465D01*
X7846872Y2219350D01*
X7844790Y2215794D01*
X7841488Y2213356D01*
X7837525Y2212441D01*
X7833461Y2213152D01*
X7830007Y2215388D01*
X7782001Y2263444D01*
X7779766Y2266746D01*
X7779003Y2270607D01*
X7778953Y2452827D01*
X7777784Y2461310D01*
X7775143Y2469134D01*
X7771130Y2476347D01*
X7765592Y2483053D01*
X7213955Y3034639D01*
X7211669Y3038195D01*
X7211009Y3042361D01*
X7212075Y3046425D01*
X7218425Y3059023D01*
X7222896Y3071876D01*
X7225639Y3085236D01*
X7226553Y3098800D01*
X7225639Y3112363D01*
X7222896Y3125724D01*
X7218425Y3138576D01*
X7212330Y3150717D01*
X7204608Y3161893D01*
X7195515Y3172002D01*
X7185101Y3180791D01*
X7173620Y3188106D01*
X7161275Y3193846D01*
X7148322Y3197860D01*
X7134910Y3200095D01*
X7121296Y3200552D01*
X7107783Y3199231D01*
X7094524Y3196082D01*
X7081824Y3191154D01*
X7069886Y3184652D01*
X7058964Y3176574D01*
X7053529Y3171291D01*
X7050227Y3169158D01*
X7046366Y3168446D01*
X7042505Y3169259D01*
X7039254Y3171494D01*
X7037070Y3174746D01*
X7036308Y3178606D01*
X7036308Y3196996D01*
X7037070Y3200857D01*
X7039254Y3204159D01*
X7087412Y3252266D01*
X7090206Y3254248D01*
X7093508Y3255213D01*
X7096912Y3254959D01*
X7107783Y3252368D01*
X7121296Y3251047D01*
X7134910Y3251504D01*
X7148322Y3253740D01*
X7161275Y3257753D01*
X7173620Y3263493D01*
X7185101Y3270808D01*
X7195515Y3279597D01*
X7204608Y3289706D01*
X7212330Y3300882D01*
X7218425Y3313023D01*
X7222896Y3325876D01*
X7225639Y3339236D01*
X7226553Y3352800D01*
X7225639Y3366363D01*
X7222896Y3379724D01*
X7218425Y3392576D01*
X7212330Y3404717D01*
X7204608Y3415893D01*
X7199630Y3421379D01*
X7197598Y3424834D01*
X7197039Y3428796D01*
X7198055Y3432657D01*
X7200493Y3435858D01*
X7212177Y3442208D01*
X7218883Y3447745D01*
X7525766Y3754729D01*
X7530947Y3761587D01*
X7534656Y3768953D01*
X7536891Y3776878D01*
X7537703Y3785565D01*
X7537703Y3838092D01*
X7538466Y3841953D01*
X7540701Y3845255D01*
X7809788Y4114342D01*
X7813090Y4116578D01*
X7816951Y4117340D01*
X7896859Y4117340D01*
X7896859Y4195876D01*
X7897571Y4199636D01*
X7899704Y4202887D01*
X7902854Y4205122D01*
X7906562Y4205986D01*
X7910372Y4205427D01*
X7917484Y4202938D01*
X7931861Y4199788D01*
X7946491Y4198416D01*
X7961223Y4198874D01*
X7975803Y4201160D01*
X7990586Y4205376D01*
X7992262Y4205528D01*
X7994599Y4207154D01*
X8003540Y4210913D01*
X8016290Y4218279D01*
X8028025Y4227169D01*
X8038592Y4237431D01*
X8047837Y4248912D01*
X8055559Y4261408D01*
X8061756Y4274769D01*
X8066227Y4288840D01*
X8068919Y4303318D01*
X8069834Y4318000D01*
X8068919Y4332681D01*
X8066227Y4347159D01*
X8061756Y4361230D01*
X8055559Y4374591D01*
X8047837Y4387088D01*
X8038592Y4398568D01*
X8028025Y4408830D01*
X8016290Y4417720D01*
X8003540Y4425086D01*
X7989976Y4430826D01*
X7975193Y4434992D01*
X7971332Y4437075D01*
X7968742Y4440529D01*
X7967827Y4445203D01*
X7968742Y4449470D01*
X7971332Y4452924D01*
X7975193Y4455007D01*
X7989976Y4459173D01*
X8003540Y4464913D01*
X8016290Y4472279D01*
X8028025Y4481169D01*
X8038592Y4491431D01*
X8047837Y4502912D01*
X8055559Y4515408D01*
X8061756Y4528769D01*
X8066227Y4542840D01*
X8068919Y4557318D01*
X8069834Y4572000D01*
X8068919Y4586681D01*
X8066227Y4601159D01*
X8061756Y4615230D01*
X8055559Y4628591D01*
X8047837Y4641088D01*
X8038592Y4652568D01*
X8028025Y4662830D01*
X8016290Y4671720D01*
X8003540Y4679086D01*
X7989976Y4684826D01*
X7975193Y4688992D01*
X7971332Y4691075D01*
X7968742Y4694529D01*
X7967827Y4699203D01*
X7968742Y4703470D01*
X7971332Y4706924D01*
X7975193Y4709007D01*
X7989976Y4713173D01*
X8003540Y4718913D01*
X8016290Y4726279D01*
X8028025Y4735169D01*
X8038592Y4745431D01*
X8047837Y4756912D01*
X8055559Y4769408D01*
X8061756Y4782769D01*
X8066227Y4796840D01*
X8068919Y4811318D01*
X8069834Y4826000D01*
X8068919Y4840681D01*
X8066227Y4855159D01*
X8061756Y4869230D01*
X8055559Y4882591D01*
X8047837Y4895088D01*
X8038592Y4906568D01*
X8028025Y4916830D01*
X8016290Y4925720D01*
X8003540Y4933086D01*
X7989976Y4938826D01*
X7975803Y4942840D01*
X7961223Y4945126D01*
X7946491Y4945583D01*
X7931861Y4944211D01*
X7917484Y4941062D01*
X7903565Y4936134D01*
X7890408Y4929581D01*
X7878114Y4921453D01*
X7866938Y4911852D01*
X7857032Y4900980D01*
X7848498Y4888992D01*
X7841538Y4875987D01*
X7836204Y4862271D01*
X7832598Y4847996D01*
X7830820Y4833366D01*
X7830820Y4818634D01*
X7832598Y4804003D01*
X7836204Y4789728D01*
X7841538Y4776012D01*
X7848498Y4763008D01*
X7857032Y4751019D01*
X7866938Y4740148D01*
X7878114Y4730546D01*
X7890408Y4722418D01*
X7903565Y4715865D01*
X7917484Y4710938D01*
X7926730Y4708906D01*
X7930286Y4707382D01*
X7933029Y4704588D01*
X7934502Y4700930D01*
X7934502Y4697069D01*
X7933029Y4693412D01*
X7930286Y4690618D01*
X7926730Y4689094D01*
X7917484Y4687062D01*
X7903565Y4682134D01*
X7890408Y4675581D01*
X7878114Y4667453D01*
X7866938Y4657852D01*
X7857032Y4646980D01*
X7848498Y4634992D01*
X7841538Y4621987D01*
X7836204Y4608271D01*
X7832598Y4593996D01*
X7830820Y4579366D01*
X7830820Y4564634D01*
X7832598Y4550003D01*
X7836204Y4535728D01*
X7841538Y4522012D01*
X7848498Y4509008D01*
X7857032Y4497019D01*
X7866938Y4486148D01*
X7878114Y4476546D01*
X7890408Y4468418D01*
X7903565Y4461865D01*
X7917484Y4456938D01*
X7926730Y4454906D01*
X7930286Y4453382D01*
X7933029Y4450588D01*
X7934502Y4446930D01*
X7934502Y4443069D01*
X7933029Y4439412D01*
X7930286Y4436618D01*
X7926730Y4435094D01*
X7917484Y4433062D01*
X7903565Y4428134D01*
X7890408Y4421581D01*
X7878114Y4413453D01*
X7866938Y4403852D01*
X7857032Y4392980D01*
X7848498Y4380992D01*
X7841538Y4367987D01*
X7836204Y4354271D01*
X7832598Y4339996D01*
X7830820Y4325366D01*
X7830820Y4310634D01*
X7832598Y4296003D01*
X7836204Y4281728D01*
X7837881Y4277461D01*
X7838541Y4273651D01*
X7837779Y4269841D01*
X7835595Y4266590D01*
X7516926Y3947972D01*
X7513675Y3945788D01*
X7509764Y3944975D01*
X7505852Y3945788D01*
X7502601Y3947972D01*
X7500366Y3951274D01*
X7499603Y3955135D01*
X7499603Y5577992D01*
X7500366Y5581853D01*
X7502601Y5585155D01*
X7555026Y5637631D01*
X7558786Y5640019D01*
X7563205Y5640527D01*
X7567422Y5639155D01*
X7570673Y5636056D01*
X7572248Y5631942D01*
X7571943Y5627471D01*
X7571333Y5625490D01*
X7570571Y5617514D01*
X7570571Y5574334D01*
X7652562Y5574334D01*
X7652562Y5656376D01*
X7609382Y5656376D01*
X7601407Y5655564D01*
X7599425Y5654954D01*
X7595006Y5654649D01*
X7590840Y5656224D01*
X7587742Y5659475D01*
X7586370Y5663692D01*
X7586929Y5668111D01*
X7589266Y5671870D01*
X7635544Y5718098D01*
X7638846Y5720334D01*
X7642707Y5721096D01*
X7914792Y5721096D01*
X7918653Y5720334D01*
X7921955Y5718098D01*
X8931198Y4708855D01*
X8933434Y4705553D01*
X8934196Y4701692D01*
X8934196Y2906979D01*
X8933738Y2903931D01*
X8932367Y2901137D01*
X8930335Y2898241D01*
X8926169Y2889402D01*
X8923680Y2879953D01*
X8922816Y2870200D01*
X8923680Y2860446D01*
X8926169Y2850997D01*
X8930335Y2842158D01*
X8935923Y2834132D01*
X8942832Y2827223D01*
X8950858Y2821635D01*
X8959697Y2817469D01*
X8969146Y2814980D01*
X8978900Y2814116D01*
X8988653Y2814980D01*
X8998102Y2817469D01*
X9006941Y2821635D01*
X9014968Y2827223D01*
X9021876Y2834132D01*
X9027464Y2842158D01*
X9031630Y2850997D01*
X9034119Y2860446D01*
X9034983Y2870200D01*
X9034119Y2879953D01*
X9031630Y2889402D01*
X9027464Y2898241D01*
X9025432Y2901137D01*
X9024061Y2903931D01*
X9023604Y2906979D01*
X9023604Y4718964D01*
X9024366Y4722825D01*
X9026601Y4726127D01*
X9029852Y4728311D01*
X9033764Y4729124D01*
X9037675Y4728311D01*
X9040926Y4726127D01*
X9075978Y4691075D01*
X9078214Y4687773D01*
X9078976Y4683912D01*
X9079026Y2634792D01*
X9080195Y2626309D01*
X9082836Y2618486D01*
X9086850Y2611272D01*
X9092387Y2604566D01*
X9359595Y2337409D01*
X9361779Y2334158D01*
X9362541Y2330348D01*
X9361881Y2326538D01*
X9360204Y2322271D01*
X9356598Y2307996D01*
X9354820Y2293366D01*
X9354820Y2278634D01*
X9356598Y2264003D01*
X9360204Y2249728D01*
X9365538Y2236012D01*
X9372498Y2223008D01*
X9381032Y2211019D01*
X9390938Y2200148D01*
X9402114Y2190546D01*
X9414408Y2182418D01*
X9427565Y2175865D01*
X9441484Y2170938D01*
X9450730Y2168906D01*
X9454286Y2167382D01*
X9457029Y2164588D01*
X9458502Y2160930D01*
X9458502Y2157069D01*
X9457029Y2153412D01*
X9454286Y2150618D01*
X9450730Y2149094D01*
X9441484Y2147062D01*
X9427565Y2142134D01*
X9414408Y2135581D01*
X9402114Y2127453D01*
X9390938Y2117852D01*
X9381032Y2106980D01*
X9372498Y2094992D01*
X9365538Y2081987D01*
X9360204Y2068271D01*
X9356598Y2053996D01*
X9354820Y2039366D01*
X9354820Y2024634D01*
X9356598Y2010003D01*
X9360204Y1995728D01*
X9365538Y1982012D01*
X9372498Y1969007D01*
X9381032Y1957019D01*
X9384690Y1953006D01*
X9386671Y1949653D01*
X9387332Y1945843D01*
X9386468Y1942033D01*
X9384233Y1938832D01*
X9380982Y1936750D01*
X9377172Y1935988D01*
G37*

%LPC*%
G36*
X8003540Y3943096D02*
G01*
X8014106Y3948125D01*
X8027314Y3956507D01*
X8039506Y3966362D01*
X8050428Y3977640D01*
X8059928Y3990086D01*
X8067903Y4003598D01*
X8071053Y4010660D01*
X8003540Y4010660D01*
G37*
G36*
X7896859Y3943096D02*
G01*
X7896859Y4010660D01*
X7829092Y4010660D01*
X7836255Y3996690D01*
X7845044Y3983685D01*
X7855254Y3971848D01*
X7866837Y3961231D01*
X7879588Y3952138D01*
X7893303Y3944569D01*
G37*
G36*
X8003540Y4117340D02*
G01*
X8071053Y4117340D01*
X8067903Y4124401D01*
X8059928Y4137914D01*
X8050428Y4150360D01*
X8039506Y4161637D01*
X8027314Y4171492D01*
X8014106Y4179874D01*
X8003540Y4184904D01*
G37*
G36*
X7609382Y5379669D02*
G01*
X7652562Y5379669D01*
X7652562Y5461660D01*
X7570571Y5461660D01*
X7570571Y5418480D01*
X7571333Y5410504D01*
X7573518Y5403342D01*
X7577074Y5396738D01*
X7581798Y5390896D01*
X7587640Y5386171D01*
X7594244Y5382615D01*
X7601407Y5380431D01*
G37*
G36*
X7765237Y5379669D02*
G01*
X7808417Y5379669D01*
X7816392Y5380431D01*
X7823555Y5382615D01*
X7830159Y5386171D01*
X7836001Y5390896D01*
X7840725Y5396738D01*
X7844281Y5403342D01*
X7846466Y5410504D01*
X7847279Y5418480D01*
X7847279Y5461660D01*
X7765237Y5461660D01*
G37*
G36*
X7765237Y5574334D02*
G01*
X7847279Y5574334D01*
X7847279Y5617514D01*
X7846466Y5625490D01*
X7844281Y5632653D01*
X7840725Y5639257D01*
X7836001Y5645099D01*
X7830159Y5649874D01*
X7823555Y5653379D01*
X7816392Y5655564D01*
X7808417Y5656376D01*
X7765237Y5656376D01*
G37*

%LPD*%
D11*
X2514600Y2387600D02*
G01*
X2452872Y2449327D01*
X2452872Y3123008D01*
X1701800Y3874081D01*
D13*
X7124700Y3098800D02*
G01*
X7124700Y3060700D01*
X7734300Y2451100D01*
X7734300Y2247900D01*
X7950200Y2032000D01*
X9893300Y2082800D02*
G01*
X9893300Y2679700D01*
X10134600Y2921000D01*
X9569450Y1733550D02*
G01*
X9886950Y2076450D01*
X9613900Y1625600D02*
G01*
X10033000Y2044700D01*
X7124700Y2844800D02*
G01*
X7321550Y2647950D01*
X7321550Y2444750D01*
X8026400Y1739900D01*
X9575800Y1739900D01*
X10033000Y2044700D02*
G01*
X10033000Y2540000D01*
X10160000Y2667000D01*
X7124700Y2590800D02*
G01*
X7124700Y2527300D01*
X8026400Y1625600D01*
X9613900Y1625600D01*
D12*
X2705100Y5232400D02*
G01*
X2990341Y4947157D01*
X2990341Y2705354D01*
X6494018Y2895600D02*
G01*
X6494018Y3352800D01*
D13*
X4139945Y4421886D02*
G01*
X4139945Y4127754D01*
X3974845Y3962654D01*
X3974845Y4978654D02*
G01*
X3974845Y4724654D01*
X7124700Y3352800D02*
G01*
X6991598Y3219704D01*
X6991598Y2291587D01*
X7073391Y2209800D01*
X7282434Y2209800D01*
X8013700Y1478534D01*
X8013700Y1460500D01*
X9474200Y2540000D02*
G01*
X9232651Y2781554D01*
X9232651Y4813548D01*
X9131300Y4914900D01*
D12*
X10160000Y3175000D02*
G01*
X9743186Y2758186D01*
X9743186Y2054860D01*
X9553956Y1865884D01*
X8370315Y1865884D01*
X8204200Y2032000D01*
X10160000Y3181857D02*
G01*
X10160000Y3175000D01*
X10160000Y3181857D02*
G01*
X10160000Y3321050D01*
X10160000Y5410200D02*
G01*
X10013950Y5264150D01*
X10013950Y3467100D01*
X10160000Y3321050D01*
D13*
X6299200Y4114800D02*
G01*
X6299200Y2390394D01*
X6441693Y2247900D01*
X4838700Y2844800D02*
G01*
X4635652Y2641752D01*
X3974896Y2641752D01*
D12*
X5521706Y2247900D02*
G01*
X5803645Y2247900D01*
X6362445Y1689100D01*
X6428993Y1689100D01*
D13*
X3974845Y3708654D02*
G01*
X3974845Y3492754D01*
X4229100Y3238500D01*
X4229100Y2768600D01*
D12*
X5521706Y2247900D02*
G01*
X5778500Y2247900D01*
X5778500Y3378200D01*
X5486400Y3670300D01*
X5486400Y5270500D01*
X5283200Y5473700D01*
X5283200Y6341618D01*
X5290565Y6348984D01*
D13*
X5443981Y3352800D02*
G01*
X5295900Y3500881D01*
X5295900Y4165600D01*
X4838700Y4622800D01*
X4838700Y3606800D02*
G01*
X5041900Y3416300D01*
X5035798Y2610865D01*
X4888743Y2463800D01*
X4558944Y2463800D01*
X3974896Y1879752D01*
X4838700Y4368800D02*
G01*
X5207000Y4000500D01*
X5207000Y3365500D01*
X5443981Y3128518D01*
X5443981Y2895600D01*
X4838700Y3860800D02*
G01*
X5118100Y3581400D01*
X5118100Y2435100D01*
X4892799Y2209800D01*
X4558944Y2209800D01*
X3974896Y1625752D01*
X4838700Y2082800D02*
G01*
X4775200Y2082800D01*
X4622800Y1930400D01*
X4622800Y1651254D01*
X4089298Y1117752D01*
X3974896Y1117752D01*
X3974896Y1371752D02*
G01*
X3632200Y1714449D01*
X3632200Y3620007D01*
X3974851Y3962654D01*
X3962201Y2133754D02*
G01*
X3962201Y2387752D01*
X3974896Y2387752D01*
X3974845Y5232654D02*
G01*
X4254500Y4953000D01*
X4254500Y3454654D01*
X4737354Y2971800D01*
X4884927Y2971800D01*
X4961381Y3048254D01*
X4961381Y3230118D01*
X4838700Y3352800D01*
D12*
X3240024Y1117600D02*
G01*
X3240024Y3708400D01*
X3252724Y3708400D01*
D11*
X1447800Y3568092D02*
G01*
X1559811Y3680104D01*
X1559811Y3940050D01*
X1629661Y4009900D01*
X1754126Y4009900D01*
X2539243Y3224529D01*
X2539243Y2553456D01*
X2705100Y2387600D01*
X1435100Y3772154D02*
G01*
X1308354Y3772154D01*
X1206500Y3670300D01*
X1206500Y3517900D01*
X2222500Y2501900D01*
X2222500Y2362200D01*
X2705100Y1879600D01*
X1689100Y5539384D02*
G01*
X2380234Y4884165D01*
X2380234Y4541265D01*
X2705100Y4216400D01*
D13*
X2705100Y4724400D02*
G01*
X2590800Y4724400D01*
X2501900Y4813300D01*
X2501900Y4965700D01*
X1752600Y5715000D01*
X1638300Y5715000D01*
X1562100Y5638800D01*
X1562100Y5462270D01*
X1689100Y5335270D01*
D11*
X2705100Y2133600D02*
G01*
X2603500Y2133600D01*
X2336038Y2401062D01*
X2336038Y3051555D01*
X1717547Y3670045D01*
X1701800Y3670045D01*
D13*
X3974845Y5486654D02*
G01*
X4392422Y5069078D01*
X4392422Y3545078D01*
X4838700Y3098800D01*
D12*
X5509008Y1689100D02*
G01*
X5509008Y1515107D01*
X4904480Y910592D01*
X3447107Y910592D01*
X3240100Y1117600D01*
X9474200Y4064000D02*
G01*
X9638035Y4227829D01*
X9638035Y4904742D01*
X8497577Y6045200D01*
X7251700Y6045200D01*
X9563100Y6330797D02*
G01*
X10160000Y5588000D01*
X10160000Y5410200D01*
D13*
X7124700Y5384800D02*
G01*
X7124700Y5435600D01*
X7556500Y5867400D01*
X7962900Y5867400D01*
X9123679Y4706620D01*
X9123679Y2636520D01*
X9474200Y2286000D01*
X7124700Y3606800D02*
G01*
X7454900Y3937000D01*
X7454900Y5600700D01*
X7620000Y5765800D01*
X7937500Y5765800D01*
X8978900Y4724400D01*
X8978900Y2870200D01*
X5940043Y4316476D02*
G01*
X6364224Y4316476D01*
X6744970Y3935984D01*
X6744970Y3811778D01*
X7076947Y3479800D01*
X7186929Y3479037D01*
X7493000Y3785107D01*
X7493000Y3860800D01*
X7950200Y4318000D01*
G36*
X7808899Y6430799D02*
G01*
X7608900Y6430799D01*
X7608900Y6230800D01*
X7808899Y6230800D01*
G37*
G36*
X9663099Y6430799D02*
G01*
X9463100Y6430799D01*
X9463100Y6230800D01*
X9663099Y6230800D01*
G37*
G36*
X9663099Y5617999D02*
G01*
X9463100Y5617999D01*
X9463100Y5418000D01*
X9663099Y5418000D01*
G37*
G36*
X7808899Y5617999D02*
G01*
X7608900Y5617999D01*
X7608900Y5418000D01*
X7808899Y5418000D01*
G37*
D16*
G01*
X5791200Y4114800D03*
G01*
X6299200Y4114800D03*
D17*
G01*
X4523993Y6083300D03*
G01*
X3604006Y6083300D03*
D18*
G01*
X2705100Y5486400D03*
D19*
G01*
X2705100Y5232400D03*
G01*
X2705100Y4978400D03*
G01*
X2705100Y4724400D03*
G01*
X2705100Y4470400D03*
G01*
X2705100Y4216400D03*
G01*
X2705100Y3962400D03*
G01*
X2705100Y3708400D03*
G01*
X3974896Y3708552D03*
G01*
X3974896Y3962552D03*
G01*
X3974896Y4216552D03*
G01*
X3974896Y4470552D03*
G01*
X3974896Y4724552D03*
G01*
X3974896Y4978552D03*
G01*
X3974896Y5232552D03*
G01*
X3974896Y5486552D03*
D18*
G01*
X2705100Y2895600D03*
D19*
G01*
X2705100Y2641600D03*
G01*
X2705100Y2387600D03*
G01*
X2705100Y2133600D03*
G01*
X2705100Y1879600D03*
G01*
X2705100Y1625600D03*
G01*
X2705100Y1371600D03*
G01*
X2705100Y1117600D03*
G01*
X3974896Y1117752D03*
G01*
X3974896Y1371752D03*
G01*
X3974896Y1625752D03*
G01*
X3974896Y1879752D03*
G01*
X3974896Y2133752D03*
G01*
X3974896Y2387752D03*
G01*
X3974896Y2641752D03*
G01*
X3974896Y2895752D03*
D20*
G01*
X7950200Y4826000D03*
G01*
X7950200Y4572000D03*
G01*
X7950200Y4318000D03*
G01*
X7950200Y4064000D03*
G01*
X7950200Y3810000D03*
G01*
X7950200Y3556000D03*
G01*
X7950200Y3302000D03*
G01*
X7950200Y3048000D03*
G01*
X7950200Y2794000D03*
G01*
X7950200Y2540000D03*
G01*
X7950200Y2286000D03*
G01*
X7950200Y2032000D03*
G01*
X9474200Y2032000D03*
G01*
X9474200Y2286000D03*
G01*
X9474200Y2540000D03*
G01*
X9474200Y2794000D03*
G01*
X9474200Y3048000D03*
G01*
X9474200Y3302000D03*
G01*
X9474200Y3556000D03*
G01*
X9474200Y3810000D03*
G01*
X9474200Y4064000D03*
G01*
X9474200Y4318000D03*
G01*
X9474200Y4572000D03*
G01*
X9474200Y4826000D03*
G01*
X8204200Y2032000D03*
G36*
X4762500Y5715000D02*
G01*
X4914900Y5715000D01*
X4914900Y5562600D01*
X4762500Y5562600D01*
G37*
D22*
G01*
X4838700Y5384800D03*
G01*
X4838700Y5130800D03*
G01*
X4838700Y4876800D03*
G01*
X4838700Y4622800D03*
G01*
X4838700Y4368800D03*
G01*
X4838700Y4114800D03*
G01*
X4838700Y3860800D03*
G01*
X4838700Y3606800D03*
G01*
X4838700Y3352800D03*
G01*
X4838700Y3098800D03*
G01*
X4838700Y2844800D03*
G01*
X4838700Y2590800D03*
G01*
X4838700Y2336800D03*
G01*
X4838700Y2082800D03*
G01*
X4838700Y1828800D03*
G01*
X4838700Y1574800D03*
G01*
X4838700Y1320800D03*
G01*
X4838700Y1066800D03*
G01*
X7124700Y1066800D03*
G01*
X7124700Y1320800D03*
G01*
X7124700Y1574800D03*
G01*
X7124700Y1828800D03*
G01*
X7124700Y2082800D03*
G01*
X7124700Y2336800D03*
G01*
X7124700Y2590800D03*
G01*
X7124700Y2844800D03*
G01*
X7124700Y3098800D03*
G01*
X7124700Y3352800D03*
G01*
X7124700Y3606800D03*
G01*
X7124700Y3860800D03*
G01*
X7124700Y4114800D03*
G01*
X7124700Y4368800D03*
G01*
X7124700Y4622800D03*
G01*
X7124700Y4876800D03*
G01*
X7124700Y5130800D03*
G01*
X7124700Y5384800D03*
G01*
X7124700Y5638800D03*
D23*
G01*
X3240100Y1117600D03*
G01*
X3440099Y1117600D03*
G01*
X3240100Y3708400D03*
G01*
X3440099Y3708400D03*
D24*
G01*
X1435100Y5437378D03*
G01*
X1689100Y5335396D03*
G01*
X1435100Y5233390D03*
D25*
G01*
X1689100Y5131409D03*
D24*
G01*
X1435100Y5641390D03*
G01*
X1689100Y5539384D03*
G01*
X1435100Y3772077D03*
G01*
X1689100Y3670096D03*
G01*
X1435100Y3568090D03*
D25*
G01*
X1689100Y3466084D03*
D24*
G01*
X1435100Y3976090D03*
G01*
X1689100Y3874084D03*
D20*
G01*
X5444007Y3352800D03*
G01*
X6493992Y3352800D03*
G01*
X5444007Y2895600D03*
G01*
X6493992Y2895600D03*
D24*
G01*
X1435100Y2106777D03*
G01*
X1689100Y2004796D03*
G01*
X1435100Y1902790D03*
D25*
G01*
X1689100Y1800783D03*
D24*
G01*
X1435100Y2310790D03*
G01*
X1689100Y2208784D03*
D17*
G01*
X5509006Y1689100D03*
G01*
X6428993Y1689100D03*
G01*
X5521706Y2247900D03*
G01*
X6441693Y2247900D03*
D26*
G01*
X3111500Y6146800D03*
G01*
X2603500Y6146800D03*
D22*
G01*
X10160000Y2413000D03*
G01*
X10160000Y2667000D03*
G01*
X10160000Y2921000D03*
G36*
X10083800Y3251200D02*
G01*
X10236200Y3251200D01*
X10236200Y3098800D01*
X10083800Y3098800D01*
G37*
G01*
X10160000Y4648200D03*
G01*
X10160000Y4902200D03*
G01*
X10160000Y5156200D03*
G36*
X10083800Y5486400D02*
G01*
X10236200Y5486400D01*
X10236200Y5334000D01*
X10083800Y5334000D01*
G37*
D14*
G01*
X8978900Y2870200D03*
G01*
X5940043Y4316476D03*
G01*
X5290565Y6348984D03*
G01*
X9131300Y4914900D03*
G01*
X8013700Y1460500D03*
G01*
X2514600Y2387600D03*
G01*
X4139945Y4421886D03*
G01*
X4229100Y2768600D03*
G01*
X7251700Y6045200D03*
G01*
X2990341Y2705354D03*
M02*
