G04 Layer: TopSolderMaskLayer*
G04 EasyEDA v6.4.21, 2021-08-26T11:40:12+07:00*
G04 98b3a99d5edf45cba19c310b5ac684a5,c12403d6b0f2427aab4c21fec57e8719,10*
G04 Gerber Generator version 0.2*
G04 Scale: 100 percent, Rotated: No, Reflected: No *
G04 Dimensions in millimeters *
G04 leading zeros omitted , absolute positions ,4 integer and 5 decimal *
%FSLAX45Y45*%
%MOMM*%

%ADD34C,2.7032*%
%ADD35C,1.9016*%
%ADD37C,1.9032*%
%ADD38C,2.0828*%
%ADD40C,1.7272*%
%ADD41C,1.5032*%
%ADD42C,1.8032*%
%ADD43R,1.8032X1.8032*%
%ADD44C,2.0032*%
%ADD45C,3.2032*%

%LPD*%
G36*
X7598663Y6220713D02*
G01*
X7598663Y6440931D01*
X7819136Y6440931D01*
X7819136Y6220713D01*
G37*
G36*
X9452863Y6220713D02*
G01*
X9452863Y6440931D01*
X9673336Y6440931D01*
X9673336Y6220713D01*
G37*
G36*
X9452863Y5407913D02*
G01*
X9452863Y5628131D01*
X9673336Y5628131D01*
X9673336Y5407913D01*
G37*
G36*
X7598663Y5407913D02*
G01*
X7598663Y5628131D01*
X7819136Y5628131D01*
X7819136Y5407913D01*
G37*
D34*
G01*
X5791200Y4114800D03*
G01*
X6299200Y4114800D03*
D35*
G01*
X4523993Y6083300D03*
G01*
X3604006Y6083300D03*
G36*
X2609850Y5391150D02*
G01*
X2609850Y5581650D01*
X2800350Y5581650D01*
X2800350Y5391150D01*
G37*
D37*
G01*
X2705100Y5232400D03*
G01*
X2705100Y4978400D03*
G01*
X2705100Y4724400D03*
G01*
X2705100Y4470400D03*
G01*
X2705100Y4216400D03*
G01*
X2705100Y3962400D03*
G01*
X2705100Y3708400D03*
G01*
X3974896Y3708552D03*
G01*
X3974896Y3962552D03*
G01*
X3974896Y4216552D03*
G01*
X3974896Y4470552D03*
G01*
X3974896Y4724552D03*
G01*
X3974896Y4978552D03*
G01*
X3974896Y5232552D03*
G01*
X3974896Y5486552D03*
G36*
X2609850Y2800350D02*
G01*
X2609850Y2990850D01*
X2800350Y2990850D01*
X2800350Y2800350D01*
G37*
G01*
X2705100Y2641600D03*
G01*
X2705100Y2387600D03*
G01*
X2705100Y2133600D03*
G01*
X2705100Y1879600D03*
G01*
X2705100Y1625600D03*
G01*
X2705100Y1371600D03*
G01*
X2705100Y1117600D03*
G01*
X3974896Y1117752D03*
G01*
X3974896Y1371752D03*
G01*
X3974896Y1625752D03*
G01*
X3974896Y1879752D03*
G01*
X3974896Y2133752D03*
G01*
X3974896Y2387752D03*
G01*
X3974896Y2641752D03*
G01*
X3974896Y2895752D03*
D38*
G01*
X7950200Y4826000D03*
G01*
X7950200Y4572000D03*
G01*
X7950200Y4318000D03*
G01*
X7950200Y4064000D03*
G01*
X7950200Y3810000D03*
G01*
X7950200Y3556000D03*
G01*
X7950200Y3302000D03*
G01*
X7950200Y3048000D03*
G01*
X7950200Y2794000D03*
G01*
X7950200Y2540000D03*
G01*
X7950200Y2286000D03*
G01*
X7950200Y2032000D03*
G01*
X9474200Y2032000D03*
G01*
X9474200Y2286000D03*
G01*
X9474200Y2540000D03*
G01*
X9474200Y2794000D03*
G01*
X9474200Y3048000D03*
G01*
X9474200Y3302000D03*
G01*
X9474200Y3556000D03*
G01*
X9474200Y3810000D03*
G01*
X9474200Y4064000D03*
G01*
X9474200Y4318000D03*
G01*
X9474200Y4572000D03*
G01*
X9474200Y4826000D03*
G01*
X8204200Y2032000D03*
G36*
X4752340Y5552439D02*
G01*
X4752340Y5725160D01*
X4925059Y5725160D01*
X4925059Y5552439D01*
G37*
D40*
G01*
X4838700Y5384800D03*
G01*
X4838700Y5130800D03*
G01*
X4838700Y4876800D03*
G01*
X4838700Y4622800D03*
G01*
X4838700Y4368800D03*
G01*
X4838700Y4114800D03*
G01*
X4838700Y3860800D03*
G01*
X4838700Y3606800D03*
G01*
X4838700Y3352800D03*
G01*
X4838700Y3098800D03*
G01*
X4838700Y2844800D03*
G01*
X4838700Y2590800D03*
G01*
X4838700Y2336800D03*
G01*
X4838700Y2082800D03*
G01*
X4838700Y1828800D03*
G01*
X4838700Y1574800D03*
G01*
X4838700Y1320800D03*
G01*
X4838700Y1066800D03*
G01*
X7124700Y1066800D03*
G01*
X7124700Y1320800D03*
G01*
X7124700Y1574800D03*
G01*
X7124700Y1828800D03*
G01*
X7124700Y2082800D03*
G01*
X7124700Y2336800D03*
G01*
X7124700Y2590800D03*
G01*
X7124700Y2844800D03*
G01*
X7124700Y3098800D03*
G01*
X7124700Y3352800D03*
G01*
X7124700Y3606800D03*
G01*
X7124700Y3860800D03*
G01*
X7124700Y4114800D03*
G01*
X7124700Y4368800D03*
G01*
X7124700Y4622800D03*
G01*
X7124700Y4876800D03*
G01*
X7124700Y5130800D03*
G01*
X7124700Y5384800D03*
G01*
X7124700Y5638800D03*
D41*
G01*
X3240100Y1117600D03*
G01*
X3440099Y1117600D03*
G01*
X3240100Y3708400D03*
G01*
X3440099Y3708400D03*
D42*
G01*
X1435100Y5437378D03*
G01*
X1689100Y5335396D03*
G01*
X1435100Y5233390D03*
G36*
X1598929Y5041137D02*
G01*
X1598929Y5221478D01*
X1779270Y5221478D01*
X1779270Y5041137D01*
G37*
G01*
X1435100Y5641390D03*
G01*
X1689100Y5539384D03*
G01*
X1435100Y3772077D03*
G01*
X1689100Y3670096D03*
G01*
X1435100Y3568090D03*
D43*
G01*
X1689100Y3466084D03*
D42*
G01*
X1435100Y3976090D03*
G01*
X1689100Y3874084D03*
D38*
G01*
X5444007Y3352800D03*
G01*
X6493992Y3352800D03*
G01*
X5444007Y2895600D03*
G01*
X6493992Y2895600D03*
D42*
G01*
X1435100Y2106777D03*
G01*
X1689100Y2004796D03*
G01*
X1435100Y1902790D03*
G36*
X1598929Y1710689D02*
G01*
X1598929Y1891029D01*
X1779270Y1891029D01*
X1779270Y1710689D01*
G37*
G01*
X1435100Y2310790D03*
G01*
X1689100Y2208784D03*
D44*
G01*
X5509006Y1689100D03*
G01*
X6428993Y1689100D03*
G01*
X5521706Y2247900D03*
G01*
X6441693Y2247900D03*
D45*
G01*
X3111500Y6146800D03*
G01*
X2603500Y6146800D03*
D40*
G01*
X10160000Y2413000D03*
G01*
X10160000Y2667000D03*
G01*
X10160000Y2921000D03*
G36*
X10073640Y3088639D02*
G01*
X10073640Y3261360D01*
X10246359Y3261360D01*
X10246359Y3088639D01*
G37*
G01*
X10160000Y4648200D03*
G01*
X10160000Y4902200D03*
G01*
X10160000Y5156200D03*
G36*
X10073640Y5323839D02*
G01*
X10073640Y5496560D01*
X10246359Y5496560D01*
X10246359Y5323839D01*
G37*
M02*
