M48
METRIC,LZ,000.000
;FILE_FORMAT=3:3
;TYPE=PLATED
;Layer: Drill PTH
;EasyEDA v6.4.21, 2021-08-26T11:40:12+07:00
;98b3a99d5edf45cba19c310b5ac684a5,c12403d6b0f2427aab4c21fec57e8719,10
;Gerber Generator version 0.2
;Holesize 1 = 0.305 mm
T01C0.305
;Holesize 2 = 0.800 mm
T02C0.800
;Holesize 3 = 0.889 mm
T03C0.889
;Holesize 4 = 0.901 mm
T04C0.901
;Holesize 5 = 0.915 mm
T05C0.915
;Holesize 6 = 1.000 mm
T06C1.000
;Holesize 7 = 1.180 mm
T07C1.180
;Holesize 8 = 1.501 mm
T08C1.501
%
G05
G90
T01
X089789Y028702
X059400Y043165
X052906Y063490
X091313Y049149
X080137Y014605
X025146Y023876
X041399Y044219
X042291Y027686
X072517Y060452
X029903Y027054
T02
X027051Y054864
X027051Y052324
X027051Y049784
X027051Y047244
X027051Y044704
X027051Y042164
X027051Y039624
X027051Y037084
X039749Y037086
X039749Y039626
X039749Y042166
X039749Y044706
X039749Y047246
X039749Y049786
X039749Y052326
X039749Y054866
X027051Y028956
X027051Y026416
X027051Y023876
X027051Y021336
X027051Y018796
X027051Y016256
X027051Y013716
X027051Y011176
X039749Y011178
X039749Y013718
X039749Y016258
X039749Y018798
X039749Y021338
X039749Y023878
X039749Y026418
X039749Y028958
X032401Y011176
X034401Y011176
X032401Y037084
X034401Y037084
T03
X079502Y048260
X079502Y045720
X079502Y043180
X079502Y040640
X079502Y038100
X079502Y035560
X079502Y033020
X079502Y030480
X079502Y027940
X079502Y025400
X079502Y022860
X079502Y020320
X094742Y020320
X094742Y022860
X094742Y025400
X094742Y027940
X094742Y030480
X094742Y033020
X094742Y035560
X094742Y038100
X094742Y040640
X094742Y043180
X094742Y045720
X094742Y048260
X082042Y020320
T04
X101600Y024130
X101600Y026670
X101600Y031750
X101600Y046482
X101600Y049022
X101600Y054102
T05
X077089Y063308
X095631Y063308
X095631Y055180
X077089Y055180
X048387Y056388
X048387Y053848
X048387Y051308
X048387Y048768
X048387Y046228
X048387Y043688
X048387Y041148
X048387Y038608
X048387Y036068
X048387Y033528
X048387Y030988
X048387Y028448
X048387Y025908
X048387Y023368
X048387Y020828
X048387Y018288
X048387Y015748
X048387Y013208
X048387Y010668
X071247Y010668
X071247Y013208
X071247Y015748
X071247Y018288
X071247Y020828
X071247Y023368
X071247Y025908
X071247Y028448
X071247Y030988
X071247Y033528
X071247Y036068
X071247Y038608
X071247Y041148
X071247Y043688
X071247Y046228
X071247Y048768
X071247Y051308
X071247Y053848
X071247Y056388
T06
X045240Y060833
X036040Y060833
X014351Y054374
X016891Y053354
X014351Y052334
X016891Y051314
X014351Y056414
X016891Y055394
X014351Y037721
X016891Y036701
X014351Y035681
X016891Y034661
X014351Y039761
X016891Y038741
X054440Y033528
X064940Y033528
X054440Y028956
X064940Y028956
X014351Y021068
X016891Y020048
X014351Y019028
X016891Y018008
X014351Y023108
X016891Y022088
X055090Y016891
X064290Y016891
X055217Y022479
X064417Y022479
X101600Y029210
X101600Y051562
T07
X031115Y061468
X026035Y061468
T08
X057912Y041148
X062992Y041148
M30
